<svg version="1.1" xmlns="http://www.w3.org/2000/svg" xmlns:xlink="http://www.w3.org/1999/xlink" width="696" height="1417"><desc>title%20User%2C%20Users%20Class%20Sequence%20Diagram%0Aactor%20Actor%20User%0Aparticipant%20Main%0Aparticipant%20Users%0Aparticipant%20User%0A%0A%0Adatabase%20Database%0A%0AActor%20User-%3EMain%3Alogin%0Aactivate%20Main%0AMain-%3EUsers%3Acreate%20object%0Aactivate%20Users%0AUsers-%3EDatabase%3AreadFromFile()%0Aactivate%20Database%0ADatabase--%3EUsers%3Aamount%20of%20users%0A%0Aloop%20all%20users%0AUsers-%3EUser%3AreadFromFile()%0Aactivate%20User%0AUser-%3EDatabase%3AreadFromFile()%0AUser%3C--Database%3Auser%20data%0Aend%0Adeactivate%20Database%0A%0Aloop%20until%20user%20choice%0AMain-%3EUsers%3Amenu()%0Aend%0A%0A%0Aalt%20login%20succsess%0AUsers-%3EUsers%3Alogin()%0AUsers-%3EUsers%3AcheckUserDetails()%0AUsers-%3EMain%3Amenu%0A%0Aelse%20login%20fail%0AUsers-%3EUsers%3Alogin()%0AUsers-%3EUsers%3AcheckUserDetails()%0A%0AUsers-%3EUsers%3Amenu()%0Aend%0A%0Aloop%20until%20user%20choice%0AMain-%3EMain%3Amenu()%0Aend%0AUsers-%3EDatabase%3AwriteToFile()%0Aactivate%20Database%0AUser-%3EDatabase%3AwriteToFile()%0Adeactivate%20Database%0A</desc><defs/><g><g/><g/><g/><g/><g/><g/><g/><g/><g/><g/><g/><g/><g/><g/><g/><g/><g/><g><rect fill="white" stroke="none" x="0" y="0" width="696" height="1417"/></g><g><text fill="black" stroke="none" font-family="sans-serif" font-size="16.5pt" font-style="normal" font-weight="normal" text-decoration="normal" x="162.92280620457285" y="24.50280495" text-anchor="start" dominant-baseline="alphabetic" xml:space="preserve">User, Users Class Sequence Diagram</text></g><g/><g><path fill="none" stroke="black" paint-order="fill stroke markers" d=" M 42.66760165 128.884754037 L 42.66760165 1417.7322944069997" stroke-miterlimit="10" stroke-width="1.3612669416666667" stroke-dasharray="12.565541,5.445067766666667"/><path fill="none" stroke="black" paint-order="fill stroke markers" d=" M 126.2265005305 128.884754037 L 126.2265005305 1417.7322944069997" stroke-miterlimit="10" stroke-width="1.3612669416666667" stroke-dasharray="12.565541,5.445067766666667"/><path fill="none" stroke="black" paint-order="fill stroke markers" d=" M 270.12224596383334 128.884754037 L 270.12224596383334 1417.7322944069997" stroke-miterlimit="10" stroke-width="1.3612669416666667" stroke-dasharray="12.565541,5.445067766666667"/><path fill="none" stroke="black" paint-order="fill stroke markers" d=" M 457.7405252805 128.884754037 L 457.7405252805 1417.7322944069997" stroke-miterlimit="10" stroke-width="1.3612669416666667" stroke-dasharray="12.565541,5.445067766666667"/><path fill="none" stroke="black" paint-order="fill stroke markers" d=" M 614.6362707138333 128.884754037 L 614.6362707138333 1417.7322944069997" stroke-miterlimit="10" stroke-width="1.3612669416666667" stroke-dasharray="12.565541,5.445067766666667"/></g><g><g><path fill="white" stroke="black" paint-order="fill stroke markers" d=" M 51.978667531 59.786844078 A 9.311065881 9.311065881 0 1 1 51.97866287546745 59.77753301367084 M 42.66760165 69.097909959 L 42.66760165 89.026857985 M 30.906255274000003 76.285399411 L 54.428948026 76.285399411 M 42.66760165 89.026857985 L 30.906255274000003 107.648989747 M 42.66760165 89.026857985 L 54.428948026 107.648989747" stroke-miterlimit="10" stroke-width="2.7769845610000004" stroke-dasharray=""/></g><g><g/><text fill="black" stroke="none" font-family="sans-serif" font-size="11pt" font-style="normal" font-weight="normal" text-decoration="normal" x="8.167601650000002" y="123.98419304699999" text-anchor="start" dominant-baseline="alphabetic" xml:space="preserve">Actor User</text></g><path fill="none" stroke="none"/><g><path fill="white" stroke="black" paint-order="fill stroke markers" d=" M 93.50280495000001 84.779705127 L 158.95019611100003 84.779705127 L 158.95019611100003 128.884754037 L 93.50280495000001 128.884754037 L 93.50280495000001 84.779705127 Z" stroke-miterlimit="10" stroke-width="2.613632528" stroke-dasharray=""/></g><g><g/><text fill="black" stroke="none" font-family="sans-serif" font-size="11pt" font-style="normal" font-weight="normal" text-decoration="normal" x="111.2265005305" y="112.549550737" text-anchor="start" dominant-baseline="alphabetic" xml:space="preserve">Main</text></g><path fill="none" stroke="none"/><g><path fill="white" stroke="black" paint-order="fill stroke markers" d=" M 232.89855038333332 84.779705127 L 307.3459415443333 84.779705127 L 307.3459415443333 128.884754037 L 232.89855038333332 128.884754037 L 232.89855038333332 84.779705127 Z" stroke-miterlimit="10" stroke-width="2.613632528" stroke-dasharray=""/></g><g><g/><text fill="black" stroke="none" font-family="sans-serif" font-size="11pt" font-style="normal" font-weight="normal" text-decoration="normal" x="250.62224596383334" y="112.549550737" text-anchor="start" dominant-baseline="alphabetic" xml:space="preserve">Users</text></g><path fill="none" stroke="none"/><g><path fill="white" stroke="black" paint-order="fill stroke markers" d=" M 424.51682969999996 84.779705127 L 490.96422086099994 84.779705127 L 490.96422086099994 128.884754037 L 424.51682969999996 128.884754037 L 424.51682969999996 84.779705127 Z" stroke-miterlimit="10" stroke-width="2.613632528" stroke-dasharray=""/></g><g><g/><text fill="black" stroke="none" font-family="sans-serif" font-size="11pt" font-style="normal" font-weight="normal" text-decoration="normal" x="442.2405252805" y="112.549550737" text-anchor="start" dominant-baseline="alphabetic" xml:space="preserve">User</text></g><g><path fill="white" stroke="black" paint-order="fill stroke markers" d=" M 590.7868738958333 96.867755569 L 590.7868738958333 62.563828639 L 638.4856675318332 62.563828639 L 638.4856675318332 96.867755569" stroke-miterlimit="10" stroke-width="2.7769845610000004" stroke-dasharray=""/><path fill="white" stroke="black" paint-order="fill stroke markers" d=" M 638.4856675318332 61.3713587981 L 638.4844750719295 61.47916934301662 L 638.4808978114635 61.58696910696859 L 638.4749361081582 61.69474731006935 L 638.4665905581788 61.8024931745884 L 638.4558619960736 61.91019592602908 L 638.4427514946898 62.017844794206 L 638.4272603650666 62.125429014322044 L 638.409390156304 62.232937828044854 L 638.3891426554079 62.34036048458265 L 638.3665198871117 62.44768624175929 L 638.3415241136734 62.55490436708851 L 638.3141578346493 62.66200413884712 L 638.2844237866448 62.76897484714718 L 638.2523249430396 62.87580579500701 L 638.2178645136916 62.982486299420856 L 638.1810459446148 63.08900569242717 L 638.1418729176354 63.19535332217542 L 638.1003493500236 63.30151855399125 L 638.0564793941016 63.40749077143996 L 638.0102674368283 63.5132593773881 L 637.961718099361 63.618813795063225 L 637.9108362365929 63.724143469111524 L 637.857626936668 63.82923786665337 L 637.8020955204718 63.93408647833659 L 637.7442475410998 64.03867881938739 L 637.6840887833016 64.1430044306588 L 637.621625262903 64.24705287967667 L 637.5568632262037 64.35081376168277 L 637.4898091493537 64.45427670067541 L 637.4204697377048 64.55743135044686 L 637.3488519251401 64.66026739561813 L 637.2749628733815 64.7627745526704 L 637.1988099712725 64.86494257097338 L 637.1204008340396 64.96676123381039 L 637.0397433025315 65.06822035939997 L 636.9568454424341 65.16930980191414 L 636.8717155434642 65.27001945249287 L 636.7843621185408 65.37033924025505 L 636.6947939029336 65.47025913330548 L 636.6030198533896 65.56976913973813 L 636.5090491472372 65.66885930863528 L 636.4128911814686 65.7675197310626 L 636.3145555718005 65.86574054106009 L 636.2140521517117 65.96351191662859 L 636.1113909714605 66.06082408071202 L 636.0065822970795 66.15766730217506 L 635.8996366093486 66.25403189677627 L 635.7905646027476 66.3499082281365 L 635.6793771843863 66.4452867087025 L 635.5660854729138 66.54015780070569 L 635.4507007974069 66.63451201711595 L 635.3332346962368 66.72833992259025 L 635.2136989159159 66.82163213441623 L 635.0921054099226 66.91437932345046 L 634.9684663375062 67.00657221505134 L 634.8427940624708 67.0982015900065 L 634.7151011519394 67.18925828545483 L 634.5854003750964 67.27973319580266 L 634.4537047019114 67.36961727363435 L 634.3200273018422 67.45890153061701 L 634.1843815425173 67.54757703839935 L 634.0467809883994 67.6356349295045 L 633.9072393994295 67.72306639821673 L 633.7657707296502 67.80986270146201 L 633.6223891258104 67.89601515968236 L 633.4771089259513 67.98151515770375 L 633.3299446579714 68.06635414559763 L 633.1809110381753 68.15052363953589 L 633.0300229698004 68.2340152226393 L 632.877295541528 68.31682054581911 L 632.7227440259737 68.39893132861202 L 632.5663838781603 68.48033936000816 L 632.408230733972 68.56103649927225 L 632.2483004085917 68.6410146767576 L 632.0866088949185 68.72026589471311 L 631.9231723619693 68.79878222808303 L 631.7580071532607 68.87655582529945 L 631.5911297851763 68.95357890906746 L 631.4225569453139 69.02984377714286 L 631.2523054908168 69.10534280310242 L 631.0803924466886 69.18006843710643 L 630.9068350040906 69.25401320665378 L 630.7316505186222 69.32716971732913 L 630.5548565085862 69.39953065354239 L 630.3764706532362 69.47108877926021 L 630.1965107910089 69.54183693872967 L 630.0149949177409 69.61176805719379 L 629.8319411848679 69.68087514159897 L 629.6473678976109 69.74915128129439 L 629.4612935131447 69.81658964872294 L 629.2737366387528 69.88318350010411 L 629.0847160299661 69.94892617610824 L 628.8942505886882 70.01381110252252 L 628.7023593613044 70.07783179090838 L 628.5090615367776 70.14098183925032 L 628.3143764447291 70.20325493259614 L 628.1183235535059 70.26464484368842 L 627.9209224682337 70.32514543358717 L 627.7221929288567 70.38475065228383 L 627.5221548081629 70.44345453930622 L 627.320828109798 70.50125122431453 L 627.1182329662639 70.55813492768844 L 626.9143896369061 70.61409996110503 L 626.7093185058878 70.66914072810756 L 626.5030400801511 70.72325172466522 L 626.2955749873668 70.77642753972344 L 626.086943973871 70.82866285574504 L 625.8771679025916 70.87995244924193 L 625.6662677509606 70.9302911912975 L 625.4542646088175 70.9796740480795 L 625.2411796762999 71.0280960813434 L 625.0270342617235 71.07555244892625 L 624.8118497794512 71.12203840523081 L 624.595647747752 71.16754930170019 L 624.3784497866488 71.21208058728268 L 624.1602776157569 71.25562780888683 L 623.9411530521113 71.29818661182675 L 623.7210980079859 71.33975274025764 L 623.5001344887019 71.38032203760127 L 623.2782845904269 71.41989044696174 L 623.0555704979658 71.45845401153106 L 622.8320144825424 71.49600887498494 L 622.607638899572 71.5325512818683 L 622.3824661864256 71.56807757797091 L 622.1565188601872 71.60258421069277 L 621.929819515401 71.63606772939937 L 621.7023908218126 71.66852478576672 L 621.4742555221018 71.69995213411627 L 621.2454364296085 71.73034663173934 L 621.0159564260512 71.7597052392115 L 620.7858384592391 71.78802502069648 L 620.555105540777 71.81530314423973 L 620.3237807437647 71.84153688205163 L 620.0918872004888 71.86672361078024 L 619.8594481001107 71.8908608117737 L 619.6264866863467 71.913946071332 L 619.3930262551437 71.93597708094846 L 619.1590901523507 71.95695163754044 L 618.9247017713827 71.97686764366978 L 618.6898845508828 71.99572310775245 L 618.4546619723772 72.01351614425778 L 618.2190575579275 72.03024497389691 L 617.9830948677792 72.04590792380084 L 617.7467974980045 72.06050342768764 L 617.5101890781435 72.07403002601906 L 617.2732932688409 72.08648636614654 L 617.0361337594804 72.09787120244648 L 616.7987342658153 72.1081833964447 L 616.5611185275968 72.11742191693043 L 616.3233103062012 72.12558584005929 L 616.0853333822521 72.13267434944576 L 615.8472115532437 72.13868673624485 L 615.6089686311606 72.14362239922286 L 615.3706284400962 72.14748084481762 L 615.1322148138712 72.1502616871878 L 614.8937515936494 72.15196464825142 L 614.6552626255543 72.15258955771385 L 614.4167717582837 72.15213635308466 L 614.1783028407259 72.15060507968391 L 613.9398797195737 72.14799589063767 L 613.7015262369407 72.1443090468627 L 613.4632662279763 72.13954491704027 L 613.2251235184831 72.1337039775794 L 612.9871219225334 72.12678681256918 L 612.7492852400886 72.11879411372033 L 612.5116372546187 72.10972668029609 L 612.2742017307241 72.09958541903224 L 612.0370024117594 72.08837134404646 L 611.800063017459 72.07608557673689 L 611.5634072415647 72.06272934567005 L 611.3270587494569 72.04830398645788 L 611.0910411757878 72.0328109416243 L 610.8553781221183 72.01625176046089 L 610.6200931545571 71.99862809887196 L 610.3852098014052 71.97994171920898 L 610.1507515508018 71.96019449009434 L 609.916741848377 71.9393883862345 L 609.6832040949056 71.91752548822251 L 609.4501616439687 71.89460798232996 L 609.217637799617 71.87063816028832 L 608.9856558140411 71.84561841905983 L 608.7542388852465 71.81955126059778 L 608.523410154733 71.79243929159627 L 608.2931927051815 71.7642852232296 L 608.0636095581449 71.73509187088118 L 607.8346836717466 71.7048621538619 L 607.6064379383846 71.67359909511825 L 607.378895182442 71.64130582093009 L 607.1520781580047 71.6079855605979 L 606.9260095465862 71.57364164611994 L 606.7007119548592 71.53827751185906 L 606.4762079123951 71.50189669419922 L 606.2525198694112 71.46450283119185 L 606.0296701945254 71.42609966219209 L 605.8076811725192 71.38669102748484 L 605.5865750021102 71.34628086790075 L 605.3663737937308 71.30487322442208 L 605.1470995673186 71.26247223777868 L 604.9287742501134 71.21908214803388 L 604.711419674465 71.17470729416048 L 604.49505757565 71.12935211360693 L 604.2797095896976 71.08302114185344 L 604.0653972512274 71.0357190119586 L 603.8521419912943 70.987450454096 L 603.6399651352468 70.93822029508118 L 603.4288879005935 70.88803345788901 L 603.2189313948821 70.8368949611614 L 603.0101166135883 70.7848099187054 L 602.8024644380159 70.73178353898187 L 602.5959956332098 70.67782112458457 L 602.3907308458781 70.62292807170999 L 602.1866906023287 70.56710986961765 L 601.9838953064157 70.51037210008127 L 601.7823652374999 70.4527204368305 L 601.5821205484202 70.39416064498364 L 601.3831812634786 70.33469858047107 L 601.1855672764378 70.27434018944969 L 600.989298348532 70.2130915077083 L 600.7943941064901 70.15095866006402 L 600.6008740405742 70.08794785974987 L 600.4087575026294 70.02406540779336 L 600.2180637041497 69.95931769238642 L 600.0288117143557 69.89371118824668 L 599.8410204582888 69.82725245596986 L 599.6547087149181 69.7599481413738 L 599.4698951152627 69.69180497483389 L 599.2865981405287 69.62282977060998 L 599.1048361202604 69.55302942616503 L 598.9246272305089 69.4824109214753 L 598.7459894920127 69.41098131833243 L 598.5689407683967 69.3387477596372 L 598.3934987643859 69.26571746868528 L 598.2196810240345 69.19189774844492 L 598.0475049289715 69.1172959808266 L 597.8769876966632 69.04191962594494 L 597.7081463786906 68.96577622137262 L 597.5409978590446 68.88887338138663 L 597.3755588524383 68.81121879620687 L 597.2118459026341 68.73282023122718 L 597.0498753807908 68.6536855262387 L 596.8896634838255 68.573822594646 L 596.7312262327944 68.49323942267567 L 596.5745794712906 68.41194406857777 L 596.4197388638597 68.32994466181995 L 596.2667198944334 68.24724940227456 L 596.1155378647811 68.16386655939866 L 595.9662078929798 68.07980447140702 L 595.8187449119023 67.99507154443839 L 595.6731636677238 67.90967625171488 L 595.5294787184473 67.8236271326946 L 595.3877044324481 67.73693279221771 L 595.2478549870367 67.64960189964606 L 595.109944367041 67.56164318799608 L 594.9739863634079 67.47306545306569 L 594.8399945718248 67.38387755255452 L 594.7079823913591 67.29408840517834 L 594.5779630231187 67.20370698977703 L 594.4499494689322 67.11274234441683 L 594.3239545300484 67.02120356548647 L 594.199990805856 66.92909980678756 L 594.0780706926244 66.83644027861922 L 593.9582063822629 66.74323424685704 L 593.840409861103 66.64949103202653 L 593.7246929086986 66.55522000837107 L 593.6110670966483 66.46043060291444 L 593.4995437874389 66.3651322945182 L 593.3901341333083 66.2693346129338 L 593.2828490751306 66.17304713784955 L 593.1776993413223 66.07627949793272 L 593.0746954467693 65.97904136986665 L 592.973847691775 65.88134247738313 L 592.8751661610308 65.78319259028999 L 592.7786607226079 65.68460152349414 L 592.6843410269695 65.58557913602012 L 592.5922165060065 65.48613533002413 L 592.5022963720943 65.38628004980393 L 592.4145896171714 65.2860232808043 L 592.32910501184 65.18537504861862 L 592.2458511044898 65.08434541798623 L 592.1648362204418 64.982944491786 L 592.086068461117 64.88118241002603 L 592.0095557032257 64.77906934882972 L 591.9353055979799 64.67661551941809 L 591.8633255703284 64.5738311670887 L 591.7936228182136 64.47072657019112 L 591.7262043118532 64.36731203909913 L 591.6610767930412 64.26359791517966 L 591.5982467744752 64.15959456975868 L 591.5377205391051 64.05531240308405 L 591.4795041395035 63.95076184328555 L 591.4236033972624 63.84595334533201 L 591.3700239024089 63.74089738998592 L 591.3187710128481 63.63560448275524 L 591.2698498538263 63.530085152842965 L 591.2232653174184 63.42434995209415 L 591.1790220620395 63.318409453940745 L 591.1371245119781 63.2122742523443 L 591.0975768569543 63.105954960736526 L 591.0603830517007 62.99946221095797 L 591.0255468155668 62.892806652194885 L 590.9930716321471 62.78599894991426 L 590.9629607489331 62.679049784797314 L 590.9352171769879 62.57196985167143 L 590.9098436906455 62.464769858440704 L 590.8868428272335 62.357460525015114 L 590.8662168868191 62.25005258223858 L 590.8479679319789 62.14255677081588 L 590.8320977875935 62.03498384023857 L 590.818608040664 61.92734454771006 L 590.8075000401537 61.81964965706991 L 590.7987748968537 61.71190993771744 L 590.7924334832708 61.6041361635348 L 590.7884764335412 61.49633911180959 L 590.7869041433664 61.38852956215717 L 590.7877167699744 61.28071829544265 L 590.790914232103 61.172916092702856 L 590.7964962100086 61.06513373406823 L 590.8044621454983 60.957381997684834 L 590.814811241985 60.84967165863649 L 590.8275424645678 60.74201348786736 L 590.842654540135 60.6344182511048 L 590.8601459574916 60.526896707782825 L 590.8800149675103 60.41945960996616 L 590.902259583307 60.31211770127506 L 590.9268775804385 60.204881715810956 L 590.9538664971254 60.097762377083015 L 590.9832236344988 59.99077039693585 L 591.0149460568693 59.88391647447831 L 591.0490305920213 59.7772112950136 L 591.0854738315293 59.67066552897075 L 591.1242721311 59.56428983083758 L 591.1654216109357 59.45809483809524 L 591.2089181561228 59.35209117015452 L 591.2547574170428 59.24628942729389 L 591.302934809808 59.14070018959944 L 591.3534455167193 59.03533401590697 L 591.4062844867478 58.93020144274604 L 591.461446436041 58.82531298328635 L 591.5189258484496 58.72067912628645 L 591.5787169760804 58.61631033504484 L 591.6408138398702 58.51221704635366 L 591.7052102301848 58.40840966945505 L 591.7718997074386 58.30489858500019 L 591.8408756027394 58.20169414401126 L 591.9121310185552 58.098806666846365 L 591.9856588294039 57.996246442167475 L 592.0614516825655 57.894023725911595 L 592.1395019988179 57.79214874026516 L 592.2198019731946 57.69063167264185 L 592.302343575765 57.58948267466382 L 592.3871185524378 57.488711861146584 L 592.4741184257857 57.38832930908751 L 592.5633344958941 57.28834505665816 L 592.6547578412302 57.18876910220045 L 592.7483793195357 57.08961140322686 L 592.8441895687407 56.99088187542464 L 592.9421790079003 56.8925903916643 L 593.0423378381522 56.794746781012314 L 593.1446560436967 56.6973608277482 L 593.2491233927985 56.60044227038614 L 593.35572943881 56.5040008007011 L 593.4644635212153 56.40804606275968 L 593.5753147666966 56.31258765195572 L 593.688272090222 56.217635114050736 L 593.8033241961531 56.12319794421941 L 593.9204595793752 56.029285586100016 L 594.0396665264476 55.93590743085011 L 594.160933116775 55.8430728162074 L 594.2842472237994 55.75079102555599 L 594.4095965162129 55.65907128699804 L 594.5369684591906 55.56792277243099 L 594.6663503156444 55.47735459663031 L 594.7977291474965 55.387375816338135 L 594.9310918169731 55.29799542935749 L 595.0664249879185 55.20922237365261 L 595.2037151271284 55.12106552645507 L 595.3429485057031 55.033533703376136 L 595.484111200421 54.94663565752517 L 595.6271890951301 54.86038007863435 L 595.7721678821603 54.77477559218967 L 595.9190330637535 54.689830758568455 L 596.0677699535142 54.60555407218327 L 596.2183636778772 54.52195396063252 L 596.3707991775956 54.439038783857704 L 596.5250612092464 54.35681683330739 L 596.681134346755 54.27529633110813 L 596.8390029829378 54.19448542924221 L 596.9986513310628 54.114392208732454 L 597.1600634264279 54.03502467883419 L 597.3232231279584 53.95639077623426 L 597.4881141198199 53.878498364257396 L 597.6547199130508 53.801355232079885 L 597.8230238472106 53.72496909395066 L 597.9930090920459 53.649347588419886 L 598.1646586491742 53.57449827757509 L 598.3379553537826 53.50042864628498 L 598.5128818763451 53.42714610145097 L 598.6894207243553 53.35465797126647 L 598.8675542440753 53.28297150448409 L 599.0472646223019 53.21209386969077 L 599.2285338881468 53.14203215459092 L 599.4113439148344 53.072793365297684 L 599.5956764215147 53.00438442563227 L 599.7815129750904 52.93681217643165 L 599.968834992061 52.870083374864436 L 600.1576237403809 52.80420469375517 L 600.3478603413328 52.739182720917064 L 600.5395257714149 52.67502395849323 L 600.732600864244 52.611734822306424 L 600.9270663124717 52.54932164121754 L 601.1229026697152 52.48779065649267 L 601.320090352502 52.427148021179015 L 601.5186096422283 52.36739979948956 L 601.7184406871303 52.3085519661967 L 601.9195635042701 52.25061040603471 L 602.1219579815337 52.19358091311133 L 602.325603879642 52.13746919032833 L 602.5304808341748 52.08228084881122 L 602.7365683576074 52.02802140734818 L 602.9438458413593 51.974696291838114 L 603.1522925578548 51.922310834748146 L 603.361887662596 51.87087027458034 L 603.572610196247 51.82037975534783 L 603.78443908673 51.770844326060484 L 603.9973531513326 51.72226894021993 L 604.2113310988258 51.674658455324284 L 604.426351531593 51.62801763238236 L 604.6423929477702 51.58235113543759 L 604.8594337433957 51.5376635311016 L 605.077452214571 51.49395928809759 L 605.2964265596306 51.451242776813444 L 605.5163348813223 51.409518268864694 L 605.7371551889976 51.368789936667355 L 605.9588654008093 51.32906185302072 L 606.1814433459211 51.29033799070003 L 606.4048667667241 51.252622222059266 L 606.6291133210623 51.21591831864385 L 606.8541605844672 51.18022995081354 L 607.0799860523999 51.14556068737539 L 607.306567142502 51.11191399522683 L 607.5338811968531 51.079293239009054 L 607.7619054842372 51.047701680770494 L 607.9906172024157 51.01714247964064 L 608.2199934804073 50.98761869151416 L 608.4500113807754 50.95913326874524 L 608.6806479019216 50.93168905985244 L 608.911879980386 50.90528880923376 L 609.1436844931533 50.87993515689227 L 609.3760382599656 50.85563063817208 L 609.6089180456398 50.83237768350481 L 609.8423005623914 50.81017861816654 L 610.0761624721632 50.78903566204531 L 610.310480388959 50.768950929419105 L 610.5452308811825 50.749926428744466 L 610.7803904739801 50.7319640624556 L 611.0159356515885 50.71506562677416 L 611.2518428596861 50.69923281152964 L 611.4880885077489 50.684467199990365 L 611.7246489714087 50.6707702687052 L 611.9615005948165 50.658143387355835 L 612.1986196930071 50.64658781861989 L 612.4359825542685 50.63610471804463 L 612.6735654425123 50.62669513393135 L 612.9113445996476 50.61836000723063 L 613.149296247957 50.61110017144819 L 613.3873965924737 50.604916352561574 L 613.6256218233618 50.5998091689475 L 613.8639481182969 50.595779131320086 L 614.1023516448479 50.592826642679725 L 614.3408085628607 50.59095199827282 L 614.5792950268426 50.59015538556226 L 614.8177871883456 50.59043688420866 L 615.0562611983524 50.59179646606236 L 615.2946932096609 50.594233995166334 L 615.5330593792684 50.59774922776969 L 615.7713358707566 50.6023418123521 L 616.0094988566751 50.60801128965893 L 616.2475245209237 50.61475709274719 L 616.4853890611341 50.622578547042174 L 616.7230686910508 50.63147487040497 L 616.9605396429089 50.64144517321068 L 617.1977781698108 50.6524884584373 L 617.4347605481017 50.66460362176552 L 617.6714630797413 50.67778945168912 L 617.9078620946736 50.69204462963607 L 618.1439339531943 50.70736773010048 L 618.3796550483139 50.72375722078505 L 618.6150018081196 50.74121146275439 L 618.8499506981315 50.759728710598836 L 619.0844782236562 50.77930711260903 L 619.318560932137 50.79994471096109 L 619.5521754154977 50.821639441912396 L 619.7852983124848 50.844389136007905 L 620.0179063110029 50.86819151829718 L 620.249976150446 50.893044208561825 L 620.4814846240234 50.91894472155353 L 620.7124085810809 50.94589046724256 L 620.9427249294151 50.973878751076825 L 621.1724106375831 51.00290677425126 L 621.4014427372055 51.03297163398772 L 621.6297983252631 51.064070323825305 L 621.8574545663876 51.09619973392093 L 622.0843886951443 51.129356651360375 L 622.3105780183097 51.16353776047952 L 622.53599991714 51.198739643195935 L 622.7606318496329 51.23495877935069 L 622.9844513527826 51.27219154706035 L 623.2074360448252 51.31043422307917 L 623.4295636274771 51.349682983171405 L 623.6508118881657 51.38993390249377 L 623.8711587022487 51.43118295598788 L 624.0905820352286 51.47342601878273 L 624.309059944955 51.51665886660727 L 624.526570583819 51.56087717621274 L 624.7430922009378 51.60607652580503 L 624.9586031443301 51.65225239548683 L 625.1730818630814 51.69940016770967 L 625.3865069094984 51.74751512773561 L 625.5988569412543 51.79659246410874 L 625.810110723523 51.84662726913632 L 626.0202471311022 51.89761453937955 L 626.2292451505263 51.949549176153894 L 626.4370838821675 52.00242598603895 L 626.6437425423258 52.0562396813978 L 626.8492004653075 52.11098488090573 L 627.0534371054914 52.16665611008844 L 627.2564320393838 52.22324780186939 L 627.4581649676603 52.28075429712656 L 627.6586157171964 52.339169845258354 L 627.857764243084 52.398488604758626 L 628.0555906306366 52.458704643800864 L 628.2520750973803 52.51981194083135 L 628.4471979950321 52.581804385171296 L 628.6409398114648 52.64467577762793 L 628.8332811726582 52.708419831114405 L 629.0242028446366 52.77303017127848 L 629.2136857353918 52.83850033713999 L 629.4017108967927 52.90482378173691 L 629.5882595264798 52.97199387278003 L 629.7733129697455 53.040003893316246 L 629.9568527213997 53.108847042400164 L 630.1388604276204 53.17851643577425 L 630.3193178877885 53.24900510655722 L 630.4982070563084 53.32030600594074 L 630.6755100444121 53.39241200389429 L 630.851209121949 53.465315889878156 L 631.0252867191573 53.5390103735645 L 631.1977254284226 53.61348808556637 L 631.3685080060176 53.68874157817461 L 631.5376173738268 53.76476332610268 L 631.7050366210544 53.84154572723915 L 631.8707490059153 53.91908110340788 L 632.034737957309 53.99736170113587 L 632.196987076477 54.07637969242858 L 632.3574801386426 54.156127175552726 L 632.5162010946334 54.236596175826456 L 632.6731340724859 54.3177786464168 L 632.8282633790333 54.39966646914434 L 632.9815735014741 54.48225145529506 L 633.1330491089238 54.56552534643915 L 633.282675053948 54.6494798152569 L 633.4304363740767 54.73410646637139 L 633.5763182933013 54.81939683718802 L 633.7203062235511 54.9053423987408 L 633.8623857661534 54.99193455654518 L 634.0025427132721 55.079164651457546 L 634.1407630493293 55.16702396054111 L 634.2770329524067 55.25550369793815 L 634.4113387956274 55.344595015748695 L 634.5436671485193 55.43428900491518 L 634.6740047783569 55.52457669611344 L 634.8023386514863 55.615449060649595 L 634.9286559346269 55.706897011362926 L 635.0529439961556 55.79891140353456 L 635.17519040737 55.891483035801954 L 635.2953829437307 55.98460265107904 L 635.4135095860844 56.07826093748187 L 635.529558521865 56.17244852925987 L 635.6435181462759 56.26715600773234 L 635.7553770634496 56.36237390223035 L 635.8651240875874 56.45809269104382 L 635.9727482440786 56.55430280237361 L 636.0782387705971 56.65099461528878 L 636.1815851181781 56.74815846068861 L 636.282776952273 56.84578462226952 L 636.3818041537829 56.943863337496715 L 636.4786568200699 57.0423847985804 L 636.5733252659483 57.14133915345658 L 636.6658000246522 57.240716506772216 L 636.756071848783 57.34050692087479 L 636.8441317112333 57.44070041680606 L 636.9299708060904 57.54128697529992 L 637.0135805495164 57.64225653778434 L 637.0949525806063 57.74359900738722 L 637.1740787622252 57.84530424994605 L 637.2509511818207 57.94736209502132 L 637.3255621522148 58.04976233691358 L 637.3979042123729 58.15249473568397 L 637.4679701281491 58.25554901817823 L 637.5357528930101 58.35891487905398 L 637.6012457287361 58.46258198181127 L 637.664442086098 58.566539959826216 L 637.7253356455127 58.67077841738765 L 637.7839203176751 58.77528693073668 L 637.8401902441667 58.88005504910905 L 637.8941397980419 58.985072295780256 L 637.9457635843902 59.09032816911312 L 637.9950564408758 59.19581214360803 L 638.0420134382545 59.301513670955444 L 638.0866298808653 59.4074221810907 L 638.1289013071014 59.513527083251056 L 638.1688234898552 59.619817767034704 L 638.2063924369419 59.72628360346185 L 638.2416043914978 59.832913946037564 L 638.2744558323573 59.939698131816456 L 638.3049434744031 60.046625482468926 L 638.3330642688968 60.153685305349015 L 638.3588154037822 60.26086689456366 L 638.3821943039674 60.36815953204325 L 638.4031986315816 60.47555248861345 L 638.4218262862099 60.5830350250681 L 638.4380754051022 60.69059639324311 L 638.4519443633601 60.79822583709131 L 638.4634317740994 60.905912593758 L 638.4725364885885 61.01364589465726 L 638.4792575963637 61.12141496654876 L 638.4835944253197 61.22920903261514 L 638.4855465417772 61.337017313539604 M 638.4856675318332 95.6752857281 L 638.4844750719295 95.78309627301661 L 638.4808978114635 95.89089603696858 L 638.4749361081582 95.99867424006935 L 638.4665905581788 96.1064201045884 L 638.4558619960736 96.21412285602908 L 638.4427514946898 96.321771724206 L 638.4272603650666 96.42935594432204 L 638.409390156304 96.53686475804484 L 638.3891426554079 96.64428741458265 L 638.3665198871117 96.75161317175929 L 638.3415241136734 96.85883129708851 L 638.3141578346493 96.96593106884711 L 638.2844237866448 97.07290177714718 L 638.2523249430396 97.17973272500701 L 638.2178645136916 97.28641322942086 L 638.1810459446148 97.39293262242717 L 638.1418729176354 97.49928025217542 L 638.1003493500236 97.60544548399125 L 638.0564793941016 97.71141770143996 L 638.0102674368283 97.8171863073881 L 637.961718099361 97.92274072506322 L 637.9108362365929 98.02807039911151 L 637.857626936668 98.13316479665336 L 637.8020955204718 98.23801340833658 L 637.7442475410998 98.34260574938737 L 637.6840887833016 98.4469313606588 L 637.621625262903 98.55097980967666 L 637.5568632262037 98.65474069168278 L 637.4898091493537 98.7582036306754 L 637.4204697377048 98.86135828044685 L 637.3488519251401 98.96419432561812 L 637.2749628733815 99.0667014826704 L 637.1988099712725 99.16886950097337 L 637.1204008340396 99.27068816381038 L 637.0397433025315 99.37214728939998 L 636.9568454424341 99.47323673191414 L 636.8717155434642 99.57394638249288 L 636.7843621185408 99.67426617025505 L 636.6947939029336 99.77418606330548 L 636.6030198533896 99.87369606973812 L 636.5090491472372 99.97278623863527 L 636.4128911814686 100.0714466610626 L 636.3145555718005 100.1696674710601 L 636.2140521517117 100.2674388466286 L 636.1113909714605 100.36475101071201 L 636.0065822970795 100.46159423217506 L 635.8996366093486 100.55795882677627 L 635.7905646027476 100.65383515813649 L 635.6793771843863 100.74921363870249 L 635.5660854729138 100.84408473070569 L 635.4507007974069 100.93843894711594 L 635.3332346962368 101.03226685259024 L 635.2136989159159 101.12555906441622 L 635.0921054099226 101.21830625345046 L 634.9684663375062 101.31049914505132 L 634.8427940624708 101.4021285200065 L 634.7151011519394 101.49318521545483 L 634.5854003750964 101.58366012580265 L 634.4537047019114 101.67354420363434 L 634.3200273018422 101.762828460617 L 634.1843815425173 101.85150396839936 L 634.0467809883994 101.93956185950451 L 633.9072393994295 102.02699332821673 L 633.7657707296502 102.11378963146201 L 633.6223891258104 102.19994208968237 L 633.4771089259513 102.28544208770374 L 633.3299446579714 102.37028107559762 L 633.1809110381753 102.45445056953588 L 633.0300229698004 102.53794215263929 L 632.877295541528 102.6207474758191 L 632.7227440259737 102.70285825861201 L 632.5663838781603 102.78426629000816 L 632.408230733972 102.86496342927225 L 632.2483004085917 102.9449416067576 L 632.0866088949185 103.02419282471311 L 631.9231723619693 103.10270915808303 L 631.7580071532607 103.18048275529944 L 631.5911297851763 103.25750583906745 L 631.4225569453139 103.33377070714286 L 631.2523054908168 103.4092697331024 L 631.0803924466886 103.48399536710642 L 630.9068350040906 103.55794013665377 L 630.7316505186222 103.63109664732913 L 630.5548565085862 103.70345758354237 L 630.3764706532362 103.7750157092602 L 630.1965107910089 103.84576386872968 L 630.0149949177409 103.91569498719377 L 629.8319411848679 103.98480207159896 L 629.6473678976109 104.05307821129438 L 629.4612935131447 104.12051657872294 L 629.2737366387528 104.1871104301041 L 629.0847160299661 104.25285310610823 L 628.8942505886882 104.31773803252251 L 628.7023593613044 104.38175872090837 L 628.5090615367776 104.44490876925032 L 628.3143764447291 104.50718186259614 L 628.1183235535059 104.5685717736884 L 627.9209224682337 104.62907236358716 L 627.7221929288567 104.68867758228383 L 627.5221548081629 104.7473814693062 L 627.320828109798 104.80517815431453 L 627.1182329662639 104.86206185768845 L 626.9143896369061 104.91802689110501 L 626.7093185058878 104.97306765810755 L 626.5030400801511 105.02717865466522 L 626.2955749873668 105.08035446972343 L 626.086943973871 105.13258978574503 L 625.8771679025916 105.18387937924192 L 625.6662677509606 105.23421812129749 L 625.4542646088175 105.28360097807949 L 625.2411796762999 105.33202301134341 L 625.0270342617235 105.37947937892625 L 624.8118497794512 105.4259653352308 L 624.595647747752 105.4714762317002 L 624.3784497866488 105.51600751728267 L 624.1602776157569 105.55955473888682 L 623.9411530521113 105.60211354182675 L 623.7210980079859 105.64367967025764 L 623.5001344887019 105.68424896760128 L 623.2782845904269 105.72381737696173 L 623.0555704979658 105.76238094153106 L 622.8320144825424 105.79993580498493 L 622.607638899572 105.83647821186828 L 622.3824661864256 105.8720045079709 L 622.1565188601872 105.90651114069276 L 621.929819515401 105.93999465939936 L 621.7023908218126 105.97245171576672 L 621.4742555221018 106.00387906411626 L 621.2454364296085 106.03427356173933 L 621.0159564260512 106.0636321692115 L 620.7858384592391 106.09195195069648 L 620.555105540777 106.11923007423972 L 620.3237807437647 106.14546381205162 L 620.0918872004888 106.17065054078024 L 619.8594481001107 106.1947877417737 L 619.6264866863467 106.21787300133201 L 619.3930262551437 106.23990401094846 L 619.1590901523507 106.26087856754044 L 618.9247017713827 106.28079457366978 L 618.6898845508828 106.29965003775246 L 618.4546619723772 106.31744307425777 L 618.2190575579275 106.3341719038969 L 617.9830948677792 106.34983485380084 L 617.7467974980045 106.36443035768762 L 617.5101890781435 106.37795695601905 L 617.2732932688409 106.39041329614655 L 617.0361337594804 106.40179813244647 L 616.7987342658153 106.4121103264447 L 616.5611185275968 106.42134884693041 L 616.3233103062012 106.42951277005928 L 616.0853333822521 106.43660127944577 L 615.8472115532437 106.44261366624485 L 615.6089686311606 106.44754932922287 L 615.3706284400962 106.45140777481762 L 615.1322148138712 106.45418861718778 L 614.8937515936494 106.45589157825142 L 614.6552626255543 106.45651648771386 L 614.4167717582837 106.45606328308465 L 614.1783028407259 106.4545320096839 L 613.9398797195737 106.45192282063768 L 613.7015262369407 106.44823597686269 L 613.4632662279763 106.44347184704026 L 613.2251235184831 106.43763090757939 L 612.9871219225334 106.43071374256917 L 612.7492852400886 106.42272104372033 L 612.5116372546187 106.41365361029608 L 612.2742017307241 106.40351234903224 L 612.0370024117594 106.39229827404645 L 611.800063017459 106.38001250673689 L 611.5634072415647 106.36665627567004 L 611.3270587494569 106.35223091645787 L 611.0910411757878 106.33673787162431 L 610.8553781221183 106.32017869046089 L 610.6200931545571 106.30255502887195 L 610.3852098014052 106.28386864920897 L 610.1507515508018 106.26412142009434 L 609.916741848377 106.2433153162345 L 609.6832040949056 106.22145241822251 L 609.4501616439687 106.19853491232995 L 609.217637799617 106.17456509028831 L 608.9856558140411 106.14954534905984 L 608.7542388852465 106.12347819059778 L 608.523410154733 106.09636622159626 L 608.2931927051815 106.06821215322961 L 608.0636095581449 106.03901880088118 L 607.8346836717466 106.0087890838619 L 607.6064379383846 105.97752602511825 L 607.378895182442 105.94523275093007 L 607.1520781580047 105.91191249059789 L 606.9260095465862 105.87756857611994 L 606.7007119548592 105.84220444185907 L 606.4762079123951 105.8058236241992 L 606.2525198694112 105.76842976119184 L 606.0296701945254 105.73002659219209 L 605.8076811725192 105.69061795748485 L 605.5865750021102 105.65020779790075 L 605.3663737937308 105.60880015442207 L 605.1470995673186 105.56639916777867 L 604.9287742501134 105.52300907803387 L 604.711419674465 105.47863422416049 L 604.49505757565 105.43327904360692 L 604.2797095896976 105.38694807185344 L 604.0653972512274 105.33964594195861 L 603.8521419912943 105.291377384096 L 603.6399651352468 105.24214722508117 L 603.4288879005935 105.19196038788901 L 603.2189313948821 105.1408218911614 L 603.0101166135883 105.08873684870541 L 602.8024644380159 105.03571046898188 L 602.5959956332098 104.98174805458457 L 602.3907308458781 104.92685500170998 L 602.1866906023287 104.87103679961766 L 601.9838953064157 104.81429903008126 L 601.7823652374999 104.7566473668305 L 601.5821205484202 104.69808757498365 L 601.3831812634786 104.63862551047107 L 601.1855672764378 104.57826711944969 L 600.989298348532 104.51701843770829 L 600.7943941064901 104.45488559006402 L 600.6008740405742 104.39187478974986 L 600.4087575026294 104.32799233779335 L 600.2180637041497 104.26324462238642 L 600.0288117143557 104.19763811824667 L 599.8410204582888 104.13117938596986 L 599.6547087149181 104.0638750713738 L 599.4698951152627 103.99573190483389 L 599.2865981405287 103.92675670060999 L 599.1048361202604 103.85695635616503 L 598.9246272305089 103.7863378514753 L 598.7459894920127 103.71490824833242 L 598.5689407683967 103.64267468963719 L 598.3934987643859 103.56964439868527 L 598.2196810240345 103.4958246784449 L 598.0475049289715 103.4212229108266 L 597.8769876966632 103.34584655594495 L 597.7081463786906 103.26970315137261 L 597.5409978590446 103.19280031138662 L 597.3755588524383 103.11514572620688 L 597.2118459026341 103.03674716122718 L 597.0498753807908 102.9576124562387 L 596.8896634838255 102.87774952464599 L 596.7312262327944 102.79716635267567 L 596.5745794712906 102.71587099857777 L 596.4197388638597 102.63387159181995 L 596.2667198944334 102.55117633227457 L 596.1155378647811 102.46779348939864 L 595.9662078929798 102.383731401407 L 595.8187449119023 102.29899847443839 L 595.6731636677238 102.21360318171489 L 595.5294787184473 102.12755406269459 L 595.3877044324481 102.04085972221772 L 595.2478549870367 101.95352882964605 L 595.109944367041 101.86557011799609 L 594.9739863634079 101.77699238306568 L 594.8399945718248 101.68780448255453 L 594.7079823913591 101.59801533517833 L 594.5779630231187 101.50763391977702 L 594.4499494689322 101.41666927441683 L 594.3239545300484 101.32513049548646 L 594.199990805856 101.23302673678755 L 594.0780706926244 101.14036720861921 L 593.9582063822629 101.04716117685703 L 593.840409861103 100.95341796202653 L 593.7246929086986 100.85914693837105 L 593.6110670966483 100.76435753291443 L 593.4995437874389 100.66905922451821 L 593.3901341333083 100.5732615429338 L 593.2828490751306 100.47697406784954 L 593.1776993413223 100.3802064279327 L 593.0746954467693 100.28296829986664 L 592.973847691775 100.18526940738312 L 592.8751661610308 100.08711952028997 L 592.7786607226079 99.98852845349413 L 592.6843410269695 99.8895060660201 L 592.5922165060065 99.79006226002413 L 592.5022963720943 99.69020697980392 L 592.4145896171714 99.5899502108043 L 592.32910501184 99.48930197861863 L 592.2458511044898 99.38827234798623 L 592.1648362204418 99.28687142178599 L 592.086068461117 99.18510934002603 L 592.0095557032257 99.08299627882971 L 591.9353055979799 98.98054244941808 L 591.8633255703284 98.87775809708869 L 591.7936228182136 98.7746535001911 L 591.7262043118532 98.67123896909912 L 591.6610767930412 98.56752484517966 L 591.5982467744752 98.46352149975867 L 591.5377205391051 98.35923933308405 L 591.4795041395035 98.25468877328554 L 591.4236033972624 98.14988027533201 L 591.3700239024089 98.04482431998592 L 591.3187710128481 97.93953141275524 L 591.2698498538263 97.83401208284296 L 591.2232653174184 97.72827688209414 L 591.1790220620395 97.62233638394075 L 591.1371245119781 97.5162011823443 L 591.0975768569543 97.40988189073651 L 591.0603830517007 97.30338914095798 L 591.0255468155668 97.19673358219488 L 590.9930716321471 97.08992587991426 L 590.9629607489331 96.9829767147973 L 590.9352171769879 96.87589678167143 L 590.9098436906455 96.7686967884407 L 590.8868428272335 96.66138745501512 L 590.8662168868191 96.55397951223858 L 590.8479679319789 96.44648370081588 L 590.8320977875935 96.33891077023856 L 590.818608040664 96.23127147771005 L 590.8075000401537 96.1235765870699 L 590.7987748968537 96.01583686771744 L 590.7924334832708 95.90806309353479 L 590.7884764335412 95.80026604180959 L 590.7869041433664 95.69245649215716" stroke-miterlimit="10" stroke-width="2.7769845610000004" stroke-dasharray=""/></g><g><g/><text fill="black" stroke="none" font-family="sans-serif" font-size="11pt" font-style="normal" font-weight="normal" text-decoration="normal" x="583.1362707138333" y="123.98419304699999" text-anchor="start" dominant-baseline="alphabetic" xml:space="preserve">Database</text></g></g><g><path fill="white" stroke="black" paint-order="fill stroke markers" d=" M 118.05889888050001 182.790924927 L 134.3941021805 182.790924927 L 134.3941021805 1401.3970911069996 L 118.05889888050001 1401.3970911069996 L 118.05889888050001 182.790924927" stroke-miterlimit="10" stroke-width="1.3612669416666667" stroke-dasharray=""/><path fill="white" stroke="black" paint-order="fill stroke markers" d=" M 261.95464431383334 228.529494167 L 278.28984761383333 228.529494167 L 278.28984761383333 1401.3970911069996 L 261.95464431383334 1401.3970911069996 L 261.95464431383334 228.529494167" stroke-miterlimit="10" stroke-width="1.3612669416666667" stroke-dasharray=""/><path fill="white" stroke="black" paint-order="fill stroke markers" d=" M 606.4686690638332 274.268063407 L 622.8038723638333 274.268063407 L 622.8038723638333 525.830194227 L 606.4686690638332 525.830194227 L 606.4686690638332 274.268063407" stroke-miterlimit="10" stroke-width="1.3612669416666667" stroke-dasharray=""/><path fill="white" stroke="black" paint-order="fill stroke markers" d=" M 449.5729236305 409.850250797 L 465.9081269305 409.850250797 L 465.9081269305 1401.3970911069996 L 449.5729236305 1401.3970911069996 L 449.5729236305 409.850250797" stroke-miterlimit="10" stroke-width="1.3612669416666667" stroke-dasharray=""/><path fill="white" stroke="black" paint-order="fill stroke markers" d=" M 606.4686690638332 1314.8205136169997 L 622.8038723638333 1314.8205136169997 L 622.8038723638333 1360.5590828569998 L 606.4686690638332 1360.5590828569998 L 606.4686690638332 1314.8205136169997" stroke-miterlimit="10" stroke-width="1.3612669416666667" stroke-dasharray=""/><g><g><rect fill="white" stroke="none" x="62.91296977025" y="161.555160637" width="34.90056099" height="21.23576429"/></g><text fill="black" stroke="none" font-family="sans-serif" font-size="11pt" font-style="normal" font-weight="normal" text-decoration="normal" x="65.36325026525" y="176.25684360699998" text-anchor="start" dominant-baseline="alphabetic" xml:space="preserve">login</text></g><g><path fill="none" stroke="black" paint-order="fill stroke markers" d=" M 42.66760165 182.790924927 L 104.60958149683334 182.790924927" stroke-miterlimit="10" stroke-width="1.3612669416666667" stroke-dasharray=""/><g transform="translate(118.05889888050001,182.790924927) translate(-118.05889888050001,-182.790924927)"><path fill="black" stroke="none" paint-order="stroke fill markers" d=" M 104.44622946383335 175.98459021866665 L 118.05889888050001 182.790924927 L 104.44622946383335 189.59725963533333 Z"/></g></g><g><g><rect fill="white" stroke="none" x="153.72409275216668" y="207.293729877" width="88.90056099" height="21.23576429"/></g><text fill="black" stroke="none" font-family="sans-serif" font-size="11pt" font-style="normal" font-weight="normal" text-decoration="normal" x="156.17437324716667" y="221.99541284699998" text-anchor="start" dominant-baseline="alphabetic" xml:space="preserve">create object</text></g><g><path fill="none" stroke="black" paint-order="fill stroke markers" d=" M 134.3941021805 228.529494167 L 248.5053269301667 228.529494167" stroke-miterlimit="10" stroke-width="1.3612669416666667" stroke-dasharray=""/><g transform="translate(261.95464431383334,228.529494167) translate(-261.95464431383334,-228.529494167)"><path fill="black" stroke="none" paint-order="stroke fill markers" d=" M 248.34197489716666 221.72315945866666 L 261.95464431383334 228.529494167 L 248.34197489716666 235.33582887533333 Z"/></g></g><g><g><rect fill="white" stroke="none" x="391.42897784383325" y="253.032299117" width="101.90056099" height="21.23576429"/></g><text fill="black" stroke="none" font-family="sans-serif" font-size="11pt" font-style="normal" font-weight="normal" text-decoration="normal" x="393.87925833883327" y="267.733982087" text-anchor="start" dominant-baseline="alphabetic" xml:space="preserve">readFromFile()</text></g><g><path fill="none" stroke="black" paint-order="fill stroke markers" d=" M 278.28984761383333 274.268063407 L 593.0193516801666 274.268063407" stroke-miterlimit="10" stroke-width="1.3612669416666667" stroke-dasharray=""/><g transform="translate(606.4686690638332,274.268063407) translate(-606.4686690638332,-274.268063407)"><path fill="black" stroke="none" paint-order="stroke fill markers" d=" M 592.8559996471665 267.46172869866666 L 606.4686690638332 274.268063407 L 592.8559996471665 281.07439811533334 Z"/></g></g><g><g><rect fill="white" stroke="none" x="386.92897784383325" y="298.770868357" width="110.90056099" height="21.23576429"/></g><text fill="black" stroke="none" font-family="sans-serif" font-size="11pt" font-style="normal" font-weight="normal" text-decoration="normal" x="389.37925833883327" y="313.47255132699996" text-anchor="start" dominant-baseline="alphabetic" xml:space="preserve">amount of users</text></g><g><path fill="none" stroke="black" paint-order="fill stroke markers" d=" M 606.4686690638332 320.006632647 L 291.7391649975 320.006632647" stroke-miterlimit="10" stroke-width="1.3612669416666667" stroke-dasharray="6.53408132"/><g transform="translate(278.28984761383333,320.006632647) translate(-278.28984761383333,-320.006632647)"><path fill="black" stroke="none" paint-order="stroke fill markers" d=" M 291.9025170305 313.20029793866667 L 278.28984761383333 320.006632647 L 291.9025170305 326.81296735533334 Z"/></g></g><g><g><rect fill="white" stroke="none" x="312.98110512716664" y="388.614486507" width="101.90056099" height="21.23576429"/></g><text fill="black" stroke="none" font-family="sans-serif" font-size="11pt" font-style="normal" font-weight="normal" text-decoration="normal" x="315.43138562216666" y="403.31616947699996" text-anchor="start" dominant-baseline="alphabetic" xml:space="preserve">readFromFile()</text></g><g><path fill="none" stroke="black" paint-order="fill stroke markers" d=" M 278.28984761383333 409.850250797 L 436.12360624683333 409.850250797" stroke-miterlimit="10" stroke-width="1.3612669416666667" stroke-dasharray=""/><g transform="translate(449.5729236305,409.850250797) translate(-449.5729236305,-409.850250797)"><path fill="black" stroke="none" paint-order="stroke fill markers" d=" M 435.9602542138333 403.04391608866666 L 449.5729236305 409.850250797 L 435.9602542138333 416.65658550533334 Z"/></g></g><g><g><rect fill="white" stroke="none" x="485.2381175021666" y="434.353055747" width="101.90056099" height="21.23576429"/></g><text fill="black" stroke="none" font-family="sans-serif" font-size="11pt" font-style="normal" font-weight="normal" text-decoration="normal" x="487.6883979971666" y="449.05473871699996" text-anchor="start" dominant-baseline="alphabetic" xml:space="preserve">readFromFile()</text></g><g><path fill="none" stroke="black" paint-order="fill stroke markers" d=" M 465.9081269305 455.588820037 L 593.0193516801666 455.588820037" stroke-miterlimit="10" stroke-width="1.3612669416666667" stroke-dasharray=""/><g transform="translate(606.4686690638332,455.588820037) translate(-606.4686690638332,-455.588820037)"><path fill="black" stroke="none" paint-order="stroke fill markers" d=" M 592.8559996471665 448.78248532866667 L 606.4686690638332 455.588820037 L 592.8559996471665 462.39515474533334 Z"/></g></g><g><g><rect fill="white" stroke="none" x="503.2381175021666" y="480.091624987" width="65.90056099" height="21.23576429"/></g><text fill="black" stroke="none" font-family="sans-serif" font-size="11pt" font-style="normal" font-weight="normal" text-decoration="normal" x="505.6883979971666" y="494.79330795699997" text-anchor="start" dominant-baseline="alphabetic" xml:space="preserve">user data</text></g><g><path fill="none" stroke="black" paint-order="fill stroke markers" d=" M 606.4686690638332 501.327389277 L 479.3574443141666 501.327389277" stroke-miterlimit="10" stroke-width="1.3612669416666667" stroke-dasharray="6.53408132"/><g transform="translate(465.9081269305,501.327389277) translate(-465.9081269305,-501.327389277)"><path fill="black" stroke="none" paint-order="stroke fill markers" d=" M 479.52079634716665 494.52105456866667 L 465.9081269305 501.327389277 L 479.52079634716665 508.13372398533335 Z"/></g></g><g><g><rect fill="white" stroke="none" x="172.22409275216668" y="594.438048087" width="51.90056099" height="21.23576429"/></g><text fill="black" stroke="none" font-family="sans-serif" font-size="11pt" font-style="normal" font-weight="normal" text-decoration="normal" x="174.67437324716667" y="609.139731057" text-anchor="start" dominant-baseline="alphabetic" xml:space="preserve">menu()</text></g><g><path fill="none" stroke="black" paint-order="fill stroke markers" d=" M 134.3941021805 615.673812377 L 248.5053269301667 615.673812377" stroke-miterlimit="10" stroke-width="1.3612669416666667" stroke-dasharray=""/><g transform="translate(261.95464431383334,615.673812377) translate(-261.95464431383334,-615.673812377)"><path fill="black" stroke="none" paint-order="stroke fill markers" d=" M 248.34197489716666 608.8674776686667 L 261.95464431383334 615.673812377 L 248.34197489716666 622.4801470853333 Z"/></g></g><g><g><rect fill="white" stroke="none" x="297.6198381855" y="708.784471187" width="44.90056099" height="21.23576429"/></g><text fill="black" stroke="none" font-family="sans-serif" font-size="11pt" font-style="normal" font-weight="normal" text-decoration="normal" x="300.0701186805" y="723.486154157" text-anchor="start" dominant-baseline="alphabetic" xml:space="preserve">login()</text></g><g><path fill="none" stroke="black" paint-order="fill stroke markers" d=" M 278.28984761383333 730.020235477 L 343.63066081383334 730.020235477 L 343.63066081383334 751.255999767 L 291.7391649975 751.255999767" stroke-miterlimit="10" stroke-width="1.3612669416666667" stroke-dasharray=""/><g transform="translate(278.28984761383333,751.255999767) translate(-278.28984761383333,-751.255999767)"><path fill="black" stroke="none" paint-order="stroke fill markers" d=" M 291.9025170305 744.4496650586667 L 278.28984761383333 751.255999767 L 291.9025170305 758.0623344753334 Z"/></g></g><g><g><rect fill="white" stroke="none" x="297.6198381855" y="775.758804717" width="129.90056099" height="21.23576429"/></g><text fill="black" stroke="none" font-family="sans-serif" font-size="11pt" font-style="normal" font-weight="normal" text-decoration="normal" x="300.0701186805" y="790.460487687" text-anchor="start" dominant-baseline="alphabetic" xml:space="preserve">checkUserDetails()</text></g><g><path fill="none" stroke="black" paint-order="fill stroke markers" d=" M 278.28984761383333 796.994569007 L 343.63066081383334 796.994569007 L 343.63066081383334 818.230333297 L 291.7391649975 818.230333297" stroke-miterlimit="10" stroke-width="1.3612669416666667" stroke-dasharray=""/><g transform="translate(278.28984761383333,818.230333297) translate(-278.28984761383333,-818.230333297)"><path fill="black" stroke="none" paint-order="stroke fill markers" d=" M 291.9025170305 811.4239985886667 L 278.28984761383333 818.230333297 L 291.9025170305 825.0366680053334 Z"/></g></g><g><g><rect fill="white" stroke="none" x="177.22409275216668" y="842.7331382469999" width="41.90056099" height="21.23576429"/></g><text fill="black" stroke="none" font-family="sans-serif" font-size="11pt" font-style="normal" font-weight="normal" text-decoration="normal" x="179.67437324716667" y="857.4348212169999" text-anchor="start" dominant-baseline="alphabetic" xml:space="preserve">menu</text></g><g><path fill="none" stroke="black" paint-order="fill stroke markers" d=" M 261.95464431383334 863.968902537 L 147.84341956416665 863.968902537" stroke-miterlimit="10" stroke-width="1.3612669416666667" stroke-dasharray=""/><g transform="translate(134.3941021805,863.968902537) translate(-134.3941021805,-863.968902537)"><path fill="black" stroke="none" paint-order="stroke fill markers" d=" M 148.00677159716668 857.1625678286666 L 134.3941021805 863.968902537 L 148.00677159716668 870.7752372453333 Z"/></g></g><g><g><rect fill="white" stroke="none" x="297.6198381855" y="932.5767563969998" width="44.90056099" height="21.23576429"/></g><text fill="black" stroke="none" font-family="sans-serif" font-size="11pt" font-style="normal" font-weight="normal" text-decoration="normal" x="300.0701186805" y="947.2784393669998" text-anchor="start" dominant-baseline="alphabetic" xml:space="preserve">login()</text></g><g><path fill="none" stroke="black" paint-order="fill stroke markers" d=" M 278.28984761383333 953.8125206869998 L 343.63066081383334 953.8125206869998 L 343.63066081383334 975.0482849769999 L 291.7391649975 975.0482849769999" stroke-miterlimit="10" stroke-width="1.3612669416666667" stroke-dasharray=""/><g transform="translate(278.28984761383333,975.0482849769999) translate(-278.28984761383333,-975.0482849769999)"><path fill="black" stroke="none" paint-order="stroke fill markers" d=" M 291.9025170305 968.2419502686665 L 278.28984761383333 975.0482849769999 L 291.9025170305 981.8546196853332 Z"/></g></g><g><g><rect fill="white" stroke="none" x="297.6198381855" y="999.5510899269998" width="129.90056099" height="21.23576429"/></g><text fill="black" stroke="none" font-family="sans-serif" font-size="11pt" font-style="normal" font-weight="normal" text-decoration="normal" x="300.0701186805" y="1014.2527728969998" text-anchor="start" dominant-baseline="alphabetic" xml:space="preserve">checkUserDetails()</text></g><g><path fill="none" stroke="black" paint-order="fill stroke markers" d=" M 278.28984761383333 1020.7868542169998 L 343.63066081383334 1020.7868542169998 L 343.63066081383334 1042.0226185069998 L 291.7391649975 1042.0226185069998" stroke-miterlimit="10" stroke-width="1.3612669416666667" stroke-dasharray=""/><g transform="translate(278.28984761383333,1042.0226185069998) translate(-278.28984761383333,-1042.0226185069998)"><path fill="black" stroke="none" paint-order="stroke fill markers" d=" M 291.9025170305 1035.2162837986666 L 278.28984761383333 1042.0226185069998 L 291.9025170305 1048.828953215333 Z"/></g></g><g><g><rect fill="white" stroke="none" x="297.6198381855" y="1066.5254234569998" width="51.90056099" height="21.23576429"/></g><text fill="black" stroke="none" font-family="sans-serif" font-size="11pt" font-style="normal" font-weight="normal" text-decoration="normal" x="300.0701186805" y="1081.2271064269999" text-anchor="start" dominant-baseline="alphabetic" xml:space="preserve">menu()</text></g><g><path fill="none" stroke="black" paint-order="fill stroke markers" d=" M 278.28984761383333 1087.761187747 L 343.63066081383334 1087.761187747 L 343.63066081383334 1108.9969520369998 L 291.7391649975 1108.9969520369998" stroke-miterlimit="10" stroke-width="1.3612669416666667" stroke-dasharray=""/><g transform="translate(278.28984761383333,1108.9969520369998) translate(-278.28984761383333,-1108.9969520369998)"><path fill="black" stroke="none" paint-order="stroke fill markers" d=" M 291.9025170305 1102.1906173286666 L 278.28984761383333 1108.9969520369998 L 291.9025170305 1115.803286745333 Z"/></g></g><g><g><rect fill="white" stroke="none" x="153.72409275216668" y="1202.1076108469997" width="51.90056099" height="21.23576429"/></g><text fill="black" stroke="none" font-family="sans-serif" font-size="11pt" font-style="normal" font-weight="normal" text-decoration="normal" x="156.17437324716667" y="1216.8092938169998" text-anchor="start" dominant-baseline="alphabetic" xml:space="preserve">menu()</text></g><g><path fill="none" stroke="black" paint-order="fill stroke markers" d=" M 134.3941021805 1223.3433751369998 L 199.7349153805 1223.3433751369998 L 199.7349153805 1244.5791394269997 L 147.84341956416665 1244.5791394269997" stroke-miterlimit="10" stroke-width="1.3612669416666667" stroke-dasharray=""/><g transform="translate(134.3941021805,1244.5791394269997) translate(-134.3941021805,-1244.5791394269997)"><path fill="black" stroke="none" paint-order="stroke fill markers" d=" M 148.00677159716668 1237.7728047186665 L 134.3941021805 1244.5791394269997 L 148.00677159716668 1251.385474135333 Z"/></g></g><g><g><rect fill="white" stroke="none" x="400.42897784383325" y="1293.5847493269998" width="83.90056099" height="21.23576429"/></g><text fill="black" stroke="none" font-family="sans-serif" font-size="11pt" font-style="normal" font-weight="normal" text-decoration="normal" x="402.87925833883327" y="1308.286432297" text-anchor="start" dominant-baseline="alphabetic" xml:space="preserve">writeToFile()</text></g><g><path fill="none" stroke="black" paint-order="fill stroke markers" d=" M 278.28984761383333 1314.8205136169997 L 593.0193516801666 1314.8205136169997" stroke-miterlimit="10" stroke-width="1.3612669416666667" stroke-dasharray=""/><g transform="translate(606.4686690638332,1314.8205136169997) translate(-606.4686690638332,-1314.8205136169997)"><path fill="black" stroke="none" paint-order="stroke fill markers" d=" M 592.8559996471665 1308.0141789086665 L 606.4686690638332 1314.8205136169997 L 592.8559996471665 1321.626848325333 Z"/></g></g><g><g><rect fill="white" stroke="none" x="494.2381175021666" y="1339.323318567" width="83.90056099" height="21.23576429"/></g><text fill="black" stroke="none" font-family="sans-serif" font-size="11pt" font-style="normal" font-weight="normal" text-decoration="normal" x="496.6883979971666" y="1354.025001537" text-anchor="start" dominant-baseline="alphabetic" xml:space="preserve">writeToFile()</text></g><g><path fill="none" stroke="black" paint-order="fill stroke markers" d=" M 465.9081269305 1360.5590828569998 L 593.0193516801666 1360.5590828569998" stroke-miterlimit="10" stroke-width="1.3612669416666667" stroke-dasharray=""/><g transform="translate(606.4686690638332,1360.5590828569998) translate(-606.4686690638332,-1360.5590828569998)"><path fill="black" stroke="none" paint-order="stroke fill markers" d=" M 592.8559996471665 1353.7527481486666 L 606.4686690638332 1360.5590828569998 L 592.8559996471665 1367.365417565333 Z"/></g></g><g><g/><path fill="none" stroke="black" paint-order="fill stroke markers" d=" M 212.94903441383335 344.509437597 L 671.8094822638333 344.509437597 L 671.8094822638333 525.830194227 L 212.94903441383335 525.830194227 L 212.94903441383335 344.509437597 Z" stroke-miterlimit="10" stroke-width="2.3336004714285714" stroke-dasharray=""/><path fill="white" stroke="black" paint-order="fill stroke markers" d=" M 212.94903441383335 344.509437597 L 212.94903441383335 364.111681557 L 269.61944101383335 364.111681557 L 279.42056299383336 354.310559577 L 279.42056299383336 344.509437597 L 212.94903441383335 344.509437597" stroke-miterlimit="10" stroke-width="2.3336004714285714" stroke-dasharray=""/><text fill="black" stroke="none" font-family="sans-serif" font-size="8.8pt" font-style="normal" font-weight="bold" text-decoration="normal" x="229.28423771383333" y="357.577600237" text-anchor="start" dominant-baseline="alphabetic" xml:space="preserve">loop</text><text fill="black" stroke="none" font-family="sans-serif" font-size="8.8pt" font-style="normal" font-weight="bold" text-decoration="normal" x="295.75576629383335" y="357.577600237" text-anchor="start" dominant-baseline="alphabetic" xml:space="preserve">[all users]</text></g><g><g/><path fill="none" stroke="black" paint-order="fill stroke markers" d=" M 69.05328898050001 550.332999177 L 319.12785586383336 550.332999177 L 319.12785586383336 640.176617327 L 69.05328898050001 640.176617327 L 69.05328898050001 550.332999177 Z" stroke-miterlimit="10" stroke-width="2.3336004714285714" stroke-dasharray=""/><path fill="white" stroke="black" paint-order="fill stroke markers" d=" M 69.05328898050001 550.332999177 L 69.05328898050001 569.935243137 L 125.72369558050002 569.935243137 L 135.52481756050003 560.134121157 L 135.52481756050003 550.332999177 L 69.05328898050001 550.332999177" stroke-miterlimit="10" stroke-width="2.3336004714285714" stroke-dasharray=""/><text fill="black" stroke="none" font-family="sans-serif" font-size="8.8pt" font-style="normal" font-weight="bold" text-decoration="normal" x="85.38849228050002" y="563.401161817" text-anchor="start" dominant-baseline="alphabetic" xml:space="preserve">loop</text><text fill="black" stroke="none" font-family="sans-serif" font-size="8.8pt" font-style="normal" font-weight="bold" text-decoration="normal" x="151.86002086050001" y="563.401161817" text-anchor="start" dominant-baseline="alphabetic" xml:space="preserve">[until user choice]</text></g><g><g/><path fill="none" stroke="black" paint-order="fill stroke markers" d=" M 60.88568733050001 664.6794222770001 L 433.2377203305 664.6794222770001 L 433.2377203305 1133.4997569869997 L 60.88568733050001 1133.4997569869997 L 60.88568733050001 664.6794222770001 Z" stroke-miterlimit="10" stroke-width="2.3336004714285714" stroke-dasharray=""/><path fill="white" stroke="black" paint-order="fill stroke markers" d=" M 60.88568733050001 664.6794222770001 L 60.88568733050001 684.2816662370001 L 107.55609393050001 684.2816662370001 L 117.35721591050002 674.480544257 L 117.35721591050002 664.6794222770001 L 60.88568733050001 664.6794222770001" stroke-miterlimit="10" stroke-width="2.3336004714285714" stroke-dasharray=""/><text fill="black" stroke="none" font-family="sans-serif" font-size="8.8pt" font-style="normal" font-weight="bold" text-decoration="normal" x="77.22089063050001" y="677.747584917" text-anchor="start" dominant-baseline="alphabetic" xml:space="preserve">alt</text><text fill="black" stroke="none" font-family="sans-serif" font-size="8.8pt" font-style="normal" font-weight="bold" text-decoration="normal" x="133.69241921050002" y="677.747584917" text-anchor="start" dominant-baseline="alphabetic" xml:space="preserve">[login succsess]</text><g><path fill="none" stroke="black" paint-order="fill stroke markers" d=" M 60.88568733050001 888.4717074869999 L 433.2377203305 888.4717074869999" stroke-miterlimit="10" stroke-width="2.3336004714285714" stroke-dasharray="4.083800825"/></g><g/><text fill="black" stroke="none" font-family="sans-serif" font-size="8.8pt" font-style="normal" font-weight="bold" text-decoration="normal" x="133.69241921050002" y="901.5398701269999" text-anchor="start" dominant-baseline="alphabetic" xml:space="preserve">[login fail]</text></g><g/><g><g/><path fill="none" stroke="black" paint-order="fill stroke markers" d=" M 69.05328898050001 1158.0025619369999 L 211.34197489716666 1158.0025619369999 L 211.34197489716666 1269.0819443769997 L 69.05328898050001 1269.0819443769997 L 69.05328898050001 1158.0025619369999 Z" stroke-miterlimit="10" stroke-width="2.3336004714285714" stroke-dasharray=""/><path fill="white" stroke="black" paint-order="fill stroke markers" d=" M 69.05328898050001 1158.0025619369999 L 69.05328898050001 1177.6048058969998 L 125.72369558050002 1177.6048058969998 L 135.52481756050003 1167.803683917 L 135.52481756050003 1158.0025619369999 L 69.05328898050001 1158.0025619369999" stroke-miterlimit="10" stroke-width="2.3336004714285714" stroke-dasharray=""/><text fill="black" stroke="none" font-family="sans-serif" font-size="8.8pt" font-style="normal" font-weight="bold" text-decoration="normal" x="85.38849228050002" y="1171.0707245769997" text-anchor="start" dominant-baseline="alphabetic" xml:space="preserve">loop</text><text fill="black" stroke="none" font-family="sans-serif" font-size="8.8pt" font-style="normal" font-weight="bold" text-decoration="normal" x="151.86002086050001" y="1171.0707245769997" text-anchor="start" dominant-baseline="alphabetic" xml:space="preserve">[until user choice]</text></g></g><g/><g/><g/><g/><g/></g></svg>