<svg version="1.1" xmlns="http://www.w3.org/2000/svg" xmlns:xlink="http://www.w3.org/1999/xlink" width="937" height="1991"><desc>title%20Tournaments%2C%20Tournament%2C%20Matches%2C%20Match%20Sequence%20Diagram%0A%0Aparticipant%20Main%0A%0Aparticipant%20Tournaments%0Aparticipant%20Tournament%0Aparticipant%20Matches%0Aparticipant%20Match%0A%0Adatabase%20Database%0Aactivate%20Main%0AMain-%3ETournaments%3A%20create%20object%0Aactivate%20Tournaments%0ATournaments-%3EDatabase%3AreadFromFile()%0Aactivate%20Database%0ATournaments%3C--Database%3A%20number%20of%20tournaments%0Aloop%20all%20tournaments%0ATournaments-%3ETournament%3A%20readFromFile()%0Aactivate%20Tournament%0ATournament-%3EDatabase%3AreadFromFile()%0ATournament%3C--Database%3Atournment%20data%0Adeactivate%20Database%0Aend%0A%0ATournament-%3EMatches%3Acreate%20object%0Aactivate%20Matches%0AMatches-%3EDatabase%3AreadFromFile()%0Aactivate%20Database%0AMatches%3C--Database%3Anumber%20of%20matches%0Aloop%20all%20matches%0AMatches-%3EMatch%3AreadFromFile()%0Aactivate%20Match%0AMatch-%3EDatabase%3AreadFromFile()%0AMatch%3C--Database%3Amatch%20data%0Adeactivate%20Database%0Aend%0A%0AMain-%3ETournaments%3A%20menu()%0Aalt%20create%20new%20tournament%0ATournaments-%3ETournament%3Aadd()%0ATournament-%3ETournament%3AreadData()%0ATournament-%3EMatches%3AaddMatch()%0AMatches-%3EMatch%3AreadData()%0Aelse%20select%20tournament%0ATournaments-%3ETournaments%3AselectTournament()%0ATournaments-%3ETournament%3AgetName()%0ATournaments%3C--Tournament%3Aname%0ATournaments-%3ETournament%3AprintData()%0ATournament-%3ETournament%3AprintData()%0ATournament-%3EMatches%3AprintData()%0AMatches-%3EMatch%3AprintData()%0AMatch-%3EMatch%3AprintData()%0ATournaments-%3EDatabase%3AwriteToFile()%0Aactivate%20Database%0ATournament-%3EDatabase%3AwriteToFile()%0AMatches-%3EDatabase%3AwriteToFile()%0AMatch-%3EDatabase%3AwriteToFile()%0A%0Adeactivate%20Match%0Adeactivate%20Matches%0Adeactivate%20Tournament%0Adeactivate%20Tournaments%0Adeactivate%20Database%0Aend%0A%0Aloop%20until%20user%20choice%0AMain-%3EMain%3Amenu()%0Aend%0A</desc><defs/><g><g/><g/><g/><g/><g/><g/><g/><g/><g/><g/><g/><g/><g/><g/><g/><g/><g/><g/><g/><g/><g/><g/><g/><g/><g/><g/><g/><g/><g/><g/><g><rect fill="white" stroke="none" x="0" y="0" width="937" height="1991"/></g><g><text fill="black" stroke="none" font-family="sans-serif" font-size="16.5pt" font-style="normal" font-weight="normal" text-decoration="normal" x="159.8257201796875" y="24.50280495" text-anchor="start" dominant-baseline="alphabetic" xml:space="preserve">Tournaments, Tournament, Matches, Match Sequence Diagram</text></g><g/><g><path fill="none" stroke="black" paint-order="fill stroke markers" d=" M 81.67601649999999 128.884754037 L 81.67601649999999 1991.0979302370001" stroke-miterlimit="10" stroke-width="1.3612669416666667" stroke-dasharray="12.565541,5.445067766666667"/><path fill="none" stroke="black" paint-order="fill stroke markers" d=" M 225.57176193333333 128.884754037 L 225.57176193333333 1991.0979302370001" stroke-miterlimit="10" stroke-width="1.3612669416666667" stroke-dasharray="12.565541,5.445067766666667"/><path fill="none" stroke="black" paint-order="fill stroke markers" d=" M 397.85483795 128.884754037 L 397.85483795 1991.0979302370001" stroke-miterlimit="10" stroke-width="1.3612669416666667" stroke-dasharray="12.565541,5.445067766666667"/><path fill="none" stroke="black" paint-order="fill stroke markers" d=" M 541.7505833833334 128.884754037 L 541.7505833833334 1991.0979302370001" stroke-miterlimit="10" stroke-width="1.3612669416666667" stroke-dasharray="12.565541,5.445067766666667"/><path fill="none" stroke="black" paint-order="fill stroke markers" d=" M 698.6463288166667 128.884754037 L 698.6463288166667 1991.0979302370001" stroke-miterlimit="10" stroke-width="1.3612669416666667" stroke-dasharray="12.565541,5.445067766666667"/><path fill="none" stroke="black" paint-order="fill stroke markers" d=" M 855.54207425 128.884754037 L 855.54207425 1991.0979302370001" stroke-miterlimit="10" stroke-width="1.3612669416666667" stroke-dasharray="12.565541,5.445067766666667"/></g><g><path fill="none" stroke="none"/><g><path fill="white" stroke="black" paint-order="fill stroke markers" d=" M 48.95232091949999 84.779705127 L 114.3997120805 84.779705127 L 114.3997120805 128.884754037 L 48.95232091949999 128.884754037 L 48.95232091949999 84.779705127 Z" stroke-miterlimit="10" stroke-width="2.613632528" stroke-dasharray=""/></g><g><g/><text fill="black" stroke="none" font-family="sans-serif" font-size="11pt" font-style="normal" font-weight="normal" text-decoration="normal" x="66.67601649999999" y="112.549550737" text-anchor="start" dominant-baseline="alphabetic" xml:space="preserve">Main</text></g><path fill="none" stroke="none"/><g><path fill="white" stroke="black" paint-order="fill stroke markers" d=" M 165.3480663528333 84.779705127 L 285.7954575138333 84.779705127 L 285.7954575138333 128.884754037 L 165.3480663528333 128.884754037 L 165.3480663528333 84.779705127 Z" stroke-miterlimit="10" stroke-width="2.613632528" stroke-dasharray=""/></g><g><g/><text fill="black" stroke="none" font-family="sans-serif" font-size="11pt" font-style="normal" font-weight="normal" text-decoration="normal" x="183.07176193333333" y="112.549550737" text-anchor="start" dominant-baseline="alphabetic" xml:space="preserve">Tournaments</text></g><path fill="none" stroke="none"/><g><path fill="white" stroke="black" paint-order="fill stroke markers" d=" M 341.63114236949997 84.779705127 L 454.07853353049995 84.779705127 L 454.07853353049995 128.884754037 L 341.63114236949997 128.884754037 L 341.63114236949997 84.779705127 Z" stroke-miterlimit="10" stroke-width="2.613632528" stroke-dasharray=""/></g><g><g/><text fill="black" stroke="none" font-family="sans-serif" font-size="11pt" font-style="normal" font-weight="normal" text-decoration="normal" x="359.35483795" y="112.549550737" text-anchor="start" dominant-baseline="alphabetic" xml:space="preserve">Tournament</text></g><path fill="none" stroke="none"/><g><path fill="white" stroke="black" paint-order="fill stroke markers" d=" M 496.52688780283336 84.779705127 L 586.9742789638334 84.779705127 L 586.9742789638334 128.884754037 L 496.52688780283336 128.884754037 L 496.52688780283336 84.779705127 Z" stroke-miterlimit="10" stroke-width="2.613632528" stroke-dasharray=""/></g><g><g/><text fill="black" stroke="none" font-family="sans-serif" font-size="11pt" font-style="normal" font-weight="normal" text-decoration="normal" x="514.2505833833334" y="112.549550737" text-anchor="start" dominant-baseline="alphabetic" xml:space="preserve">Matches</text></g><path fill="none" stroke="none"/><g><path fill="white" stroke="black" paint-order="fill stroke markers" d=" M 661.4226332361667 84.779705127 L 735.8700243971667 84.779705127 L 735.8700243971667 128.884754037 L 661.4226332361667 128.884754037 L 661.4226332361667 84.779705127 Z" stroke-miterlimit="10" stroke-width="2.613632528" stroke-dasharray=""/></g><g><g/><text fill="black" stroke="none" font-family="sans-serif" font-size="11pt" font-style="normal" font-weight="normal" text-decoration="normal" x="679.1463288166667" y="112.549550737" text-anchor="start" dominant-baseline="alphabetic" xml:space="preserve">Match</text></g><g><path fill="white" stroke="black" paint-order="fill stroke markers" d=" M 831.6926774320001 96.867755569 L 831.6926774320001 62.563828639 L 879.391471068 62.563828639 L 879.391471068 96.867755569" stroke-miterlimit="10" stroke-width="2.7769845610000004" stroke-dasharray=""/><path fill="white" stroke="black" paint-order="fill stroke markers" d=" M 879.391471068 61.3713587981 L 879.3902786080963 61.47916934301662 L 879.3867013476303 61.58696910696859 L 879.380739644325 61.69474731006935 L 879.3723940943456 61.8024931745884 L 879.3616655322404 61.91019592602908 L 879.3485550308566 62.017844794206 L 879.3330639012333 62.125429014322044 L 879.3151936924708 62.232937828044854 L 879.2949461915747 62.34036048458265 L 879.2723234232785 62.44768624175929 L 879.2473276498401 62.55490436708851 L 879.2199613708161 62.66200413884712 L 879.1902273228116 62.76897484714718 L 879.1581284792064 62.87580579500701 L 879.1236680498583 62.982486299420856 L 879.0868494807816 63.08900569242717 L 879.0476764538022 63.19535332217542 L 879.0061528861904 63.30151855399125 L 878.9622829302684 63.40749077143996 L 878.916070972995 63.5132593773881 L 878.8675216355277 63.618813795063225 L 878.8166397727597 63.724143469111524 L 878.7634304728348 63.82923786665337 L 878.7078990566386 63.93408647833659 L 878.6500510772665 64.03867881938739 L 878.5898923194684 64.1430044306588 L 878.5274287990698 64.24705287967667 L 878.4626667623705 64.35081376168277 L 878.3956126855205 64.45427670067541 L 878.3262732738716 64.55743135044686 L 878.2546554613069 64.66026739561813 L 878.1807664095483 64.7627745526704 L 878.1046135074392 64.86494257097338 L 878.0262043702064 64.96676123381039 L 877.9455468386983 65.06822035939997 L 877.8626489786009 65.16930980191414 L 877.777519079631 65.27001945249287 L 877.6901656547076 65.37033924025505 L 877.6005974391004 65.47025913330548 L 877.5088233895564 65.56976913973813 L 877.414852683404 65.66885930863528 L 877.3186947176354 65.7675197310626 L 877.2203591079673 65.86574054106009 L 877.1198556878785 65.96351191662859 L 877.0171945076273 66.06082408071202 L 876.9123858332463 66.15766730217506 L 876.8054401455154 66.25403189677627 L 876.6963681389144 66.3499082281365 L 876.5851807205531 66.4452867087025 L 876.4718890090805 66.54015780070569 L 876.3565043335736 66.63451201711595 L 876.2390382324036 66.72833992259025 L 876.1195024520827 66.82163213441623 L 875.9979089460894 66.91437932345046 L 875.874269873673 67.00657221505134 L 875.7485975986376 67.0982015900065 L 875.6209046881062 67.18925828545483 L 875.4912039112631 67.27973319580266 L 875.3595082380782 67.36961727363435 L 875.225830838009 67.45890153061701 L 875.090185078684 67.54757703839935 L 874.9525845245662 67.6356349295045 L 874.8130429355963 67.72306639821673 L 874.671574265817 67.80986270146201 L 874.5281926619772 67.89601515968236 L 874.382912462118 67.98151515770375 L 874.2357481941382 68.06635414559763 L 874.0867145743421 68.15052363953589 L 873.9358265059672 68.2340152226393 L 873.7830990776948 68.31682054581911 L 873.6285475621405 68.39893132861202 L 873.4721874143271 68.48033936000816 L 873.3140342701388 68.56103649927225 L 873.1541039447585 68.6410146767576 L 872.9924124310853 68.72026589471311 L 872.828975898136 68.79878222808303 L 872.6638106894275 68.87655582529945 L 872.4969333213431 68.95357890906746 L 872.3283604814807 69.02984377714286 L 872.1581090269835 69.10534280310242 L 871.9861959828554 69.18006843710643 L 871.8126385402574 69.25401320665378 L 871.637454054789 69.32716971732913 L 871.460660044753 69.39953065354239 L 871.282274189403 69.47108877926021 L 871.1023143271757 69.54183693872967 L 870.9207984539077 69.61176805719379 L 870.7377447210347 69.68087514159897 L 870.5531714337777 69.74915128129439 L 870.3670970493115 69.81658964872294 L 870.1795401749196 69.88318350010411 L 869.9905195661329 69.94892617610824 L 869.800054124855 70.01381110252252 L 869.6081628974712 70.07783179090838 L 869.4148650729444 70.14098183925032 L 869.2201799808959 70.20325493259614 L 869.0241270896727 70.26464484368842 L 868.8267260044005 70.32514543358717 L 868.6279964650234 70.38475065228383 L 868.4279583443297 70.44345453930622 L 868.2266316459647 70.50125122431453 L 868.0240365024307 70.55813492768844 L 867.8201931730729 70.61409996110503 L 867.6151220420546 70.66914072810756 L 867.4088436163179 70.72325172466522 L 867.2013785235335 70.77642753972344 L 866.9927475100378 70.82866285574504 L 866.7829714387584 70.87995244924193 L 866.5720712871274 70.9302911912975 L 866.3600681449843 70.9796740480795 L 866.1469832124667 71.0280960813434 L 865.9328377978903 71.07555244892625 L 865.717653315618 71.12203840523081 L 865.5014512839188 71.16754930170019 L 865.2842533228156 71.21208058728268 L 865.0660811519236 71.25562780888683 L 864.8469565882781 71.29818661182675 L 864.6269015441527 71.33975274025764 L 864.4059380248686 71.38032203760127 L 864.1840881265937 71.41989044696174 L 863.9613740341326 71.45845401153106 L 863.7378180187092 71.49600887498494 L 863.5134424357387 71.5325512818683 L 863.2882697225924 71.56807757797091 L 863.062322396354 71.60258421069277 L 862.8356230515678 71.63606772939937 L 862.6081943579794 71.66852478576672 L 862.3800590582686 71.69995213411627 L 862.1512399657753 71.73034663173934 L 861.921759962218 71.7597052392115 L 861.6916419954059 71.78802502069648 L 861.4609090769438 71.81530314423973 L 861.2295842799315 71.84153688205163 L 860.9976907366556 71.86672361078024 L 860.7652516362775 71.8908608117737 L 860.5322902225134 71.913946071332 L 860.2988297913105 71.93597708094846 L 860.0648936885175 71.95695163754044 L 859.8305053075495 71.97686764366978 L 859.5956880870496 71.99572310775245 L 859.3604655085439 72.01351614425778 L 859.1248610940943 72.03024497389691 L 858.888898403946 72.04590792380084 L 858.6526010341713 72.06050342768764 L 858.4159926143103 72.07403002601906 L 858.1790968050077 72.08648636614654 L 857.9419372956472 72.09787120244648 L 857.704537801982 72.1081833964447 L 857.4669220637636 72.11742191693043 L 857.229113842368 72.12558584005929 L 856.9911369184189 72.13267434944576 L 856.7530150894105 72.13868673624485 L 856.5147721673274 72.14362239922286 L 856.276431976263 72.14748084481762 L 856.038018350038 72.1502616871878 L 855.7995551298162 72.15196464825142 L 855.5610661617211 72.15258955771385 L 855.3225752944505 72.15213635308466 L 855.0841063768927 72.15060507968391 L 854.8456832557405 72.14799589063767 L 854.6073297731075 72.1443090468627 L 854.3690697641431 72.13954491704027 L 854.1309270546499 72.1337039775794 L 853.8929254587002 72.12678681256918 L 853.6550887762554 72.11879411372033 L 853.4174407907855 72.10972668029609 L 853.1800052668909 72.09958541903224 L 852.9428059479262 72.08837134404646 L 852.7058665536258 72.07608557673689 L 852.4692107777315 72.06272934567005 L 852.2328622856237 72.04830398645788 L 851.9968447119546 72.0328109416243 L 851.7611816582851 72.01625176046089 L 851.5258966907239 71.99862809887196 L 851.2910133375719 71.97994171920898 L 851.0565550869686 71.96019449009434 L 850.8225453845438 71.9393883862345 L 850.5890076310724 71.91752548822251 L 850.3559651801355 71.89460798232996 L 850.1234413357838 71.87063816028832 L 849.8914593502079 71.84561841905983 L 849.6600424214133 71.81955126059778 L 849.4292136908998 71.79243929159627 L 849.1989962413483 71.7642852232296 L 848.9694130943117 71.73509187088118 L 848.7404872079134 71.7048621538619 L 848.5122414745514 71.67359909511825 L 848.2846987186088 71.64130582093009 L 848.0578816941714 71.6079855605979 L 847.831813082753 71.57364164611994 L 847.606515491026 71.53827751185906 L 847.3820114485619 71.50189669419922 L 847.158323405578 71.46450283119185 L 846.9354737306921 71.42609966219209 L 846.713484708686 71.38669102748484 L 846.492378538277 71.34628086790075 L 846.2721773298975 71.30487322442208 L 846.0529031034854 71.26247223777868 L 845.8345777862802 71.21908214803388 L 845.6172232106318 71.17470729416048 L 845.4008611118168 71.12935211360693 L 845.1855131258644 71.08302114185344 L 844.9712007873942 71.0357190119586 L 844.7579455274611 70.987450454096 L 844.5457686714136 70.93822029508118 L 844.3346914367603 70.88803345788901 L 844.1247349310489 70.8368949611614 L 843.915920149755 70.7848099187054 L 843.7082679741827 70.73178353898187 L 843.5017991693766 70.67782112458457 L 843.2965343820449 70.62292807170999 L 843.0924941384955 70.56710986961765 L 842.8896988425824 70.51037210008127 L 842.6881687736667 70.4527204368305 L 842.487924084587 70.39416064498364 L 842.2889847996454 70.33469858047107 L 842.0913708126046 70.27434018944969 L 841.8951018846988 70.2130915077083 L 841.7001976426569 70.15095866006402 L 841.506677576741 70.08794785974987 L 841.3145610387962 70.02406540779336 L 841.1238672403165 69.95931769238642 L 840.9346152505225 69.89371118824668 L 840.7468239944556 69.82725245596986 L 840.5605122510849 69.7599481413738 L 840.3756986514295 69.69180497483389 L 840.1924016766955 69.62282977060998 L 840.0106396564272 69.55302942616503 L 839.8304307666757 69.4824109214753 L 839.6517930281794 69.41098131833243 L 839.4747443045635 69.3387477596372 L 839.2993023005527 69.26571746868528 L 839.1254845602012 69.19189774844492 L 838.9533084651383 69.1172959808266 L 838.7827912328299 69.04191962594494 L 838.6139499148574 68.96577622137262 L 838.4468013952114 68.88887338138663 L 838.2813623886051 68.81121879620687 L 838.1176494388009 68.73282023122718 L 837.9556789169576 68.6536855262387 L 837.7954670199923 68.573822594646 L 837.6370297689612 68.49323942267567 L 837.4803830074574 68.41194406857777 L 837.3255424000265 68.32994466181995 L 837.1725234306002 68.24724940227456 L 837.0213414009479 68.16386655939866 L 836.8720114291466 68.07980447140702 L 836.7245484480691 67.99507154443839 L 836.5789672038906 67.90967625171488 L 836.4352822546141 67.8236271326946 L 836.2935079686149 67.73693279221771 L 836.1536585232035 67.64960189964606 L 836.0157479032077 67.56164318799608 L 835.8797898995747 67.47306545306569 L 835.7457981079916 67.38387755255452 L 835.6137859275259 67.29408840517834 L 835.4837665592855 67.20370698977703 L 835.355753005099 67.11274234441683 L 835.2297580662151 67.02120356548647 L 835.1057943420228 66.92909980678756 L 834.9838742287911 66.83644027861922 L 834.8640099184297 66.74323424685704 L 834.7462133972698 66.64949103202653 L 834.6304964448653 66.55522000837107 L 834.5168706328151 66.46043060291444 L 834.4053473236057 66.3651322945182 L 834.295937669475 66.2693346129338 L 834.1886526112974 66.17304713784955 L 834.0835028774891 66.07627949793272 L 833.9804989829361 65.97904136986665 L 833.8796512279417 65.88134247738313 L 833.7809696971976 65.78319259028999 L 833.6844642587747 65.68460152349414 L 833.5901445631363 65.58557913602012 L 833.4980200421733 65.48613533002413 L 833.4080999082611 65.38628004980393 L 833.3203931533382 65.2860232808043 L 833.2349085480068 65.18537504861862 L 833.1516546406566 65.08434541798623 L 833.0706397566086 64.982944491786 L 832.9918719972837 64.88118241002603 L 832.9153592393925 64.77906934882972 L 832.8411091341467 64.67661551941809 L 832.7691291064951 64.5738311670887 L 832.6994263543804 64.47072657019112 L 832.63200784802 64.36731203909913 L 832.566880329208 64.26359791517966 L 832.504050310642 64.15959456975868 L 832.4435240752719 64.05531240308405 L 832.3853076756703 63.95076184328555 L 832.3294069334291 63.84595334533201 L 832.2758274385757 63.74089738998592 L 832.2245745490148 63.63560448275524 L 832.175653389993 63.530085152842965 L 832.1290688535852 63.42434995209415 L 832.0848255982063 63.318409453940745 L 832.0429280481449 63.2122742523443 L 832.0033803931211 63.105954960736526 L 831.9661865878675 62.99946221095797 L 831.9313503517336 62.892806652194885 L 831.8988751683139 62.78599894991426 L 831.8687642850999 62.679049784797314 L 831.8410207131546 62.57196985167143 L 831.8156472268123 62.464769858440704 L 831.7926463634003 62.357460525015114 L 831.7720204229859 62.25005258223858 L 831.7537714681457 62.14255677081588 L 831.7379013237603 62.03498384023857 L 831.7244115768308 61.92734454771006 L 831.7133035763205 61.81964965706991 L 831.7045784330205 61.71190993771744 L 831.6982370194376 61.6041361635348 L 831.694279969708 61.49633911180959 L 831.6927076795332 61.38852956215717 L 831.6935203061412 61.28071829544265 L 831.6967177682698 61.172916092702856 L 831.7022997461754 61.06513373406823 L 831.7102656816651 60.957381997684834 L 831.7206147781518 60.84967165863649 L 831.7333460007346 60.74201348786736 L 831.7484580763017 60.6344182511048 L 831.7659494936584 60.526896707782825 L 831.7858185036771 60.41945960996616 L 831.8080631194738 60.31211770127506 L 831.8326811166053 60.204881715810956 L 831.8596700332922 60.097762377083015 L 831.8890271706656 59.99077039693585 L 831.9207495930361 59.88391647447831 L 831.954834128188 59.7772112950136 L 831.9912773676961 59.67066552897075 L 832.0300756672668 59.56428983083758 L 832.0712251471025 59.45809483809524 L 832.1147216922895 59.35209117015452 L 832.1605609532096 59.24628942729389 L 832.2087383459748 59.14070018959944 L 832.259249052886 59.03533401590697 L 832.3120880229146 58.93020144274604 L 832.3672499722078 58.82531298328635 L 832.4247293846164 58.72067912628645 L 832.4845205122472 58.61631033504484 L 832.546617376037 58.51221704635366 L 832.6110137663516 58.40840966945505 L 832.6777032436054 58.30489858500019 L 832.7466791389062 58.20169414401126 L 832.817934554722 58.098806666846365 L 832.8914623655706 57.996246442167475 L 832.9672552187322 57.894023725911595 L 833.0453055349847 57.79214874026516 L 833.1256055093614 57.69063167264185 L 833.2081471119318 57.58948267466382 L 833.2929220886045 57.488711861146584 L 833.3799219619525 57.38832930908751 L 833.4691380320609 57.28834505665816 L 833.560561377397 57.18876910220045 L 833.6541828557025 57.08961140322686 L 833.7499931049075 56.99088187542464 L 833.8479825440671 56.8925903916643 L 833.948141374319 56.794746781012314 L 834.0504595798635 56.6973608277482 L 834.1549269289653 56.60044227038614 L 834.2615329749768 56.5040008007011 L 834.3702670573821 56.40804606275968 L 834.4811183028634 56.31258765195572 L 834.5940756263888 56.217635114050736 L 834.7091277323199 56.12319794421941 L 834.826263115542 56.029285586100016 L 834.9454700626144 55.93590743085011 L 835.0667366529418 55.8430728162074 L 835.1900507599662 55.75079102555599 L 835.3154000523797 55.65907128699804 L 835.4427719953574 55.56792277243099 L 835.5721538518112 55.47735459663031 L 835.7035326836633 55.387375816338135 L 835.8368953531399 55.29799542935749 L 835.9722285240853 55.20922237365261 L 836.1095186632951 55.12106552645507 L 836.2487520418699 55.033533703376136 L 836.3899147365878 54.94663565752517 L 836.5329926312969 54.86038007863435 L 836.677971418327 54.77477559218967 L 836.8248365999203 54.689830758568455 L 836.973573489681 54.60555407218327 L 837.124167214044 54.52195396063252 L 837.2766027137624 54.439038783857704 L 837.4308647454131 54.35681683330739 L 837.5869378829218 54.27529633110813 L 837.7448065191046 54.19448542924221 L 837.9044548672296 54.114392208732454 L 838.0658669625947 54.03502467883419 L 838.2290266641252 53.95639077623426 L 838.3939176559867 53.878498364257396 L 838.5605234492176 53.801355232079885 L 838.7288273833774 53.72496909395066 L 838.8988126282127 53.649347588419886 L 839.070462185341 53.57449827757509 L 839.2437588899494 53.50042864628498 L 839.4186854125119 53.42714610145097 L 839.5952242605221 53.35465797126647 L 839.7733577802421 53.28297150448409 L 839.9530681584687 53.21209386969077 L 840.1343374243136 53.14203215459092 L 840.3171474510012 53.072793365297684 L 840.5014799576815 53.00438442563227 L 840.6873165112572 52.93681217643165 L 840.8746385282278 52.870083374864436 L 841.0634272765477 52.80420469375517 L 841.2536638774995 52.739182720917064 L 841.4453293075817 52.67502395849323 L 841.6384044004108 52.611734822306424 L 841.8328698486384 52.54932164121754 L 842.028706205882 52.48779065649267 L 842.2258938886688 52.427148021179015 L 842.4244131783951 52.36739979948956 L 842.6242442232971 52.3085519661967 L 842.8253670404368 52.25061040603471 L 843.0277615177005 52.19358091311133 L 843.2314074158088 52.13746919032833 L 843.4362843703416 52.08228084881122 L 843.6423718937742 52.02802140734818 L 843.8496493775261 51.974696291838114 L 844.0580960940216 51.922310834748146 L 844.2676911987628 51.87087027458034 L 844.4784137324137 51.82037975534783 L 844.6902426228968 51.770844326060484 L 844.9031566874994 51.72226894021993 L 845.1171346349926 51.674658455324284 L 845.3321550677598 51.62801763238236 L 845.548196483937 51.58235113543759 L 845.7652372795625 51.5376635311016 L 845.9832557507378 51.49395928809759 L 846.2022300957974 51.451242776813444 L 846.4221384174891 51.409518268864694 L 846.6429587251644 51.368789936667355 L 846.864668936976 51.32906185302072 L 847.0872468820879 51.29033799070003 L 847.3106703028909 51.252622222059266 L 847.5349168572291 51.21591831864385 L 847.759964120634 51.18022995081354 L 847.9857895885667 51.14556068737539 L 848.2123706786688 51.11191399522683 L 848.4396847330199 51.079293239009054 L 848.667709020404 51.047701680770494 L 848.8964207385825 51.01714247964064 L 849.1257970165741 50.98761869151416 L 849.3558149169422 50.95913326874524 L 849.5864514380884 50.93168905985244 L 849.8176835165527 50.90528880923376 L 850.0494880293201 50.87993515689227 L 850.2818417961324 50.85563063817208 L 850.5147215818066 50.83237768350481 L 850.7481040985582 50.81017861816654 L 850.98196600833 50.78903566204531 L 851.2162839251258 50.768950929419105 L 851.4510344173493 50.749926428744466 L 851.6861940101469 50.7319640624556 L 851.9217391877553 50.71506562677416 L 852.1576463958529 50.69923281152964 L 852.3938920439157 50.684467199990365 L 852.6304525075755 50.6707702687052 L 852.8673041309833 50.658143387355835 L 853.1044232291739 50.64658781861989 L 853.3417860904353 50.63610471804463 L 853.5793689786791 50.62669513393135 L 853.8171481358144 50.61836000723063 L 854.0550997841237 50.61110017144819 L 854.2932001286405 50.604916352561574 L 854.5314253595286 50.5998091689475 L 854.7697516544637 50.595779131320086 L 855.0081551810147 50.592826642679725 L 855.2466120990275 50.59095199827282 L 855.4850985630094 50.59015538556226 L 855.7235907245124 50.59043688420866 L 855.9620647345192 50.59179646606236 L 856.2004967458276 50.594233995166334 L 856.4388629154352 50.59774922776969 L 856.6771394069234 50.6023418123521 L 856.9153023928419 50.60801128965893 L 857.1533280570904 50.61475709274719 L 857.3911925973009 50.622578547042174 L 857.6288722272176 50.63147487040497 L 857.8663431790757 50.64144517321068 L 858.1035817059776 50.6524884584373 L 858.3405640842685 50.66460362176552 L 858.5772666159081 50.67778945168912 L 858.8136656308404 50.69204462963607 L 859.0497374893611 50.70736773010048 L 859.2854585844807 50.72375722078505 L 859.5208053442864 50.74121146275439 L 859.7557542342983 50.759728710598836 L 859.990281759823 50.77930711260903 L 860.2243644683037 50.79994471096109 L 860.4579789516645 50.821639441912396 L 860.6911018486516 50.844389136007905 L 860.9237098471697 50.86819151829718 L 861.1557796866127 50.893044208561825 L 861.3872881601902 50.91894472155353 L 861.6182121172477 50.94589046724256 L 861.8485284655819 50.973878751076825 L 862.0782141737499 51.00290677425126 L 862.3072462733722 51.03297163398772 L 862.5356018614299 51.064070323825305 L 862.7632581025543 51.09619973392093 L 862.9901922313111 51.129356651360375 L 863.2163815544765 51.16353776047952 L 863.4418034533068 51.198739643195935 L 863.6664353857997 51.23495877935069 L 863.8902548889494 51.27219154706035 L 864.113239580992 51.31043422307917 L 864.3353671636439 51.349682983171405 L 864.5566154243324 51.38993390249377 L 864.7769622384155 51.43118295598788 L 864.9963855713954 51.47342601878273 L 865.2148634811218 51.51665886660727 L 865.4323741199858 51.56087717621274 L 865.6488957371046 51.60607652580503 L 865.8644066804969 51.65225239548683 L 866.0788853992482 51.69940016770967 L 866.2923104456652 51.74751512773561 L 866.5046604774211 51.79659246410874 L 866.7159142596898 51.84662726913632 L 866.926050667269 51.89761453937955 L 867.135048686693 51.949549176153894 L 867.3428874183343 52.00242598603895 L 867.5495460784925 52.0562396813978 L 867.7550040014743 52.11098488090573 L 867.9592406416582 52.16665611008844 L 868.1622355755505 52.22324780186939 L 868.3639685038271 52.28075429712656 L 868.5644192533632 52.339169845258354 L 868.7635677792508 52.398488604758626 L 868.9613941668034 52.458704643800864 L 869.157878633547 52.51981194083135 L 869.3530015311989 52.581804385171296 L 869.5467433476316 52.64467577762793 L 869.739084708825 52.708419831114405 L 869.9300063808034 52.77303017127848 L 870.1194892715586 52.83850033713999 L 870.3075144329595 52.90482378173691 L 870.4940630626465 52.97199387278003 L 870.6791165059122 53.040003893316246 L 870.8626562575665 53.108847042400164 L 871.0446639637872 53.17851643577425 L 871.2251214239553 53.24900510655722 L 871.4040105924752 53.32030600594074 L 871.5813135805789 53.39241200389429 L 871.7570126581157 53.465315889878156 L 871.9310902553241 53.5390103735645 L 872.1035289645894 53.61348808556637 L 872.2743115421844 53.68874157817461 L 872.4434209099936 53.76476332610268 L 872.6108401572212 53.84154572723915 L 872.7765525420821 53.91908110340788 L 872.9405414934757 53.99736170113587 L 873.1027906126437 54.07637969242858 L 873.2632836748094 54.156127175552726 L 873.4220046308002 54.236596175826456 L 873.5789376086527 54.3177786464168 L 873.7340669152001 54.39966646914434 L 873.8873770376409 54.48225145529506 L 874.0388526450906 54.56552534643915 L 874.1884785901148 54.6494798152569 L 874.3362399102435 54.73410646637139 L 874.482121829468 54.81939683718802 L 874.6261097597179 54.9053423987408 L 874.7681893023201 54.99193455654518 L 874.9083462494389 55.079164651457546 L 875.0465665854961 55.16702396054111 L 875.1828364885735 55.25550369793815 L 875.3171423317942 55.344595015748695 L 875.449470684686 55.43428900491518 L 875.5798083145237 55.52457669611344 L 875.708142187653 55.615449060649595 L 875.8344594707937 55.706897011362926 L 875.9587475323224 55.79891140353456 L 876.0809939435368 55.891483035801954 L 876.2011864798975 55.98460265107904 L 876.3193131222512 56.07826093748187 L 876.4353620580318 56.17244852925987 L 876.5493216824427 56.26715600773234 L 876.6611805996164 56.36237390223035 L 876.7709276237542 56.45809269104382 L 876.8785517802454 56.55430280237361 L 876.9840423067639 56.65099461528878 L 877.0873886543449 56.74815846068861 L 877.1885804884398 56.84578462226952 L 877.2876076899497 56.943863337496715 L 877.3844603562367 57.0423847985804 L 877.479128802115 57.14133915345658 L 877.571603560819 57.240716506772216 L 877.6618753849498 57.34050692087479 L 877.7499352474001 57.44070041680606 L 877.8357743422572 57.54128697529992 L 877.9193840856832 57.64225653778434 L 878.0007561167731 57.74359900738722 L 878.079882298392 57.84530424994605 L 878.1567547179875 57.94736209502132 L 878.2313656883816 58.04976233691358 L 878.3037077485396 58.15249473568397 L 878.3737736643159 58.25554901817823 L 878.4415564291769 58.35891487905398 L 878.5070492649029 58.46258198181127 L 878.5702456222648 58.566539959826216 L 878.6311391816795 58.67077841738765 L 878.6897238538419 58.77528693073668 L 878.7459937803335 58.88005504910905 L 878.7999433342087 58.985072295780256 L 878.851567120557 59.09032816911312 L 878.9008599770426 59.19581214360803 L 878.9478169744212 59.301513670955444 L 878.9924334170321 59.4074221810907 L 879.0347048432682 59.513527083251056 L 879.074627026022 59.619817767034704 L 879.1121959731087 59.72628360346185 L 879.1474079276646 59.832913946037564 L 879.180259368524 59.939698131816456 L 879.2107470105699 60.046625482468926 L 879.2388678050636 60.153685305349015 L 879.264618939949 60.26086689456366 L 879.2879978401342 60.36815953204325 L 879.3090021677484 60.47555248861345 L 879.3276298223767 60.5830350250681 L 879.3438789412689 60.69059639324311 L 879.3577478995269 60.79822583709131 L 879.3692353102662 60.905912593758 L 879.3783400247553 61.01364589465726 L 879.3850611325305 61.12141496654876 L 879.3893979614865 61.22920903261514 L 879.391350077944 61.337017313539604 M 879.391471068 95.6752857281 L 879.3902786080963 95.78309627301661 L 879.3867013476303 95.89089603696858 L 879.380739644325 95.99867424006935 L 879.3723940943456 96.1064201045884 L 879.3616655322404 96.21412285602908 L 879.3485550308566 96.321771724206 L 879.3330639012333 96.42935594432204 L 879.3151936924708 96.53686475804484 L 879.2949461915747 96.64428741458265 L 879.2723234232785 96.75161317175929 L 879.2473276498401 96.85883129708851 L 879.2199613708161 96.96593106884711 L 879.1902273228116 97.07290177714718 L 879.1581284792064 97.17973272500701 L 879.1236680498583 97.28641322942086 L 879.0868494807816 97.39293262242717 L 879.0476764538022 97.49928025217542 L 879.0061528861904 97.60544548399125 L 878.9622829302684 97.71141770143996 L 878.916070972995 97.8171863073881 L 878.8675216355277 97.92274072506322 L 878.8166397727597 98.02807039911151 L 878.7634304728348 98.13316479665336 L 878.7078990566386 98.23801340833658 L 878.6500510772665 98.34260574938737 L 878.5898923194684 98.4469313606588 L 878.5274287990698 98.55097980967666 L 878.4626667623705 98.65474069168278 L 878.3956126855205 98.7582036306754 L 878.3262732738716 98.86135828044685 L 878.2546554613069 98.96419432561812 L 878.1807664095483 99.0667014826704 L 878.1046135074392 99.16886950097337 L 878.0262043702064 99.27068816381038 L 877.9455468386983 99.37214728939998 L 877.8626489786009 99.47323673191414 L 877.777519079631 99.57394638249288 L 877.6901656547076 99.67426617025505 L 877.6005974391004 99.77418606330548 L 877.5088233895564 99.87369606973812 L 877.414852683404 99.97278623863527 L 877.3186947176354 100.0714466610626 L 877.2203591079673 100.1696674710601 L 877.1198556878785 100.2674388466286 L 877.0171945076273 100.36475101071201 L 876.9123858332463 100.46159423217506 L 876.8054401455154 100.55795882677627 L 876.6963681389144 100.65383515813649 L 876.5851807205531 100.74921363870249 L 876.4718890090805 100.84408473070569 L 876.3565043335736 100.93843894711594 L 876.2390382324036 101.03226685259024 L 876.1195024520827 101.12555906441622 L 875.9979089460894 101.21830625345046 L 875.874269873673 101.31049914505132 L 875.7485975986376 101.4021285200065 L 875.6209046881062 101.49318521545483 L 875.4912039112631 101.58366012580265 L 875.3595082380782 101.67354420363434 L 875.225830838009 101.762828460617 L 875.090185078684 101.85150396839936 L 874.9525845245662 101.93956185950451 L 874.8130429355963 102.02699332821673 L 874.671574265817 102.11378963146201 L 874.5281926619772 102.19994208968237 L 874.382912462118 102.28544208770374 L 874.2357481941382 102.37028107559762 L 874.0867145743421 102.45445056953588 L 873.9358265059672 102.53794215263929 L 873.7830990776948 102.6207474758191 L 873.6285475621405 102.70285825861201 L 873.4721874143271 102.78426629000816 L 873.3140342701388 102.86496342927225 L 873.1541039447585 102.9449416067576 L 872.9924124310853 103.02419282471311 L 872.828975898136 103.10270915808303 L 872.6638106894275 103.18048275529944 L 872.4969333213431 103.25750583906745 L 872.3283604814807 103.33377070714286 L 872.1581090269835 103.4092697331024 L 871.9861959828554 103.48399536710642 L 871.8126385402574 103.55794013665377 L 871.637454054789 103.63109664732913 L 871.460660044753 103.70345758354237 L 871.282274189403 103.7750157092602 L 871.1023143271757 103.84576386872968 L 870.9207984539077 103.91569498719377 L 870.7377447210347 103.98480207159896 L 870.5531714337777 104.05307821129438 L 870.3670970493115 104.12051657872294 L 870.1795401749196 104.1871104301041 L 869.9905195661329 104.25285310610823 L 869.800054124855 104.31773803252251 L 869.6081628974712 104.38175872090837 L 869.4148650729444 104.44490876925032 L 869.2201799808959 104.50718186259614 L 869.0241270896727 104.5685717736884 L 868.8267260044005 104.62907236358716 L 868.6279964650234 104.68867758228383 L 868.4279583443297 104.7473814693062 L 868.2266316459647 104.80517815431453 L 868.0240365024307 104.86206185768845 L 867.8201931730729 104.91802689110501 L 867.6151220420546 104.97306765810755 L 867.4088436163179 105.02717865466522 L 867.2013785235335 105.08035446972343 L 866.9927475100378 105.13258978574503 L 866.7829714387584 105.18387937924192 L 866.5720712871274 105.23421812129749 L 866.3600681449843 105.28360097807949 L 866.1469832124667 105.33202301134341 L 865.9328377978903 105.37947937892625 L 865.717653315618 105.4259653352308 L 865.5014512839188 105.4714762317002 L 865.2842533228156 105.51600751728267 L 865.0660811519236 105.55955473888682 L 864.8469565882781 105.60211354182675 L 864.6269015441527 105.64367967025764 L 864.4059380248686 105.68424896760128 L 864.1840881265937 105.72381737696173 L 863.9613740341326 105.76238094153106 L 863.7378180187092 105.79993580498493 L 863.5134424357387 105.83647821186828 L 863.2882697225924 105.8720045079709 L 863.062322396354 105.90651114069276 L 862.8356230515678 105.93999465939936 L 862.6081943579794 105.97245171576672 L 862.3800590582686 106.00387906411626 L 862.1512399657753 106.03427356173933 L 861.921759962218 106.0636321692115 L 861.6916419954059 106.09195195069648 L 861.4609090769438 106.11923007423972 L 861.2295842799315 106.14546381205162 L 860.9976907366556 106.17065054078024 L 860.7652516362775 106.1947877417737 L 860.5322902225134 106.21787300133201 L 860.2988297913105 106.23990401094846 L 860.0648936885175 106.26087856754044 L 859.8305053075495 106.28079457366978 L 859.5956880870496 106.29965003775246 L 859.3604655085439 106.31744307425777 L 859.1248610940943 106.3341719038969 L 858.888898403946 106.34983485380084 L 858.6526010341713 106.36443035768762 L 858.4159926143103 106.37795695601905 L 858.1790968050077 106.39041329614655 L 857.9419372956472 106.40179813244647 L 857.704537801982 106.4121103264447 L 857.4669220637636 106.42134884693041 L 857.229113842368 106.42951277005928 L 856.9911369184189 106.43660127944577 L 856.7530150894105 106.44261366624485 L 856.5147721673274 106.44754932922287 L 856.276431976263 106.45140777481762 L 856.038018350038 106.45418861718778 L 855.7995551298162 106.45589157825142 L 855.5610661617211 106.45651648771386 L 855.3225752944505 106.45606328308465 L 855.0841063768927 106.4545320096839 L 854.8456832557405 106.45192282063768 L 854.6073297731075 106.44823597686269 L 854.3690697641431 106.44347184704026 L 854.1309270546499 106.43763090757939 L 853.8929254587002 106.43071374256917 L 853.6550887762554 106.42272104372033 L 853.4174407907855 106.41365361029608 L 853.1800052668909 106.40351234903224 L 852.9428059479262 106.39229827404645 L 852.7058665536258 106.38001250673689 L 852.4692107777315 106.36665627567004 L 852.2328622856237 106.35223091645787 L 851.9968447119546 106.33673787162431 L 851.7611816582851 106.32017869046089 L 851.5258966907239 106.30255502887195 L 851.2910133375719 106.28386864920897 L 851.0565550869686 106.26412142009434 L 850.8225453845438 106.2433153162345 L 850.5890076310724 106.22145241822251 L 850.3559651801355 106.19853491232995 L 850.1234413357838 106.17456509028831 L 849.8914593502079 106.14954534905984 L 849.6600424214133 106.12347819059778 L 849.4292136908998 106.09636622159626 L 849.1989962413483 106.06821215322961 L 848.9694130943117 106.03901880088118 L 848.7404872079134 106.0087890838619 L 848.5122414745514 105.97752602511825 L 848.2846987186088 105.94523275093007 L 848.0578816941714 105.91191249059789 L 847.831813082753 105.87756857611994 L 847.606515491026 105.84220444185907 L 847.3820114485619 105.8058236241992 L 847.158323405578 105.76842976119184 L 846.9354737306921 105.73002659219209 L 846.713484708686 105.69061795748485 L 846.492378538277 105.65020779790075 L 846.2721773298975 105.60880015442207 L 846.0529031034854 105.56639916777867 L 845.8345777862802 105.52300907803387 L 845.6172232106318 105.47863422416049 L 845.4008611118168 105.43327904360692 L 845.1855131258644 105.38694807185344 L 844.9712007873942 105.33964594195861 L 844.7579455274611 105.291377384096 L 844.5457686714136 105.24214722508117 L 844.3346914367603 105.19196038788901 L 844.1247349310489 105.1408218911614 L 843.915920149755 105.08873684870541 L 843.7082679741827 105.03571046898188 L 843.5017991693766 104.98174805458457 L 843.2965343820449 104.92685500170998 L 843.0924941384955 104.87103679961766 L 842.8896988425824 104.81429903008126 L 842.6881687736667 104.7566473668305 L 842.487924084587 104.69808757498365 L 842.2889847996454 104.63862551047107 L 842.0913708126046 104.57826711944969 L 841.8951018846988 104.51701843770829 L 841.7001976426569 104.45488559006402 L 841.506677576741 104.39187478974986 L 841.3145610387962 104.32799233779335 L 841.1238672403165 104.26324462238642 L 840.9346152505225 104.19763811824667 L 840.7468239944556 104.13117938596986 L 840.5605122510849 104.0638750713738 L 840.3756986514295 103.99573190483389 L 840.1924016766955 103.92675670060999 L 840.0106396564272 103.85695635616503 L 839.8304307666757 103.7863378514753 L 839.6517930281794 103.71490824833242 L 839.4747443045635 103.64267468963719 L 839.2993023005527 103.56964439868527 L 839.1254845602012 103.4958246784449 L 838.9533084651383 103.4212229108266 L 838.7827912328299 103.34584655594495 L 838.6139499148574 103.26970315137261 L 838.4468013952114 103.19280031138662 L 838.2813623886051 103.11514572620688 L 838.1176494388009 103.03674716122718 L 837.9556789169576 102.9576124562387 L 837.7954670199923 102.87774952464599 L 837.6370297689612 102.79716635267567 L 837.4803830074574 102.71587099857777 L 837.3255424000265 102.63387159181995 L 837.1725234306002 102.55117633227457 L 837.0213414009479 102.46779348939864 L 836.8720114291466 102.383731401407 L 836.7245484480691 102.29899847443839 L 836.5789672038906 102.21360318171489 L 836.4352822546141 102.12755406269459 L 836.2935079686149 102.04085972221772 L 836.1536585232035 101.95352882964605 L 836.0157479032077 101.86557011799609 L 835.8797898995747 101.77699238306568 L 835.7457981079916 101.68780448255453 L 835.6137859275259 101.59801533517833 L 835.4837665592855 101.50763391977702 L 835.355753005099 101.41666927441683 L 835.2297580662151 101.32513049548646 L 835.1057943420228 101.23302673678755 L 834.9838742287911 101.14036720861921 L 834.8640099184297 101.04716117685703 L 834.7462133972698 100.95341796202653 L 834.6304964448653 100.85914693837105 L 834.5168706328151 100.76435753291443 L 834.4053473236057 100.66905922451821 L 834.295937669475 100.5732615429338 L 834.1886526112974 100.47697406784954 L 834.0835028774891 100.3802064279327 L 833.9804989829361 100.28296829986664 L 833.8796512279417 100.18526940738312 L 833.7809696971976 100.08711952028997 L 833.6844642587747 99.98852845349413 L 833.5901445631363 99.8895060660201 L 833.4980200421733 99.79006226002413 L 833.4080999082611 99.69020697980392 L 833.3203931533382 99.5899502108043 L 833.2349085480068 99.48930197861863 L 833.1516546406566 99.38827234798623 L 833.0706397566086 99.28687142178599 L 832.9918719972837 99.18510934002603 L 832.9153592393925 99.08299627882971 L 832.8411091341467 98.98054244941808 L 832.7691291064951 98.87775809708869 L 832.6994263543804 98.7746535001911 L 832.63200784802 98.67123896909912 L 832.566880329208 98.56752484517966 L 832.504050310642 98.46352149975867 L 832.4435240752719 98.35923933308405 L 832.3853076756703 98.25468877328554 L 832.3294069334291 98.14988027533201 L 832.2758274385757 98.04482431998592 L 832.2245745490148 97.93953141275524 L 832.175653389993 97.83401208284296 L 832.1290688535852 97.72827688209414 L 832.0848255982063 97.62233638394075 L 832.0429280481449 97.5162011823443 L 832.0033803931211 97.40988189073651 L 831.9661865878675 97.30338914095798 L 831.9313503517336 97.19673358219488 L 831.8988751683139 97.08992587991426 L 831.8687642850999 96.9829767147973 L 831.8410207131546 96.87589678167143 L 831.8156472268123 96.7686967884407 L 831.7926463634003 96.66138745501512 L 831.7720204229859 96.55397951223858 L 831.7537714681457 96.44648370081588 L 831.7379013237603 96.33891077023856 L 831.7244115768308 96.23127147771005 L 831.7133035763205 96.1235765870699 L 831.7045784330205 96.01583686771744 L 831.6982370194376 95.90806309353479 L 831.694279969708 95.80026604180959 L 831.6927076795332 95.69245649215716" stroke-miterlimit="10" stroke-width="2.7769845610000004" stroke-dasharray=""/></g><g><g/><text fill="black" stroke="none" font-family="sans-serif" font-size="11pt" font-style="normal" font-weight="normal" text-decoration="normal" x="824.04207425" y="123.98419304699999" text-anchor="start" dominant-baseline="alphabetic" xml:space="preserve">Database</text></g></g><g><path fill="white" stroke="black" paint-order="fill stroke markers" d=" M 73.50841485 137.052355687 L 89.84361814999998 137.052355687 L 89.84361814999998 1974.762726937 L 73.50841485 1974.762726937 L 73.50841485 137.052355687" stroke-miterlimit="10" stroke-width="1.3612669416666667" stroke-dasharray=""/><path fill="white" stroke="black" paint-order="fill stroke markers" d=" M 217.40416028333334 182.790924927 L 233.73936358333333 182.790924927 L 233.73936358333333 1773.8397263470004 L 217.40416028333334 1773.8397263470004 L 217.40416028333334 182.790924927" stroke-miterlimit="10" stroke-width="1.3612669416666667" stroke-dasharray=""/><path fill="white" stroke="black" paint-order="fill stroke markers" d=" M 847.3744726 228.529494167 L 863.7096759000001 228.529494167 L 863.7096759000001 455.588820037 L 847.3744726 455.588820037 L 847.3744726 228.529494167" stroke-miterlimit="10" stroke-width="1.3612669416666667" stroke-dasharray=""/><path fill="white" stroke="black" paint-order="fill stroke markers" d=" M 389.6872363 364.111681557 L 406.0224396 364.111681557 L 406.0224396 1773.8397263470004 L 389.6872363 1773.8397263470004 L 389.6872363 364.111681557" stroke-miterlimit="10" stroke-width="1.3612669416666667" stroke-dasharray=""/><path fill="white" stroke="black" paint-order="fill stroke markers" d=" M 533.5829817333333 525.830194227 L 549.9181850333334 525.830194227 L 549.9181850333334 1773.8397263470004 L 533.5829817333333 1773.8397263470004 L 533.5829817333333 525.830194227" stroke-miterlimit="10" stroke-width="1.3612669416666667" stroke-dasharray=""/><path fill="white" stroke="black" paint-order="fill stroke markers" d=" M 847.3744726 571.5687634669999 L 863.7096759000001 571.5687634669999 L 863.7096759000001 798.6280893369998 L 847.3744726 798.6280893369998 L 847.3744726 571.5687634669999" stroke-miterlimit="10" stroke-width="1.3612669416666667" stroke-dasharray=""/><path fill="white" stroke="black" paint-order="fill stroke markers" d=" M 690.4787271666667 707.1509508569999 L 706.8139304666668 707.1509508569999 L 706.8139304666668 1773.8397263470004 L 690.4787271666667 1773.8397263470004 L 690.4787271666667 707.1509508569999" stroke-miterlimit="10" stroke-width="1.3612669416666667" stroke-dasharray=""/><path fill="white" stroke="black" paint-order="fill stroke markers" d=" M 847.3744726 1636.6240186270002 L 863.7096759000001 1636.6240186270002 L 863.7096759000001 1773.8397263470004 L 847.3744726 1773.8397263470004 L 847.3744726 1636.6240186270002" stroke-miterlimit="10" stroke-width="1.3612669416666667" stroke-dasharray=""/><g><g><rect fill="white" stroke="none" x="109.17360872166667" y="161.555160637" width="88.90056099" height="21.23576429"/></g><text fill="black" stroke="none" font-family="sans-serif" font-size="11pt" font-style="normal" font-weight="normal" text-decoration="normal" x="111.62388921666667" y="176.25684360699998" text-anchor="start" dominant-baseline="alphabetic" xml:space="preserve">create object</text></g><g><path fill="none" stroke="black" paint-order="fill stroke markers" d=" M 89.84361814999998 182.790924927 L 203.9548428996667 182.790924927" stroke-miterlimit="10" stroke-width="1.3612669416666667" stroke-dasharray=""/><g transform="translate(217.40416028333334,182.790924927) translate(-217.40416028333334,-182.790924927)"><path fill="black" stroke="none" paint-order="stroke fill markers" d=" M 203.79149086666666 175.98459021866665 L 217.40416028333334 182.790924927 L 203.79149086666666 189.59725963533333 Z"/></g></g><g><g><rect fill="white" stroke="none" x="489.6066375966666" y="207.293729877" width="101.90056099" height="21.23576429"/></g><text fill="black" stroke="none" font-family="sans-serif" font-size="11pt" font-style="normal" font-weight="normal" text-decoration="normal" x="492.0569180916666" y="221.99541284699998" text-anchor="start" dominant-baseline="alphabetic" xml:space="preserve">readFromFile()</text></g><g><path fill="none" stroke="black" paint-order="fill stroke markers" d=" M 233.73936358333333 228.529494167 L 833.9251552163333 228.529494167" stroke-miterlimit="10" stroke-width="1.3612669416666667" stroke-dasharray=""/><g transform="translate(847.3744726,228.529494167) translate(-847.3744726,-228.529494167)"><path fill="black" stroke="none" paint-order="stroke fill markers" d=" M 833.7618031833333 221.72315945866666 L 847.3744726 228.529494167 L 833.7618031833333 235.33582887533333 Z"/></g></g><g><g><rect fill="white" stroke="none" x="462.1066375966666" y="253.032299117" width="156.90056099" height="21.23576429"/></g><text fill="black" stroke="none" font-family="sans-serif" font-size="11pt" font-style="normal" font-weight="normal" text-decoration="normal" x="464.5569180916666" y="267.733982087" text-anchor="start" dominant-baseline="alphabetic" xml:space="preserve">number of tournaments</text></g><g><path fill="none" stroke="black" paint-order="fill stroke markers" d=" M 847.3744726 274.268063407 L 247.18868096699998 274.268063407" stroke-miterlimit="10" stroke-width="1.3612669416666667" stroke-dasharray="6.53408132"/><g transform="translate(233.73936358333333,274.268063407) translate(-233.73936358333333,-274.268063407)"><path fill="black" stroke="none" paint-order="stroke fill markers" d=" M 247.352033 267.46172869866666 L 233.73936358333333 274.268063407 L 247.352033 281.07439811533334 Z"/></g></g><g><g><rect fill="white" stroke="none" x="260.76301944666665" y="342.875917267" width="101.90056099" height="21.23576429"/></g><text fill="black" stroke="none" font-family="sans-serif" font-size="11pt" font-style="normal" font-weight="normal" text-decoration="normal" x="263.21329994166666" y="357.57760023699996" text-anchor="start" dominant-baseline="alphabetic" xml:space="preserve">readFromFile()</text></g><g><path fill="none" stroke="black" paint-order="fill stroke markers" d=" M 233.73936358333333 364.111681557 L 376.23791891633334 364.111681557" stroke-miterlimit="10" stroke-width="1.3612669416666667" stroke-dasharray=""/><g transform="translate(389.6872363,364.111681557) translate(-389.6872363,-364.111681557)"><path fill="black" stroke="none" paint-order="stroke fill markers" d=" M 376.0745668833333 357.30534684866666 L 389.6872363 364.111681557 L 376.0745668833333 370.91801626533334 Z"/></g></g><g><g><rect fill="white" stroke="none" x="575.7481756049999" y="388.614486507" width="101.90056099" height="21.23576429"/></g><text fill="black" stroke="none" font-family="sans-serif" font-size="11pt" font-style="normal" font-weight="normal" text-decoration="normal" x="578.1984560999999" y="403.31616947699996" text-anchor="start" dominant-baseline="alphabetic" xml:space="preserve">readFromFile()</text></g><g><path fill="none" stroke="black" paint-order="fill stroke markers" d=" M 406.0224396 409.850250797 L 833.9251552163333 409.850250797" stroke-miterlimit="10" stroke-width="1.3612669416666667" stroke-dasharray=""/><g transform="translate(847.3744726,409.850250797) translate(-847.3744726,-409.850250797)"><path fill="black" stroke="none" paint-order="stroke fill markers" d=" M 833.7618031833333 403.04391608866666 L 847.3744726 409.850250797 L 833.7618031833333 416.65658550533334 Z"/></g></g><g><g><rect fill="white" stroke="none" x="575.2481756049999" y="434.353055747" width="102.90056099" height="21.23576429"/></g><text fill="black" stroke="none" font-family="sans-serif" font-size="11pt" font-style="normal" font-weight="normal" text-decoration="normal" x="577.6984560999999" y="449.05473871699996" text-anchor="start" dominant-baseline="alphabetic" xml:space="preserve">tournment data</text></g><g><path fill="none" stroke="black" paint-order="fill stroke markers" d=" M 847.3744726 455.588820037 L 419.47175698366664 455.588820037" stroke-miterlimit="10" stroke-width="1.3612669416666667" stroke-dasharray="6.53408132"/><g transform="translate(406.0224396,455.588820037) translate(-406.0224396,-455.588820037)"><path fill="black" stroke="none" paint-order="stroke fill markers" d=" M 419.63510901666666 448.78248532866667 L 406.0224396 455.588820037 L 419.63510901666666 462.39515474533334 Z"/></g></g><g><g><rect fill="white" stroke="none" x="425.35243017166664" y="504.594429937" width="88.90056099" height="21.23576429"/></g><text fill="black" stroke="none" font-family="sans-serif" font-size="11pt" font-style="normal" font-weight="normal" text-decoration="normal" x="427.80271066666666" y="519.296112907" text-anchor="start" dominant-baseline="alphabetic" xml:space="preserve">create object</text></g><g><path fill="none" stroke="black" paint-order="fill stroke markers" d=" M 406.0224396 525.830194227 L 520.1336643496667 525.830194227" stroke-miterlimit="10" stroke-width="1.3612669416666667" stroke-dasharray=""/><g transform="translate(533.5829817333333,525.830194227) translate(-533.5829817333333,-525.830194227)"><path fill="black" stroke="none" paint-order="stroke fill markers" d=" M 519.9703123166667 519.0238595186667 L 533.5829817333333 525.830194227 L 519.9703123166667 532.6365289353333 Z"/></g></g><g><g><rect fill="white" stroke="none" x="647.6960483216667" y="550.3329991769999" width="101.90056099" height="21.23576429"/></g><text fill="black" stroke="none" font-family="sans-serif" font-size="11pt" font-style="normal" font-weight="normal" text-decoration="normal" x="650.1463288166667" y="565.0346821469999" text-anchor="start" dominant-baseline="alphabetic" xml:space="preserve">readFromFile()</text></g><g><path fill="none" stroke="black" paint-order="fill stroke markers" d=" M 549.9181850333334 571.5687634669999 L 833.9251552163333 571.5687634669999" stroke-miterlimit="10" stroke-width="1.3612669416666667" stroke-dasharray=""/><g transform="translate(847.3744726,571.5687634669999) translate(-847.3744726,-571.5687634669999)"><path fill="black" stroke="none" paint-order="stroke fill markers" d=" M 833.7618031833333 564.7624287586666 L 847.3744726 571.5687634669999 L 833.7618031833333 578.3750981753333 Z"/></g></g><g><g><rect fill="white" stroke="none" x="632.6960483216667" y="596.0715684169999" width="131.90056099" height="21.23576429"/></g><text fill="black" stroke="none" font-family="sans-serif" font-size="11pt" font-style="normal" font-weight="normal" text-decoration="normal" x="635.1463288166667" y="610.7732513869998" text-anchor="start" dominant-baseline="alphabetic" xml:space="preserve">number of matches</text></g><g><path fill="none" stroke="black" paint-order="fill stroke markers" d=" M 847.3744726 617.3073327069999 L 563.3675024170001 617.3073327069999" stroke-miterlimit="10" stroke-width="1.3612669416666667" stroke-dasharray="6.53408132"/><g transform="translate(549.9181850333334,617.3073327069999) translate(-549.9181850333334,-617.3073327069999)"><path fill="black" stroke="none" paint-order="stroke fill markers" d=" M 563.5308544500001 610.5009979986665 L 549.9181850333334 617.3073327069999 L 563.5308544500001 624.1136674153332 Z"/></g></g><g><g><rect fill="white" stroke="none" x="569.248175605" y="685.9151865669999" width="101.90056099" height="21.23576429"/></g><text fill="black" stroke="none" font-family="sans-serif" font-size="11pt" font-style="normal" font-weight="normal" text-decoration="normal" x="571.6984561" y="700.6168695369998" text-anchor="start" dominant-baseline="alphabetic" xml:space="preserve">readFromFile()</text></g><g><path fill="none" stroke="black" paint-order="fill stroke markers" d=" M 549.9181850333334 707.1509508569999 L 677.029409783 707.1509508569999" stroke-miterlimit="10" stroke-width="1.3612669416666667" stroke-dasharray=""/><g transform="translate(690.4787271666667,707.1509508569999) translate(-690.4787271666667,-707.1509508569999)"><path fill="black" stroke="none" paint-order="stroke fill markers" d=" M 676.86605775 700.3446161486665 L 690.4787271666667 707.1509508569999 L 676.86605775 713.9572855653332 Z"/></g></g><g><g><rect fill="white" stroke="none" x="726.1439210383334" y="731.6537558069998" width="101.90056099" height="21.23576429"/></g><text fill="black" stroke="none" font-family="sans-serif" font-size="11pt" font-style="normal" font-weight="normal" text-decoration="normal" x="728.5942015333334" y="746.3554387769998" text-anchor="start" dominant-baseline="alphabetic" xml:space="preserve">readFromFile()</text></g><g><path fill="none" stroke="black" paint-order="fill stroke markers" d=" M 706.8139304666668 752.8895200969998 L 833.9251552163333 752.8895200969998" stroke-miterlimit="10" stroke-width="1.3612669416666667" stroke-dasharray=""/><g transform="translate(847.3744726,752.8895200969998) translate(-847.3744726,-752.8895200969998)"><path fill="black" stroke="none" paint-order="stroke fill markers" d=" M 833.7618031833333 746.0831853886665 L 847.3744726 752.8895200969998 L 833.7618031833333 759.6958548053332 Z"/></g></g><g><g><rect fill="white" stroke="none" x="738.1439210383334" y="777.3923250469998" width="77.90056099" height="21.23576429"/></g><text fill="black" stroke="none" font-family="sans-serif" font-size="11pt" font-style="normal" font-weight="normal" text-decoration="normal" x="740.5942015333334" y="792.0940080169997" text-anchor="start" dominant-baseline="alphabetic" xml:space="preserve">match data</text></g><g><path fill="none" stroke="black" paint-order="fill stroke markers" d=" M 847.3744726 798.6280893369998 L 720.2632478503334 798.6280893369998" stroke-miterlimit="10" stroke-width="1.3612669416666667" stroke-dasharray="6.53408132"/><g transform="translate(706.8139304666668,798.6280893369998) translate(-706.8139304666668,-798.6280893369998)"><path fill="black" stroke="none" paint-order="stroke fill markers" d=" M 720.4265998833334 791.8217546286664 L 706.8139304666668 798.6280893369998 L 720.4265998833334 805.4344240453331 Z"/></g></g><g><g><rect fill="white" stroke="none" x="127.67360872166667" y="847.6336992369997" width="51.90056099" height="21.23576429"/></g><text fill="black" stroke="none" font-family="sans-serif" font-size="11pt" font-style="normal" font-weight="normal" text-decoration="normal" x="130.12388921666667" y="862.3353822069997" text-anchor="start" dominant-baseline="alphabetic" xml:space="preserve">menu()</text></g><g><path fill="none" stroke="black" paint-order="fill stroke markers" d=" M 89.84361814999998 868.8694635269998 L 203.9548428996667 868.8694635269998" stroke-miterlimit="10" stroke-width="1.3612669416666667" stroke-dasharray=""/><g transform="translate(217.40416028333334,868.8694635269998) translate(-217.40416028333334,-868.8694635269998)"><path fill="black" stroke="none" paint-order="stroke fill markers" d=" M 203.79149086666666 862.0631288186664 L 217.40416028333334 868.8694635269998 L 203.79149086666666 875.6757982353331 Z"/></g></g><g><g><rect fill="white" stroke="none" x="292.26301944666665" y="937.4773173869996" width="38.90056099" height="21.23576429"/></g><text fill="black" stroke="none" font-family="sans-serif" font-size="11pt" font-style="normal" font-weight="normal" text-decoration="normal" x="294.71329994166666" y="952.1790003569996" text-anchor="start" dominant-baseline="alphabetic" xml:space="preserve">add()</text></g><g><path fill="none" stroke="black" paint-order="fill stroke markers" d=" M 233.73936358333333 958.7130816769996 L 376.23791891633334 958.7130816769996" stroke-miterlimit="10" stroke-width="1.3612669416666667" stroke-dasharray=""/><g transform="translate(389.6872363,958.7130816769996) translate(-389.6872363,-958.7130816769996)"><path fill="black" stroke="none" paint-order="stroke fill markers" d=" M 376.0745668833333 951.9067469686663 L 389.6872363 958.7130816769996 L 376.0745668833333 965.519416385333 Z"/></g></g><g><g><rect fill="white" stroke="none" x="425.35243017166664" y="983.2158866269997" width="74.90056099" height="21.23576429"/></g><text fill="black" stroke="none" font-family="sans-serif" font-size="11pt" font-style="normal" font-weight="normal" text-decoration="normal" x="427.80271066666666" y="997.9175695969997" text-anchor="start" dominant-baseline="alphabetic" xml:space="preserve">readData()</text></g><g><path fill="none" stroke="black" paint-order="fill stroke markers" d=" M 406.0224396 1004.4516509169997 L 471.3632528 1004.4516509169997 L 471.3632528 1025.6874152069997 L 419.47175698366664 1025.6874152069997" stroke-miterlimit="10" stroke-width="1.3612669416666667" stroke-dasharray=""/><g transform="translate(406.0224396,1025.6874152069997) translate(-406.0224396,-1025.6874152069997)"><path fill="black" stroke="none" paint-order="stroke fill markers" d=" M 419.63510901666666 1018.8810804986664 L 406.0224396 1025.6874152069997 L 419.63510901666666 1032.493749915333 Z"/></g></g><g><g><rect fill="white" stroke="none" x="430.85243017166664" y="1050.1902201569999" width="77.90056099" height="21.23576429"/></g><text fill="black" stroke="none" font-family="sans-serif" font-size="11pt" font-style="normal" font-weight="normal" text-decoration="normal" x="433.30271066666666" y="1064.891903127" text-anchor="start" dominant-baseline="alphabetic" xml:space="preserve">addMatch()</text></g><g><path fill="none" stroke="black" paint-order="fill stroke markers" d=" M 406.0224396 1071.4259844469998 L 520.1336643496667 1071.4259844469998" stroke-miterlimit="10" stroke-width="1.3612669416666667" stroke-dasharray=""/><g transform="translate(533.5829817333333,1071.4259844469998) translate(-533.5829817333333,-1071.4259844469998)"><path fill="black" stroke="none" paint-order="stroke fill markers" d=" M 519.9703123166667 1064.6196497386666 L 533.5829817333333 1071.4259844469998 L 519.9703123166667 1078.232319155333 Z"/></g></g><g><g><rect fill="white" stroke="none" x="582.748175605" y="1095.928789397" width="74.90056099" height="21.23576429"/></g><text fill="black" stroke="none" font-family="sans-serif" font-size="11pt" font-style="normal" font-weight="normal" text-decoration="normal" x="585.1984561" y="1110.630472367" text-anchor="start" dominant-baseline="alphabetic" xml:space="preserve">readData()</text></g><g><path fill="none" stroke="black" paint-order="fill stroke markers" d=" M 549.9181850333334 1117.1645536869999 L 677.029409783 1117.1645536869999" stroke-miterlimit="10" stroke-width="1.3612669416666667" stroke-dasharray=""/><g transform="translate(690.4787271666667,1117.1645536869999) translate(-690.4787271666667,-1117.1645536869999)"><path fill="black" stroke="none" paint-order="stroke fill markers" d=" M 676.86605775 1110.3582189786666 L 690.4787271666667 1117.1645536869999 L 676.86605775 1123.970888395333 Z"/></g></g><g><g><rect fill="white" stroke="none" x="253.069354155" y="1185.7724075469998" width="130.90056099" height="21.23576429"/></g><text fill="black" stroke="none" font-family="sans-serif" font-size="11pt" font-style="normal" font-weight="normal" text-decoration="normal" x="255.51963465" y="1200.474090517" text-anchor="start" dominant-baseline="alphabetic" xml:space="preserve">selectTournament()</text></g><g><path fill="none" stroke="black" paint-order="fill stroke markers" d=" M 233.73936358333333 1207.008171837 L 299.08017678333334 1207.008171837 L 299.08017678333334 1228.2439361269999 L 247.18868096699998 1228.2439361269999" stroke-miterlimit="10" stroke-width="1.3612669416666667" stroke-dasharray=""/><g transform="translate(233.73936358333333,1228.2439361269999) translate(-233.73936358333333,-1228.2439361269999)"><path fill="black" stroke="none" paint-order="stroke fill markers" d=" M 247.352033 1221.4376014186666 L 233.73936358333333 1228.2439361269999 L 247.352033 1235.050270835333 Z"/></g></g><g><g><rect fill="white" stroke="none" x="274.76301944666665" y="1252.746741077" width="73.90056099" height="21.23576429"/></g><text fill="black" stroke="none" font-family="sans-serif" font-size="11pt" font-style="normal" font-weight="normal" text-decoration="normal" x="277.21329994166666" y="1267.4484240470001" text-anchor="start" dominant-baseline="alphabetic" xml:space="preserve">getName()</text></g><g><path fill="none" stroke="black" paint-order="fill stroke markers" d=" M 233.73936358333333 1273.982505367 L 376.23791891633334 1273.982505367" stroke-miterlimit="10" stroke-width="1.3612669416666667" stroke-dasharray=""/><g transform="translate(389.6872363,1273.982505367) translate(-389.6872363,-1273.982505367)"><path fill="black" stroke="none" paint-order="stroke fill markers" d=" M 376.0745668833333 1267.1761706586667 L 389.6872363 1273.982505367 L 376.0745668833333 1280.7888400753332 Z"/></g></g><g><g><rect fill="white" stroke="none" x="290.76301944666665" y="1298.485310317" width="41.90056099" height="21.23576429"/></g><text fill="black" stroke="none" font-family="sans-serif" font-size="11pt" font-style="normal" font-weight="normal" text-decoration="normal" x="293.21329994166666" y="1313.1869932870002" text-anchor="start" dominant-baseline="alphabetic" xml:space="preserve">name</text></g><g><path fill="none" stroke="black" paint-order="fill stroke markers" d=" M 389.6872363 1319.721074607 L 247.18868096699998 1319.721074607" stroke-miterlimit="10" stroke-width="1.3612669416666667" stroke-dasharray="6.53408132"/><g transform="translate(233.73936358333333,1319.721074607) translate(-233.73936358333333,-1319.721074607)"><path fill="black" stroke="none" paint-order="stroke fill markers" d=" M 247.352033 1312.9147398986668 L 233.73936358333333 1319.721074607 L 247.352033 1326.5274093153332 Z"/></g></g><g><g><rect fill="white" stroke="none" x="274.76301944666665" y="1344.2238795570001" width="73.90056099" height="21.23576429"/></g><text fill="black" stroke="none" font-family="sans-serif" font-size="11pt" font-style="normal" font-weight="normal" text-decoration="normal" x="277.21329994166666" y="1358.9255625270002" text-anchor="start" dominant-baseline="alphabetic" xml:space="preserve">printData()</text></g><g><path fill="none" stroke="black" paint-order="fill stroke markers" d=" M 233.73936358333333 1365.459643847 L 376.23791891633334 1365.459643847" stroke-miterlimit="10" stroke-width="1.3612669416666667" stroke-dasharray=""/><g transform="translate(389.6872363,1365.459643847) translate(-389.6872363,-1365.459643847)"><path fill="black" stroke="none" paint-order="stroke fill markers" d=" M 376.0745668833333 1358.6533091386668 L 389.6872363 1365.459643847 L 376.0745668833333 1372.2659785553333 Z"/></g></g><g><g><rect fill="white" stroke="none" x="425.35243017166664" y="1389.962448797" width="73.90056099" height="21.23576429"/></g><text fill="black" stroke="none" font-family="sans-serif" font-size="11pt" font-style="normal" font-weight="normal" text-decoration="normal" x="427.80271066666666" y="1404.664131767" text-anchor="start" dominant-baseline="alphabetic" xml:space="preserve">printData()</text></g><g><path fill="none" stroke="black" paint-order="fill stroke markers" d=" M 406.0224396 1411.198213087 L 471.3632528 1411.198213087 L 471.3632528 1432.433977377 L 419.47175698366664 1432.433977377" stroke-miterlimit="10" stroke-width="1.3612669416666667" stroke-dasharray=""/><g transform="translate(406.0224396,1432.433977377) translate(-406.0224396,-1432.433977377)"><path fill="black" stroke="none" paint-order="stroke fill markers" d=" M 419.63510901666666 1425.6276426686668 L 406.0224396 1432.433977377 L 419.63510901666666 1439.2403120853332 Z"/></g></g><g><g><rect fill="white" stroke="none" x="432.85243017166664" y="1456.9367823270002" width="73.90056099" height="21.23576429"/></g><text fill="black" stroke="none" font-family="sans-serif" font-size="11pt" font-style="normal" font-weight="normal" text-decoration="normal" x="435.30271066666666" y="1471.6384652970003" text-anchor="start" dominant-baseline="alphabetic" xml:space="preserve">printData()</text></g><g><path fill="none" stroke="black" paint-order="fill stroke markers" d=" M 406.0224396 1478.172546617 L 520.1336643496667 1478.172546617" stroke-miterlimit="10" stroke-width="1.3612669416666667" stroke-dasharray=""/><g transform="translate(533.5829817333333,1478.172546617) translate(-533.5829817333333,-1478.172546617)"><path fill="black" stroke="none" paint-order="stroke fill markers" d=" M 519.9703123166667 1471.3662119086669 L 533.5829817333333 1478.172546617 L 519.9703123166667 1484.9788813253333 Z"/></g></g><g><g><rect fill="white" stroke="none" x="583.248175605" y="1502.6753515670002" width="73.90056099" height="21.23576429"/></g><text fill="black" stroke="none" font-family="sans-serif" font-size="11pt" font-style="normal" font-weight="normal" text-decoration="normal" x="585.6984561" y="1517.3770345370003" text-anchor="start" dominant-baseline="alphabetic" xml:space="preserve">printData()</text></g><g><path fill="none" stroke="black" paint-order="fill stroke markers" d=" M 549.9181850333334 1523.9111158570001 L 677.029409783 1523.9111158570001" stroke-miterlimit="10" stroke-width="1.3612669416666667" stroke-dasharray=""/><g transform="translate(690.4787271666667,1523.9111158570001) translate(-690.4787271666667,-1523.9111158570001)"><path fill="black" stroke="none" paint-order="stroke fill markers" d=" M 676.86605775 1517.104781148667 L 690.4787271666667 1523.9111158570001 L 676.86605775 1530.7174505653334 Z"/></g></g><g><g><rect fill="white" stroke="none" x="726.1439210383335" y="1548.413920807" width="73.90056099" height="21.23576429"/></g><text fill="black" stroke="none" font-family="sans-serif" font-size="11pt" font-style="normal" font-weight="normal" text-decoration="normal" x="728.5942015333335" y="1563.1156037770002" text-anchor="start" dominant-baseline="alphabetic" xml:space="preserve">printData()</text></g><g><path fill="none" stroke="black" paint-order="fill stroke markers" d=" M 706.8139304666668 1569.6496850970002 L 772.1547436666667 1569.6496850970002 L 772.1547436666667 1590.885449387 L 720.2632478503334 1590.885449387" stroke-miterlimit="10" stroke-width="1.3612669416666667" stroke-dasharray=""/><g transform="translate(706.8139304666668,1590.885449387) translate(-706.8139304666668,-1590.885449387)"><path fill="black" stroke="none" paint-order="stroke fill markers" d=" M 720.4265998833334 1584.0791146786669 L 706.8139304666668 1590.885449387 L 720.4265998833334 1597.6917840953333 Z"/></g></g><g><g><rect fill="white" stroke="none" x="498.6066375966666" y="1615.3882543370003" width="83.90056099" height="21.23576429"/></g><text fill="black" stroke="none" font-family="sans-serif" font-size="11pt" font-style="normal" font-weight="normal" text-decoration="normal" x="501.0569180916666" y="1630.0899373070004" text-anchor="start" dominant-baseline="alphabetic" xml:space="preserve">writeToFile()</text></g><g><path fill="none" stroke="black" paint-order="fill stroke markers" d=" M 233.73936358333333 1636.6240186270002 L 833.9251552163333 1636.6240186270002" stroke-miterlimit="10" stroke-width="1.3612669416666667" stroke-dasharray=""/><g transform="translate(847.3744726,1636.6240186270002) translate(-847.3744726,-1636.6240186270002)"><path fill="black" stroke="none" paint-order="stroke fill markers" d=" M 833.7618031833333 1629.817683918667 L 847.3744726 1636.6240186270002 L 833.7618031833333 1643.4303533353334 Z"/></g></g><g><g><rect fill="white" stroke="none" x="584.7481756049999" y="1661.1268235770003" width="83.90056099" height="21.23576429"/></g><text fill="black" stroke="none" font-family="sans-serif" font-size="11pt" font-style="normal" font-weight="normal" text-decoration="normal" x="587.1984560999999" y="1675.8285065470004" text-anchor="start" dominant-baseline="alphabetic" xml:space="preserve">writeToFile()</text></g><g><path fill="none" stroke="black" paint-order="fill stroke markers" d=" M 406.0224396 1682.3625878670002 L 833.9251552163333 1682.3625878670002" stroke-miterlimit="10" stroke-width="1.3612669416666667" stroke-dasharray=""/><g transform="translate(847.3744726,1682.3625878670002) translate(-847.3744726,-1682.3625878670002)"><path fill="black" stroke="none" paint-order="stroke fill markers" d=" M 833.7618031833333 1675.556253158667 L 847.3744726 1682.3625878670002 L 833.7618031833333 1689.1689225753335 Z"/></g></g><g><g><rect fill="white" stroke="none" x="656.6960483216667" y="1706.8653928170004" width="83.90056099" height="21.23576429"/></g><text fill="black" stroke="none" font-family="sans-serif" font-size="11pt" font-style="normal" font-weight="normal" text-decoration="normal" x="659.1463288166667" y="1721.5670757870005" text-anchor="start" dominant-baseline="alphabetic" xml:space="preserve">writeToFile()</text></g><g><path fill="none" stroke="black" paint-order="fill stroke markers" d=" M 549.9181850333334 1728.1011571070003 L 833.9251552163333 1728.1011571070003" stroke-miterlimit="10" stroke-width="1.3612669416666667" stroke-dasharray=""/><g transform="translate(847.3744726,1728.1011571070003) translate(-847.3744726,-1728.1011571070003)"><path fill="black" stroke="none" paint-order="stroke fill markers" d=" M 833.7618031833333 1721.294822398667 L 847.3744726 1728.1011571070003 L 833.7618031833333 1734.9074918153335 Z"/></g></g><g><g><rect fill="white" stroke="none" x="735.1439210383334" y="1752.6039620570004" width="83.90056099" height="21.23576429"/></g><text fill="black" stroke="none" font-family="sans-serif" font-size="11pt" font-style="normal" font-weight="normal" text-decoration="normal" x="737.5942015333334" y="1767.3056450270005" text-anchor="start" dominant-baseline="alphabetic" xml:space="preserve">writeToFile()</text></g><g><path fill="none" stroke="black" paint-order="fill stroke markers" d=" M 706.8139304666668 1773.8397263470004 L 833.9251552163333 1773.8397263470004" stroke-miterlimit="10" stroke-width="1.3612669416666667" stroke-dasharray=""/><g transform="translate(847.3744726,1773.8397263470004) translate(-847.3744726,-1773.8397263470004)"><path fill="black" stroke="none" paint-order="stroke fill markers" d=" M 833.7618031833333 1767.0333916386671 L 847.3744726 1773.8397263470004 L 833.7618031833333 1780.6460610553336 Z"/></g></g><g><g><rect fill="white" stroke="none" x="109.17360872166664" y="1866.9503851570003" width="51.90056099" height="21.23576429"/></g><text fill="black" stroke="none" font-family="sans-serif" font-size="11pt" font-style="normal" font-weight="normal" text-decoration="normal" x="111.62388921666664" y="1881.6520681270003" text-anchor="start" dominant-baseline="alphabetic" xml:space="preserve">menu()</text></g><g><path fill="none" stroke="black" paint-order="fill stroke markers" d=" M 89.84361814999998 1888.1861494470004 L 155.18443134999998 1888.1861494470004 L 155.18443134999998 1909.4219137370003 L 103.29293553366665 1909.4219137370003" stroke-miterlimit="10" stroke-width="1.3612669416666667" stroke-dasharray=""/><g transform="translate(89.84361814999998,1909.4219137370003) translate(-89.84361814999998,-1909.4219137370003)"><path fill="black" stroke="none" paint-order="stroke fill markers" d=" M 103.45628756666665 1902.615579028667 L 89.84361814999998 1909.4219137370003 L 103.45628756666665 1916.2282484453335 Z"/></g></g><g><g/><path fill="none" stroke="black" paint-order="fill stroke markers" d=" M 168.39855038333334 298.770868357 L 912.7152858000001 298.770868357 L 912.7152858000001 480.091624987 L 168.39855038333334 480.091624987 L 168.39855038333334 298.770868357 Z" stroke-miterlimit="10" stroke-width="2.3336004714285714" stroke-dasharray=""/><path fill="white" stroke="black" paint-order="fill stroke markers" d=" M 168.39855038333334 298.770868357 L 168.39855038333334 318.373112317 L 225.06895698333335 318.373112317 L 234.87007896333336 308.571990337 L 234.87007896333336 298.770868357 L 168.39855038333334 298.770868357" stroke-miterlimit="10" stroke-width="2.3336004714285714" stroke-dasharray=""/><text fill="black" stroke="none" font-family="sans-serif" font-size="8.8pt" font-style="normal" font-weight="bold" text-decoration="normal" x="184.73375368333333" y="311.839030997" text-anchor="start" dominant-baseline="alphabetic" xml:space="preserve">loop</text><text fill="black" stroke="none" font-family="sans-serif" font-size="8.8pt" font-style="normal" font-weight="bold" text-decoration="normal" x="251.20528226333334" y="311.839030997" text-anchor="start" dominant-baseline="alphabetic" xml:space="preserve">[all tournaments]</text></g><g><g/><path fill="none" stroke="black" paint-order="fill stroke markers" d=" M 484.57737183333336 641.8101376569999 L 912.7152858000001 641.8101376569999 L 912.7152858000001 823.1308942869998 L 484.57737183333336 823.1308942869998 L 484.57737183333336 641.8101376569999 Z" stroke-miterlimit="10" stroke-width="2.3336004714285714" stroke-dasharray=""/><path fill="white" stroke="black" paint-order="fill stroke markers" d=" M 484.57737183333336 641.8101376569999 L 484.57737183333336 661.4123816169999 L 541.2477784333333 661.4123816169999 L 551.0489004133333 651.6112596369999 L 551.0489004133333 641.8101376569999 L 484.57737183333336 641.8101376569999" stroke-miterlimit="10" stroke-width="2.3336004714285714" stroke-dasharray=""/><text fill="black" stroke="none" font-family="sans-serif" font-size="8.8pt" font-style="normal" font-weight="bold" text-decoration="normal" x="500.91257513333335" y="654.8783002969999" text-anchor="start" dominant-baseline="alphabetic" xml:space="preserve">loop</text><text fill="black" stroke="none" font-family="sans-serif" font-size="8.8pt" font-style="normal" font-weight="bold" text-decoration="normal" x="567.3841037133333" y="654.8783002969999" text-anchor="start" dominant-baseline="alphabetic" xml:space="preserve">[all matches]</text></g><g><g/><path fill="none" stroke="black" paint-order="fill stroke markers" d=" M 160.23094873333335 893.3722684769997 L 912.7152858000001 893.3722684769997 L 912.7152858000001 1798.3425312970003 L 160.23094873333335 1798.3425312970003 L 160.23094873333335 893.3722684769997 Z" stroke-miterlimit="10" stroke-width="2.3336004714285714" stroke-dasharray=""/><path fill="white" stroke="black" paint-order="fill stroke markers" d=" M 160.23094873333335 893.3722684769997 L 160.23094873333335 912.9745124369997 L 206.90135533333336 912.9745124369997 L 216.70247731333336 903.1733904569996 L 216.70247731333336 893.3722684769997 L 160.23094873333335 893.3722684769997" stroke-miterlimit="10" stroke-width="2.3336004714285714" stroke-dasharray=""/><text fill="black" stroke="none" font-family="sans-serif" font-size="8.8pt" font-style="normal" font-weight="bold" text-decoration="normal" x="176.56615203333334" y="906.4404311169997" text-anchor="start" dominant-baseline="alphabetic" xml:space="preserve">alt</text><text fill="black" stroke="none" font-family="sans-serif" font-size="8.8pt" font-style="normal" font-weight="bold" text-decoration="normal" x="233.03768061333335" y="906.4404311169997" text-anchor="start" dominant-baseline="alphabetic" xml:space="preserve">[create new tournament]</text><g><path fill="none" stroke="black" paint-order="fill stroke markers" d=" M 160.23094873333335 1141.667358637 L 912.7152858000001 1141.667358637" stroke-miterlimit="10" stroke-width="2.3336004714285714" stroke-dasharray="4.083800825"/></g><g/><text fill="black" stroke="none" font-family="sans-serif" font-size="8.8pt" font-style="normal" font-weight="bold" text-decoration="normal" x="233.03768061333335" y="1154.7355212769999" text-anchor="start" dominant-baseline="alphabetic" xml:space="preserve">[select tournament]</text></g><g/><g><g/><path fill="none" stroke="black" paint-order="fill stroke markers" d=" M 24.50280494999999 1822.8453362470004 L 166.79149086666666 1822.8453362470004 L 166.79149086666666 1933.9247186870002 L 24.50280494999999 1933.9247186870002 L 24.50280494999999 1822.8453362470004 Z" stroke-miterlimit="10" stroke-width="2.3336004714285714" stroke-dasharray=""/><path fill="white" stroke="black" paint-order="fill stroke markers" d=" M 24.50280494999999 1822.8453362470004 L 24.50280494999999 1842.4475802070003 L 81.17321154999999 1842.4475802070003 L 90.97433353 1832.6464582270005 L 90.97433353 1822.8453362470004 L 24.50280494999999 1822.8453362470004" stroke-miterlimit="10" stroke-width="2.3336004714285714" stroke-dasharray=""/><text fill="black" stroke="none" font-family="sans-serif" font-size="8.8pt" font-style="normal" font-weight="bold" text-decoration="normal" x="40.83800824999999" y="1835.9134988870003" text-anchor="start" dominant-baseline="alphabetic" xml:space="preserve">loop</text><text fill="black" stroke="none" font-family="sans-serif" font-size="8.8pt" font-style="normal" font-weight="bold" text-decoration="normal" x="107.30953683" y="1835.9134988870003" text-anchor="start" dominant-baseline="alphabetic" xml:space="preserve">[until user choice]</text></g></g><g/><g/><g/><g/><g/><g/></g></svg>