<svg version="1.1" xmlns="http://www.w3.org/2000/svg" xmlns:xlink="http://www.w3.org/1999/xlink" width="658" height="1081"><desc>title%20Teams%2C%20Team%20Sequence%20Diagram%0Aparticipant%20Main%0Aparticipant%20Teams%0Aparticipant%20Team%0A%0Adatabase%20Database%0A%0Aactivate%20Main%0AMain-%3ETeams%3Acreate%20team%20object%0Aactivate%20Teams%0ATeams-%3EDatabase%3AreadFromFile()%0Aactivate%20Database%0ATeams%3C--Database%3Ateam%20data%0Aloop%20all%20teams%0ATeams-%3ETeam%3AreadFromFile()%0Aactivate%20Team%0ATeam-%3EDatabase%3AreadFromFile()%0ATeam%3C--Database%3Ateam%20data%0Adeactivate%20Database%0Aend%0AMain-%3ETeams%3Amenu()%0Aalt%20add%20team%0ATeams-%3ETeam%3AreadData()%0Aelse%20show%20teams%0ATeams-%3ETeam%3AprintData()%0ATeam-%3ETeam%3AprintData()%0Aend%0ATeams-%3EDatabase%3AwriteToFile()%0Aactivate%20Database%0ATeam-%3EDatabase%3AwriteToFile()%0Adeactivate%20Database%0Adeactivate%20Teams%0Adeactivate%20Team%0A%0A%0Aloop%20until%20user%20choice%0AMain-%3EMain%3Amenu()%0Aend%0A</desc><defs/><g><g/><g/><g/><g/><g/><g/><g/><g/><g/><g/><g/><g/><g/><g><rect fill="white" stroke="none" x="0" y="0" width="658" height="1081"/></g><g><text fill="black" stroke="none" font-family="sans-serif" font-size="16.5pt" font-style="normal" font-weight="normal" text-decoration="normal" x="166.38630335117182" y="24.50280495" text-anchor="start" dominant-baseline="alphabetic" xml:space="preserve">Teams, Team Sequence Diagram</text></g><g/><g><path fill="none" stroke="black" paint-order="fill stroke markers" d=" M 81.67601649999999 128.884754037 L 81.67601649999999 1081.2271064269996" stroke-miterlimit="10" stroke-width="1.3612669416666667" stroke-dasharray="12.565541,5.445067766666667"/><path fill="none" stroke="black" paint-order="fill stroke markers" d=" M 262.5717619333333 128.884754037 L 262.5717619333333 1081.2271064269996" stroke-miterlimit="10" stroke-width="1.3612669416666667" stroke-dasharray="12.565541,5.445067766666667"/><path fill="none" stroke="black" paint-order="fill stroke markers" d=" M 419.4675073666666 128.884754037 L 419.4675073666666 1081.2271064269996" stroke-miterlimit="10" stroke-width="1.3612669416666667" stroke-dasharray="12.565541,5.445067766666667"/><path fill="none" stroke="black" paint-order="fill stroke markers" d=" M 576.3632527999999 128.884754037 L 576.3632527999999 1081.2271064269996" stroke-miterlimit="10" stroke-width="1.3612669416666667" stroke-dasharray="12.565541,5.445067766666667"/></g><g><path fill="none" stroke="none"/><g><path fill="white" stroke="black" paint-order="fill stroke markers" d=" M 48.95232091949999 84.779705127 L 114.3997120805 84.779705127 L 114.3997120805 128.884754037 L 48.95232091949999 128.884754037 L 48.95232091949999 84.779705127 Z" stroke-miterlimit="10" stroke-width="2.613632528" stroke-dasharray=""/></g><g><g/><text fill="black" stroke="none" font-family="sans-serif" font-size="11pt" font-style="normal" font-weight="normal" text-decoration="normal" x="66.67601649999999" y="112.549550737" text-anchor="start" dominant-baseline="alphabetic" xml:space="preserve">Main</text></g><path fill="none" stroke="none"/><g><path fill="white" stroke="black" paint-order="fill stroke markers" d=" M 222.84806635283326 84.779705127 L 302.2954575138333 84.779705127 L 302.2954575138333 128.884754037 L 222.84806635283326 128.884754037 L 222.84806635283326 84.779705127 Z" stroke-miterlimit="10" stroke-width="2.613632528" stroke-dasharray=""/></g><g><g/><text fill="black" stroke="none" font-family="sans-serif" font-size="11pt" font-style="normal" font-weight="normal" text-decoration="normal" x="240.57176193333328" y="112.549550737" text-anchor="start" dominant-baseline="alphabetic" xml:space="preserve">Teams</text></g><path fill="none" stroke="none"/><g><path fill="white" stroke="black" paint-order="fill stroke markers" d=" M 383.7438117861666 84.779705127 L 455.19120294716663 84.779705127 L 455.19120294716663 128.884754037 L 383.7438117861666 128.884754037 L 383.7438117861666 84.779705127 Z" stroke-miterlimit="10" stroke-width="2.613632528" stroke-dasharray=""/></g><g><g/><text fill="black" stroke="none" font-family="sans-serif" font-size="11pt" font-style="normal" font-weight="normal" text-decoration="normal" x="401.4675073666666" y="112.549550737" text-anchor="start" dominant-baseline="alphabetic" xml:space="preserve">Team</text></g><g><path fill="white" stroke="black" paint-order="fill stroke markers" d=" M 552.513855982 96.867755569 L 552.513855982 62.563828639 L 600.2126496179999 62.563828639 L 600.2126496179999 96.867755569" stroke-miterlimit="10" stroke-width="2.7769845610000004" stroke-dasharray=""/><path fill="white" stroke="black" paint-order="fill stroke markers" d=" M 600.2126496179999 61.3713587981 L 600.2114571580962 61.47916934301662 L 600.2078798976302 61.58696910696859 L 600.2019181943249 61.69474731006935 L 600.1935726443455 61.8024931745884 L 600.1828440822403 61.91019592602908 L 600.1697335808565 62.017844794206 L 600.1542424512332 62.125429014322044 L 600.1363722424707 62.232937828044854 L 600.1161247415746 62.34036048458265 L 600.0935019732784 62.44768624175929 L 600.06850619984 62.55490436708851 L 600.041139920816 62.66200413884712 L 600.0114058728115 62.76897484714718 L 599.9793070292063 62.87580579500701 L 599.9448465998582 62.982486299420856 L 599.9080280307815 63.08900569242717 L 599.8688550038021 63.19535332217542 L 599.8273314361903 63.30151855399125 L 599.7834614802683 63.40749077143996 L 599.737249522995 63.5132593773881 L 599.6887001855276 63.618813795063225 L 599.6378183227596 63.724143469111524 L 599.5846090228347 63.82923786665337 L 599.5290776066385 63.93408647833659 L 599.4712296272664 64.03867881938739 L 599.4110708694683 64.1430044306588 L 599.3486073490697 64.24705287967667 L 599.2838453123704 64.35081376168277 L 599.2167912355204 64.45427670067541 L 599.1474518238715 64.55743135044686 L 599.0758340113068 64.66026739561813 L 599.0019449595482 64.7627745526704 L 598.9257920574391 64.86494257097338 L 598.8473829202063 64.96676123381039 L 598.7667253886982 65.06822035939997 L 598.6838275286008 65.16930980191414 L 598.5986976296309 65.27001945249287 L 598.5113442047075 65.37033924025505 L 598.4217759891003 65.47025913330548 L 598.3300019395563 65.56976913973813 L 598.2360312334038 65.66885930863528 L 598.1398732676353 65.7675197310626 L 598.0415376579672 65.86574054106009 L 597.9410342378783 65.96351191662859 L 597.8383730576272 66.06082408071202 L 597.7335643832462 66.15766730217506 L 597.6266186955153 66.25403189677627 L 597.5175466889143 66.3499082281365 L 597.406359270553 66.4452867087025 L 597.2930675590804 66.54015780070569 L 597.1776828835735 66.63451201711595 L 597.0602167824035 66.72833992259025 L 596.9406810020826 66.82163213441623 L 596.8190874960893 66.91437932345046 L 596.6954484236729 67.00657221505134 L 596.5697761486375 67.0982015900065 L 596.4420832381061 67.18925828545483 L 596.312382461263 67.27973319580266 L 596.1806867880781 67.36961727363435 L 596.0470093880089 67.45890153061701 L 595.911363628684 67.54757703839935 L 595.7737630745661 67.6356349295045 L 595.6342214855962 67.72306639821673 L 595.4927528158169 67.80986270146201 L 595.3493712119771 67.89601515968236 L 595.2040910121179 67.98151515770375 L 595.0569267441381 68.06635414559763 L 594.907893124342 68.15052363953589 L 594.757005055967 68.2340152226393 L 594.6042776276947 68.31682054581911 L 594.4497261121405 68.39893132861202 L 594.293365964327 68.48033936000816 L 594.1352128201387 68.56103649927225 L 593.9752824947584 68.6410146767576 L 593.8135909810852 68.72026589471311 L 593.6501544481359 68.79878222808303 L 593.4849892394274 68.87655582529945 L 593.318111871343 68.95357890906746 L 593.1495390314806 69.02984377714286 L 592.9792875769834 69.10534280310242 L 592.8073745328553 69.18006843710643 L 592.6338170902573 69.25401320665378 L 592.4586326047889 69.32716971732913 L 592.2818385947529 69.39953065354239 L 592.1034527394029 69.47108877926021 L 591.9234928771756 69.54183693872967 L 591.7419770039076 69.61176805719379 L 591.5589232710346 69.68087514159897 L 591.3743499837776 69.74915128129439 L 591.1882755993114 69.81658964872294 L 591.0007187249195 69.88318350010411 L 590.8116981161328 69.94892617610824 L 590.6212326748549 70.01381110252252 L 590.4293414474711 70.07783179090838 L 590.2360436229443 70.14098183925032 L 590.0413585308958 70.20325493259614 L 589.8453056396726 70.26464484368842 L 589.6479045544004 70.32514543358717 L 589.4491750150233 70.38475065228383 L 589.2491368943296 70.44345453930622 L 589.0478101959646 70.50125122431453 L 588.8452150524306 70.55813492768844 L 588.6413717230728 70.61409996110503 L 588.4363005920545 70.66914072810756 L 588.2300221663178 70.72325172466522 L 588.0225570735334 70.77642753972344 L 587.8139260600377 70.82866285574504 L 587.6041499887583 70.87995244924193 L 587.3932498371273 70.9302911912975 L 587.1812466949842 70.9796740480795 L 586.9681617624666 71.0280960813434 L 586.7540163478902 71.07555244892625 L 586.5388318656179 71.12203840523081 L 586.3226298339187 71.16754930170019 L 586.1054318728155 71.21208058728268 L 585.8872597019235 71.25562780888683 L 585.668135138278 71.29818661182675 L 585.4480800941526 71.33975274025764 L 585.2271165748685 71.38032203760127 L 585.0052666765936 71.41989044696174 L 584.7825525841325 71.45845401153106 L 584.5589965687091 71.49600887498494 L 584.3346209857386 71.5325512818683 L 584.1094482725923 71.56807757797091 L 583.8835009463539 71.60258421069277 L 583.6568016015677 71.63606772939937 L 583.4293729079793 71.66852478576672 L 583.2012376082685 71.69995213411627 L 582.9724185157752 71.73034663173934 L 582.7429385122178 71.7597052392115 L 582.5128205454058 71.78802502069648 L 582.2820876269437 71.81530314423973 L 582.0507628299314 71.84153688205163 L 581.8188692866555 71.86672361078024 L 581.5864301862774 71.8908608117737 L 581.3534687725133 71.913946071332 L 581.1200083413104 71.93597708094846 L 580.8860722385174 71.95695163754044 L 580.6516838575494 71.97686764366978 L 580.4168666370495 71.99572310775245 L 580.1816440585438 72.01351614425778 L 579.9460396440942 72.03024497389691 L 579.7100769539459 72.04590792380084 L 579.4737795841712 72.06050342768764 L 579.2371711643102 72.07403002601906 L 579.0002753550076 72.08648636614654 L 578.7631158456471 72.09787120244648 L 578.5257163519819 72.1081833964447 L 578.2881006137635 72.11742191693043 L 578.0502923923679 72.12558584005929 L 577.8123154684188 72.13267434944576 L 577.5741936394104 72.13868673624485 L 577.3359507173273 72.14362239922286 L 577.0976105262629 72.14748084481762 L 576.8591969000379 72.1502616871878 L 576.6207336798161 72.15196464825142 L 576.382244711721 72.15258955771385 L 576.1437538444504 72.15213635308466 L 575.9052849268926 72.15060507968391 L 575.6668618057404 72.14799589063767 L 575.4285083231074 72.1443090468627 L 575.190248314143 72.13954491704027 L 574.9521056046498 72.1337039775794 L 574.7141040087001 72.12678681256918 L 574.4762673262553 72.11879411372033 L 574.2386193407854 72.10972668029609 L 574.0011838168908 72.09958541903224 L 573.7639844979261 72.08837134404646 L 573.5270451036257 72.07608557673689 L 573.2903893277314 72.06272934567005 L 573.0540408356236 72.04830398645788 L 572.8180232619545 72.0328109416243 L 572.582360208285 72.01625176046089 L 572.3470752407238 71.99862809887196 L 572.1121918875718 71.97994171920898 L 571.8777336369685 71.96019449009434 L 571.6437239345437 71.9393883862345 L 571.4101861810723 71.91752548822251 L 571.1771437301354 71.89460798232996 L 570.9446198857837 71.87063816028832 L 570.7126379002078 71.84561841905983 L 570.4812209714132 71.81955126059778 L 570.2503922408997 71.79243929159627 L 570.0201747913482 71.7642852232296 L 569.7905916443116 71.73509187088118 L 569.5616657579133 71.7048621538619 L 569.3334200245513 71.67359909511825 L 569.1058772686087 71.64130582093009 L 568.8790602441713 71.6079855605979 L 568.6529916327529 71.57364164611994 L 568.4276940410259 71.53827751185906 L 568.2031899985618 71.50189669419922 L 567.9795019555779 71.46450283119185 L 567.756652280692 71.42609966219209 L 567.5346632586859 71.38669102748484 L 567.3135570882769 71.34628086790075 L 567.0933558798974 71.30487322442208 L 566.8740816534853 71.26247223777868 L 566.6557563362801 71.21908214803388 L 566.4384017606317 71.17470729416048 L 566.2220396618167 71.12935211360693 L 566.0066916758643 71.08302114185344 L 565.7923793373941 71.0357190119586 L 565.579124077461 70.987450454096 L 565.3669472214135 70.93822029508118 L 565.1558699867602 70.88803345788901 L 564.9459134810488 70.8368949611614 L 564.7370986997549 70.7848099187054 L 564.5294465241826 70.73178353898187 L 564.3229777193765 70.67782112458457 L 564.1177129320448 70.62292807170999 L 563.9136726884954 70.56710986961765 L 563.7108773925823 70.51037210008127 L 563.5093473236666 70.4527204368305 L 563.3091026345869 70.39416064498364 L 563.1101633496453 70.33469858047107 L 562.9125493626045 70.27434018944969 L 562.7162804346987 70.2130915077083 L 562.5213761926568 70.15095866006402 L 562.3278561267409 70.08794785974987 L 562.1357395887961 70.02406540779336 L 561.9450457903164 69.95931769238642 L 561.7557938005224 69.89371118824668 L 561.5680025444555 69.82725245596986 L 561.3816908010848 69.7599481413738 L 561.1968772014294 69.69180497483389 L 561.0135802266954 69.62282977060998 L 560.8318182064272 69.55302942616503 L 560.6516093166756 69.4824109214753 L 560.4729715781793 69.41098131833243 L 560.2959228545634 69.3387477596372 L 560.1204808505526 69.26571746868528 L 559.9466631102011 69.19189774844492 L 559.7744870151382 69.1172959808266 L 559.6039697828298 69.04191962594494 L 559.4351284648573 68.96577622137262 L 559.2679799452113 68.88887338138663 L 559.102540938605 68.81121879620687 L 558.9388279888008 68.73282023122718 L 558.7768574669575 68.6536855262387 L 558.6166455699922 68.573822594646 L 558.458208318961 68.49323942267567 L 558.3015615574573 68.41194406857777 L 558.1467209500264 68.32994466181995 L 557.9937019806 68.24724940227456 L 557.8425199509478 68.16386655939866 L 557.6931899791465 68.07980447140702 L 557.545726998069 67.99507154443839 L 557.4001457538905 67.90967625171488 L 557.256460804614 67.8236271326946 L 557.1146865186148 67.73693279221771 L 556.9748370732034 67.64960189964606 L 556.8369264532076 67.56164318799608 L 556.7009684495746 67.47306545306569 L 556.5669766579915 67.38387755255452 L 556.4349644775258 67.29408840517834 L 556.3049451092854 67.20370698977703 L 556.1769315550989 67.11274234441683 L 556.050936616215 67.02120356548647 L 555.9269728920227 66.92909980678756 L 555.805052778791 66.83644027861922 L 555.6851884684296 66.74323424685704 L 555.5673919472697 66.64949103202653 L 555.4516749948652 66.55522000837107 L 555.338049182815 66.46043060291444 L 555.2265258736056 66.3651322945182 L 555.117116219475 66.2693346129338 L 555.0098311612973 66.17304713784955 L 554.904681427489 66.07627949793272 L 554.801677532936 65.97904136986665 L 554.7008297779416 65.88134247738313 L 554.6021482471975 65.78319259028999 L 554.5056428087746 65.68460152349414 L 554.4113231131362 65.58557913602012 L 554.3191985921732 65.48613533002413 L 554.229278458261 65.38628004980393 L 554.1415717033381 65.2860232808043 L 554.0560870980067 65.18537504861862 L 553.9728331906565 65.08434541798623 L 553.8918183066085 64.982944491786 L 553.8130505472836 64.88118241002603 L 553.7365377893924 64.77906934882972 L 553.6622876841466 64.67661551941809 L 553.590307656495 64.5738311670887 L 553.5206049043803 64.47072657019112 L 553.4531863980199 64.36731203909913 L 553.3880588792078 64.26359791517966 L 553.3252288606419 64.15959456975868 L 553.2647026252718 64.05531240308405 L 553.2064862256702 63.95076184328555 L 553.150585483429 63.84595334533201 L 553.0970059885756 63.74089738998592 L 553.0457530990147 63.63560448275524 L 552.996831939993 63.530085152842965 L 552.9502474035851 63.42434995209415 L 552.9060041482062 63.318409453940745 L 552.8641065981448 63.2122742523443 L 552.824558943121 63.105954960736526 L 552.7873651378674 62.99946221095797 L 552.7525289017335 62.892806652194885 L 552.7200537183138 62.78599894991426 L 552.6899428350998 62.679049784797314 L 552.6621992631545 62.57196985167143 L 552.6368257768122 62.464769858440704 L 552.6138249134002 62.357460525015114 L 552.5931989729858 62.25005258223858 L 552.5749500181456 62.14255677081588 L 552.5590798737602 62.03498384023857 L 552.5455901268307 61.92734454771006 L 552.5344821263204 61.81964965706991 L 552.5257569830204 61.71190993771744 L 552.5194155694375 61.6041361635348 L 552.5154585197079 61.49633911180959 L 552.5138862295331 61.38852956215717 L 552.5146988561411 61.28071829544265 L 552.5178963182697 61.172916092702856 L 552.5234782961753 61.06513373406823 L 552.531444231665 60.957381997684834 L 552.5417933281517 60.84967165863649 L 552.5545245507345 60.74201348786736 L 552.5696366263016 60.6344182511048 L 552.5871280436583 60.526896707782825 L 552.6069970536771 60.41945960996616 L 552.6292416694737 60.31211770127506 L 552.6538596666052 60.204881715810956 L 552.6808485832921 60.097762377083015 L 552.7102057206655 59.99077039693585 L 552.741928143036 59.88391647447831 L 552.776012678188 59.7772112950136 L 552.812455917696 59.67066552897075 L 552.8512542172667 59.56428983083758 L 552.8924036971024 59.45809483809524 L 552.9359002422894 59.35209117015452 L 552.9817395032095 59.24628942729389 L 553.0299168959747 59.14070018959944 L 553.080427602886 59.03533401590697 L 553.1332665729145 58.93020144274604 L 553.1884285222077 58.82531298328635 L 553.2459079346163 58.72067912628645 L 553.3056990622471 58.61631033504484 L 553.3677959260369 58.51221704635366 L 553.4321923163515 58.40840966945505 L 553.4988817936053 58.30489858500019 L 553.5678576889061 58.20169414401126 L 553.6391131047219 58.098806666846365 L 553.7126409155705 57.996246442167475 L 553.7884337687321 57.894023725911595 L 553.8664840849846 57.79214874026516 L 553.9467840593613 57.69063167264185 L 554.0293256619317 57.58948267466382 L 554.1141006386044 57.488711861146584 L 554.2011005119524 57.38832930908751 L 554.2903165820608 57.28834505665816 L 554.3817399273969 57.18876910220045 L 554.4753614057024 57.08961140322686 L 554.5711716549074 56.99088187542464 L 554.669161094067 56.8925903916643 L 554.7693199243189 56.794746781012314 L 554.8716381298634 56.6973608277482 L 554.9761054789652 56.60044227038614 L 555.0827115249767 56.5040008007011 L 555.191445607382 56.40804606275968 L 555.3022968528633 56.31258765195572 L 555.4152541763887 56.217635114050736 L 555.5303062823198 56.12319794421941 L 555.6474416655419 56.029285586100016 L 555.7666486126143 55.93590743085011 L 555.8879152029417 55.8430728162074 L 556.0112293099662 55.75079102555599 L 556.1365786023796 55.65907128699804 L 556.2639505453573 55.56792277243099 L 556.3933324018111 55.47735459663031 L 556.5247112336632 55.387375816338135 L 556.6580739031398 55.29799542935749 L 556.7934070740852 55.20922237365261 L 556.930697213295 55.12106552645507 L 557.0699305918698 55.033533703376136 L 557.2110932865877 54.94663565752517 L 557.3541711812968 54.86038007863435 L 557.499149968327 54.77477559218967 L 557.6460151499202 54.689830758568455 L 557.7947520396809 54.60555407218327 L 557.9453457640439 54.52195396063252 L 558.0977812637623 54.439038783857704 L 558.252043295413 54.35681683330739 L 558.4081164329217 54.27529633110813 L 558.5659850691045 54.19448542924221 L 558.7256334172295 54.114392208732454 L 558.8870455125946 54.03502467883419 L 559.0502052141251 53.95639077623426 L 559.2150962059866 53.878498364257396 L 559.3817019992175 53.801355232079885 L 559.5500059333773 53.72496909395066 L 559.7199911782126 53.649347588419886 L 559.8916407353408 53.57449827757509 L 560.0649374399493 53.50042864628498 L 560.2398639625118 53.42714610145097 L 560.416402810522 53.35465797126647 L 560.594536330242 53.28297150448409 L 560.7742467084686 53.21209386969077 L 560.9555159743135 53.14203215459092 L 561.1383260010011 53.072793365297684 L 561.3226585076814 53.00438442563227 L 561.5084950612571 52.93681217643165 L 561.6958170782277 52.870083374864436 L 561.8846058265476 52.80420469375517 L 562.0748424274994 52.739182720917064 L 562.2665078575816 52.67502395849323 L 562.4595829504107 52.611734822306424 L 562.6540483986383 52.54932164121754 L 562.8498847558819 52.48779065649267 L 563.0470724386687 52.427148021179015 L 563.245591728395 52.36739979948956 L 563.445422773297 52.3085519661967 L 563.6465455904367 52.25061040603471 L 563.8489400677004 52.19358091311133 L 564.0525859658087 52.13746919032833 L 564.2574629203415 52.08228084881122 L 564.4635504437741 52.02802140734818 L 564.670827927526 51.974696291838114 L 564.8792746440215 51.922310834748146 L 565.0888697487627 51.87087027458034 L 565.2995922824136 51.82037975534783 L 565.5114211728967 51.770844326060484 L 565.7243352374993 51.72226894021993 L 565.9383131849925 51.674658455324284 L 566.1533336177597 51.62801763238236 L 566.3693750339369 51.58235113543759 L 566.5864158295624 51.5376635311016 L 566.8044343007377 51.49395928809759 L 567.0234086457973 51.451242776813444 L 567.2433169674891 51.409518268864694 L 567.4641372751643 51.368789936667355 L 567.685847486976 51.32906185302072 L 567.9084254320878 51.29033799070003 L 568.1318488528908 51.252622222059266 L 568.356095407229 51.21591831864385 L 568.5811426706339 51.18022995081354 L 568.8069681385666 51.14556068737539 L 569.0335492286687 51.11191399522683 L 569.2608632830198 51.079293239009054 L 569.4888875704039 51.047701680770494 L 569.7175992885824 51.01714247964064 L 569.946975566574 50.98761869151416 L 570.1769934669421 50.95913326874524 L 570.4076299880883 50.93168905985244 L 570.6388620665526 50.90528880923376 L 570.87066657932 50.87993515689227 L 571.1030203461323 50.85563063817208 L 571.3359001318065 50.83237768350481 L 571.5692826485581 50.81017861816654 L 571.8031445583299 50.78903566204531 L 572.0374624751257 50.768950929419105 L 572.2722129673492 50.749926428744466 L 572.5073725601468 50.7319640624556 L 572.7429177377552 50.71506562677416 L 572.9788249458528 50.69923281152964 L 573.2150705939156 50.684467199990365 L 573.4516310575754 50.6707702687052 L 573.6884826809832 50.658143387355835 L 573.9256017791738 50.64658781861989 L 574.1629646404352 50.63610471804463 L 574.400547528679 50.62669513393135 L 574.6383266858143 50.61836000723063 L 574.8762783341236 50.61110017144819 L 575.1143786786404 50.604916352561574 L 575.3526039095285 50.5998091689475 L 575.5909302044636 50.595779131320086 L 575.8293337310146 50.592826642679725 L 576.0677906490274 50.59095199827282 L 576.3062771130093 50.59015538556226 L 576.5447692745123 50.59043688420866 L 576.7832432845191 50.59179646606236 L 577.0216752958275 50.594233995166334 L 577.260041465435 50.59774922776969 L 577.4983179569233 50.6023418123521 L 577.7364809428418 50.60801128965893 L 577.9745066070903 50.61475709274719 L 578.2123711473008 50.622578547042174 L 578.4500507772175 50.63147487040497 L 578.6875217290756 50.64144517321068 L 578.9247602559775 50.6524884584373 L 579.1617426342684 50.66460362176552 L 579.398445165908 50.67778945168912 L 579.6348441808403 50.69204462963607 L 579.870916039361 50.70736773010048 L 580.1066371344806 50.72375722078505 L 580.3419838942863 50.74121146275439 L 580.5769327842982 50.759728710598836 L 580.8114603098229 50.77930711260903 L 581.0455430183036 50.79994471096109 L 581.2791575016644 50.821639441912396 L 581.5122803986515 50.844389136007905 L 581.7448883971696 50.86819151829718 L 581.9769582366126 50.893044208561825 L 582.2084667101901 50.91894472155353 L 582.4393906672476 50.94589046724256 L 582.6697070155818 50.973878751076825 L 582.8993927237498 51.00290677425126 L 583.1284248233721 51.03297163398772 L 583.3567804114298 51.064070323825305 L 583.5844366525542 51.09619973392093 L 583.811370781311 51.129356651360375 L 584.0375601044764 51.16353776047952 L 584.2629820033067 51.198739643195935 L 584.4876139357996 51.23495877935069 L 584.7114334389493 51.27219154706035 L 584.9344181309918 51.31043422307917 L 585.1565457136438 51.349682983171405 L 585.3777939743323 51.38993390249377 L 585.5981407884154 51.43118295598788 L 585.8175641213953 51.47342601878273 L 586.0360420311217 51.51665886660727 L 586.2535526699857 51.56087717621274 L 586.4700742871045 51.60607652580503 L 586.6855852304968 51.65225239548683 L 586.9000639492481 51.69940016770967 L 587.1134889956651 51.74751512773561 L 587.325839027421 51.79659246410874 L 587.5370928096897 51.84662726913632 L 587.7472292172689 51.89761453937955 L 587.9562272366929 51.949549176153894 L 588.1640659683342 52.00242598603895 L 588.3707246284924 52.0562396813978 L 588.5761825514742 52.11098488090573 L 588.7804191916581 52.16665611008844 L 588.9834141255504 52.22324780186939 L 589.185147053827 52.28075429712656 L 589.3855978033631 52.339169845258354 L 589.5847463292507 52.398488604758626 L 589.7825727168033 52.458704643800864 L 589.979057183547 52.51981194083135 L 590.1741800811988 52.581804385171296 L 590.3679218976315 52.64467577762793 L 590.5602632588249 52.708419831114405 L 590.7511849308033 52.77303017127848 L 590.9406678215585 52.83850033713999 L 591.1286929829594 52.90482378173691 L 591.3152416126464 52.97199387278003 L 591.5002950559121 53.040003893316246 L 591.6838348075664 53.108847042400164 L 591.8658425137871 53.17851643577425 L 592.0462999739552 53.24900510655722 L 592.2251891424751 53.32030600594074 L 592.4024921305788 53.39241200389429 L 592.5781912081156 53.465315889878156 L 592.752268805324 53.5390103735645 L 592.9247075145893 53.61348808556637 L 593.0954900921843 53.68874157817461 L 593.2645994599935 53.76476332610268 L 593.4320187072211 53.84154572723915 L 593.597731092082 53.91908110340788 L 593.7617200434756 53.99736170113587 L 593.9239691626436 54.07637969242858 L 594.0844622248093 54.156127175552726 L 594.2431831808001 54.236596175826456 L 594.4001161586526 54.3177786464168 L 594.5552454652 54.39966646914434 L 594.7085555876408 54.48225145529506 L 594.8600311950905 54.56552534643915 L 595.0096571401147 54.6494798152569 L 595.1574184602434 54.73410646637139 L 595.3033003794679 54.81939683718802 L 595.4472883097178 54.9053423987408 L 595.58936785232 54.99193455654518 L 595.7295247994388 55.079164651457546 L 595.867745135496 55.16702396054111 L 596.0040150385734 55.25550369793815 L 596.1383208817941 55.344595015748695 L 596.270649234686 55.43428900491518 L 596.4009868645236 55.52457669611344 L 596.5293207376529 55.615449060649595 L 596.6556380207936 55.706897011362926 L 596.7799260823223 55.79891140353456 L 596.9021724935367 55.891483035801954 L 597.0223650298974 55.98460265107904 L 597.1404916722511 56.07826093748187 L 597.2565406080317 56.17244852925987 L 597.3705002324426 56.26715600773234 L 597.4823591496163 56.36237390223035 L 597.5921061737541 56.45809269104382 L 597.6997303302453 56.55430280237361 L 597.8052208567638 56.65099461528878 L 597.9085672043448 56.74815846068861 L 598.0097590384397 56.84578462226952 L 598.1087862399496 56.943863337496715 L 598.2056389062366 57.0423847985804 L 598.3003073521149 57.14133915345658 L 598.3927821108189 57.240716506772216 L 598.4830539349497 57.34050692087479 L 598.5711137974 57.44070041680606 L 598.6569528922571 57.54128697529992 L 598.7405626356831 57.64225653778434 L 598.821934666773 57.74359900738722 L 598.9010608483919 57.84530424994605 L 598.9779332679874 57.94736209502132 L 599.0525442383815 58.04976233691358 L 599.1248862985396 58.15249473568397 L 599.1949522143158 58.25554901817823 L 599.2627349791768 58.35891487905398 L 599.3282278149028 58.46258198181127 L 599.3914241722646 58.566539959826216 L 599.4523177316794 58.67077841738765 L 599.5109024038418 58.77528693073668 L 599.5671723303334 58.88005504910905 L 599.6211218842086 58.985072295780256 L 599.6727456705569 59.09032816911312 L 599.7220385270425 59.19581214360803 L 599.7689955244211 59.301513670955444 L 599.813611967032 59.4074221810907 L 599.8558833932681 59.513527083251056 L 599.8958055760219 59.619817767034704 L 599.9333745231086 59.72628360346185 L 599.9685864776645 59.832913946037564 L 600.001437918524 59.939698131816456 L 600.0319255605698 60.046625482468926 L 600.0600463550635 60.153685305349015 L 600.0857974899488 60.26086689456366 L 600.109176390134 60.36815953204325 L 600.1301807177483 60.47555248861345 L 600.1488083723766 60.5830350250681 L 600.1650574912688 60.69059639324311 L 600.1789264495268 60.79822583709131 L 600.1904138602661 60.905912593758 L 600.1995185747552 61.01364589465726 L 600.2062396825304 61.12141496654876 L 600.2105765114864 61.22920903261514 L 600.2125286279439 61.337017313539604 M 600.2126496179999 95.6752857281 L 600.2114571580962 95.78309627301661 L 600.2078798976302 95.89089603696858 L 600.2019181943249 95.99867424006935 L 600.1935726443455 96.1064201045884 L 600.1828440822403 96.21412285602908 L 600.1697335808565 96.321771724206 L 600.1542424512332 96.42935594432204 L 600.1363722424707 96.53686475804484 L 600.1161247415746 96.64428741458265 L 600.0935019732784 96.75161317175929 L 600.06850619984 96.85883129708851 L 600.041139920816 96.96593106884711 L 600.0114058728115 97.07290177714718 L 599.9793070292063 97.17973272500701 L 599.9448465998582 97.28641322942086 L 599.9080280307815 97.39293262242717 L 599.8688550038021 97.49928025217542 L 599.8273314361903 97.60544548399125 L 599.7834614802683 97.71141770143996 L 599.737249522995 97.8171863073881 L 599.6887001855276 97.92274072506322 L 599.6378183227596 98.02807039911151 L 599.5846090228347 98.13316479665336 L 599.5290776066385 98.23801340833658 L 599.4712296272664 98.34260574938737 L 599.4110708694683 98.4469313606588 L 599.3486073490697 98.55097980967666 L 599.2838453123704 98.65474069168278 L 599.2167912355204 98.7582036306754 L 599.1474518238715 98.86135828044685 L 599.0758340113068 98.96419432561812 L 599.0019449595482 99.0667014826704 L 598.9257920574391 99.16886950097337 L 598.8473829202063 99.27068816381038 L 598.7667253886982 99.37214728939998 L 598.6838275286008 99.47323673191414 L 598.5986976296309 99.57394638249288 L 598.5113442047075 99.67426617025505 L 598.4217759891003 99.77418606330548 L 598.3300019395563 99.87369606973812 L 598.2360312334038 99.97278623863527 L 598.1398732676353 100.0714466610626 L 598.0415376579672 100.1696674710601 L 597.9410342378783 100.2674388466286 L 597.8383730576272 100.36475101071201 L 597.7335643832462 100.46159423217506 L 597.6266186955153 100.55795882677627 L 597.5175466889143 100.65383515813649 L 597.406359270553 100.74921363870249 L 597.2930675590804 100.84408473070569 L 597.1776828835735 100.93843894711594 L 597.0602167824035 101.03226685259024 L 596.9406810020826 101.12555906441622 L 596.8190874960893 101.21830625345046 L 596.6954484236729 101.31049914505132 L 596.5697761486375 101.4021285200065 L 596.4420832381061 101.49318521545483 L 596.312382461263 101.58366012580265 L 596.1806867880781 101.67354420363434 L 596.0470093880089 101.762828460617 L 595.911363628684 101.85150396839936 L 595.7737630745661 101.93956185950451 L 595.6342214855962 102.02699332821673 L 595.4927528158169 102.11378963146201 L 595.3493712119771 102.19994208968237 L 595.2040910121179 102.28544208770374 L 595.0569267441381 102.37028107559762 L 594.907893124342 102.45445056953588 L 594.757005055967 102.53794215263929 L 594.6042776276947 102.6207474758191 L 594.4497261121405 102.70285825861201 L 594.293365964327 102.78426629000816 L 594.1352128201387 102.86496342927225 L 593.9752824947584 102.9449416067576 L 593.8135909810852 103.02419282471311 L 593.6501544481359 103.10270915808303 L 593.4849892394274 103.18048275529944 L 593.318111871343 103.25750583906745 L 593.1495390314806 103.33377070714286 L 592.9792875769834 103.4092697331024 L 592.8073745328553 103.48399536710642 L 592.6338170902573 103.55794013665377 L 592.4586326047889 103.63109664732913 L 592.2818385947529 103.70345758354237 L 592.1034527394029 103.7750157092602 L 591.9234928771756 103.84576386872968 L 591.7419770039076 103.91569498719377 L 591.5589232710346 103.98480207159896 L 591.3743499837776 104.05307821129438 L 591.1882755993114 104.12051657872294 L 591.0007187249195 104.1871104301041 L 590.8116981161328 104.25285310610823 L 590.6212326748549 104.31773803252251 L 590.4293414474711 104.38175872090837 L 590.2360436229443 104.44490876925032 L 590.0413585308958 104.50718186259614 L 589.8453056396726 104.5685717736884 L 589.6479045544004 104.62907236358716 L 589.4491750150233 104.68867758228383 L 589.2491368943296 104.7473814693062 L 589.0478101959646 104.80517815431453 L 588.8452150524306 104.86206185768845 L 588.6413717230728 104.91802689110501 L 588.4363005920545 104.97306765810755 L 588.2300221663178 105.02717865466522 L 588.0225570735334 105.08035446972343 L 587.8139260600377 105.13258978574503 L 587.6041499887583 105.18387937924192 L 587.3932498371273 105.23421812129749 L 587.1812466949842 105.28360097807949 L 586.9681617624666 105.33202301134341 L 586.7540163478902 105.37947937892625 L 586.5388318656179 105.4259653352308 L 586.3226298339187 105.4714762317002 L 586.1054318728155 105.51600751728267 L 585.8872597019235 105.55955473888682 L 585.668135138278 105.60211354182675 L 585.4480800941526 105.64367967025764 L 585.2271165748685 105.68424896760128 L 585.0052666765936 105.72381737696173 L 584.7825525841325 105.76238094153106 L 584.5589965687091 105.79993580498493 L 584.3346209857386 105.83647821186828 L 584.1094482725923 105.8720045079709 L 583.8835009463539 105.90651114069276 L 583.6568016015677 105.93999465939936 L 583.4293729079793 105.97245171576672 L 583.2012376082685 106.00387906411626 L 582.9724185157752 106.03427356173933 L 582.7429385122178 106.0636321692115 L 582.5128205454058 106.09195195069648 L 582.2820876269437 106.11923007423972 L 582.0507628299314 106.14546381205162 L 581.8188692866555 106.17065054078024 L 581.5864301862774 106.1947877417737 L 581.3534687725133 106.21787300133201 L 581.1200083413104 106.23990401094846 L 580.8860722385174 106.26087856754044 L 580.6516838575494 106.28079457366978 L 580.4168666370495 106.29965003775246 L 580.1816440585438 106.31744307425777 L 579.9460396440942 106.3341719038969 L 579.7100769539459 106.34983485380084 L 579.4737795841712 106.36443035768762 L 579.2371711643102 106.37795695601905 L 579.0002753550076 106.39041329614655 L 578.7631158456471 106.40179813244647 L 578.5257163519819 106.4121103264447 L 578.2881006137635 106.42134884693041 L 578.0502923923679 106.42951277005928 L 577.8123154684188 106.43660127944577 L 577.5741936394104 106.44261366624485 L 577.3359507173273 106.44754932922287 L 577.0976105262629 106.45140777481762 L 576.8591969000379 106.45418861718778 L 576.6207336798161 106.45589157825142 L 576.382244711721 106.45651648771386 L 576.1437538444504 106.45606328308465 L 575.9052849268926 106.4545320096839 L 575.6668618057404 106.45192282063768 L 575.4285083231074 106.44823597686269 L 575.190248314143 106.44347184704026 L 574.9521056046498 106.43763090757939 L 574.7141040087001 106.43071374256917 L 574.4762673262553 106.42272104372033 L 574.2386193407854 106.41365361029608 L 574.0011838168908 106.40351234903224 L 573.7639844979261 106.39229827404645 L 573.5270451036257 106.38001250673689 L 573.2903893277314 106.36665627567004 L 573.0540408356236 106.35223091645787 L 572.8180232619545 106.33673787162431 L 572.582360208285 106.32017869046089 L 572.3470752407238 106.30255502887195 L 572.1121918875718 106.28386864920897 L 571.8777336369685 106.26412142009434 L 571.6437239345437 106.2433153162345 L 571.4101861810723 106.22145241822251 L 571.1771437301354 106.19853491232995 L 570.9446198857837 106.17456509028831 L 570.7126379002078 106.14954534905984 L 570.4812209714132 106.12347819059778 L 570.2503922408997 106.09636622159626 L 570.0201747913482 106.06821215322961 L 569.7905916443116 106.03901880088118 L 569.5616657579133 106.0087890838619 L 569.3334200245513 105.97752602511825 L 569.1058772686087 105.94523275093007 L 568.8790602441713 105.91191249059789 L 568.6529916327529 105.87756857611994 L 568.4276940410259 105.84220444185907 L 568.2031899985618 105.8058236241992 L 567.9795019555779 105.76842976119184 L 567.756652280692 105.73002659219209 L 567.5346632586859 105.69061795748485 L 567.3135570882769 105.65020779790075 L 567.0933558798974 105.60880015442207 L 566.8740816534853 105.56639916777867 L 566.6557563362801 105.52300907803387 L 566.4384017606317 105.47863422416049 L 566.2220396618167 105.43327904360692 L 566.0066916758643 105.38694807185344 L 565.7923793373941 105.33964594195861 L 565.579124077461 105.291377384096 L 565.3669472214135 105.24214722508117 L 565.1558699867602 105.19196038788901 L 564.9459134810488 105.1408218911614 L 564.7370986997549 105.08873684870541 L 564.5294465241826 105.03571046898188 L 564.3229777193765 104.98174805458457 L 564.1177129320448 104.92685500170998 L 563.9136726884954 104.87103679961766 L 563.7108773925823 104.81429903008126 L 563.5093473236666 104.7566473668305 L 563.3091026345869 104.69808757498365 L 563.1101633496453 104.63862551047107 L 562.9125493626045 104.57826711944969 L 562.7162804346987 104.51701843770829 L 562.5213761926568 104.45488559006402 L 562.3278561267409 104.39187478974986 L 562.1357395887961 104.32799233779335 L 561.9450457903164 104.26324462238642 L 561.7557938005224 104.19763811824667 L 561.5680025444555 104.13117938596986 L 561.3816908010848 104.0638750713738 L 561.1968772014294 103.99573190483389 L 561.0135802266954 103.92675670060999 L 560.8318182064272 103.85695635616503 L 560.6516093166756 103.7863378514753 L 560.4729715781793 103.71490824833242 L 560.2959228545634 103.64267468963719 L 560.1204808505526 103.56964439868527 L 559.9466631102011 103.4958246784449 L 559.7744870151382 103.4212229108266 L 559.6039697828298 103.34584655594495 L 559.4351284648573 103.26970315137261 L 559.2679799452113 103.19280031138662 L 559.102540938605 103.11514572620688 L 558.9388279888008 103.03674716122718 L 558.7768574669575 102.9576124562387 L 558.6166455699922 102.87774952464599 L 558.458208318961 102.79716635267567 L 558.3015615574573 102.71587099857777 L 558.1467209500264 102.63387159181995 L 557.9937019806 102.55117633227457 L 557.8425199509478 102.46779348939864 L 557.6931899791465 102.383731401407 L 557.545726998069 102.29899847443839 L 557.4001457538905 102.21360318171489 L 557.256460804614 102.12755406269459 L 557.1146865186148 102.04085972221772 L 556.9748370732034 101.95352882964605 L 556.8369264532076 101.86557011799609 L 556.7009684495746 101.77699238306568 L 556.5669766579915 101.68780448255453 L 556.4349644775258 101.59801533517833 L 556.3049451092854 101.50763391977702 L 556.1769315550989 101.41666927441683 L 556.050936616215 101.32513049548646 L 555.9269728920227 101.23302673678755 L 555.805052778791 101.14036720861921 L 555.6851884684296 101.04716117685703 L 555.5673919472697 100.95341796202653 L 555.4516749948652 100.85914693837105 L 555.338049182815 100.76435753291443 L 555.2265258736056 100.66905922451821 L 555.117116219475 100.5732615429338 L 555.0098311612973 100.47697406784954 L 554.904681427489 100.3802064279327 L 554.801677532936 100.28296829986664 L 554.7008297779416 100.18526940738312 L 554.6021482471975 100.08711952028997 L 554.5056428087746 99.98852845349413 L 554.4113231131362 99.8895060660201 L 554.3191985921732 99.79006226002413 L 554.229278458261 99.69020697980392 L 554.1415717033381 99.5899502108043 L 554.0560870980067 99.48930197861863 L 553.9728331906565 99.38827234798623 L 553.8918183066085 99.28687142178599 L 553.8130505472836 99.18510934002603 L 553.7365377893924 99.08299627882971 L 553.6622876841466 98.98054244941808 L 553.590307656495 98.87775809708869 L 553.5206049043803 98.7746535001911 L 553.4531863980199 98.67123896909912 L 553.3880588792078 98.56752484517966 L 553.3252288606419 98.46352149975867 L 553.2647026252718 98.35923933308405 L 553.2064862256702 98.25468877328554 L 553.150585483429 98.14988027533201 L 553.0970059885756 98.04482431998592 L 553.0457530990147 97.93953141275524 L 552.996831939993 97.83401208284296 L 552.9502474035851 97.72827688209414 L 552.9060041482062 97.62233638394075 L 552.8641065981448 97.5162011823443 L 552.824558943121 97.40988189073651 L 552.7873651378674 97.30338914095798 L 552.7525289017335 97.19673358219488 L 552.7200537183138 97.08992587991426 L 552.6899428350998 96.9829767147973 L 552.6621992631545 96.87589678167143 L 552.6368257768122 96.7686967884407 L 552.6138249134002 96.66138745501512 L 552.5931989729858 96.55397951223858 L 552.5749500181456 96.44648370081588 L 552.5590798737602 96.33891077023856 L 552.5455901268307 96.23127147771005 L 552.5344821263204 96.1235765870699 L 552.5257569830204 96.01583686771744 L 552.5194155694375 95.90806309353479 L 552.5154585197079 95.80026604180959 L 552.5138862295331 95.69245649215716" stroke-miterlimit="10" stroke-width="2.7769845610000004" stroke-dasharray=""/></g><g><g/><text fill="black" stroke="none" font-family="sans-serif" font-size="11pt" font-style="normal" font-weight="normal" text-decoration="normal" x="544.8632527999999" y="123.98419304699999" text-anchor="start" dominant-baseline="alphabetic" xml:space="preserve">Database</text></g></g><g><path fill="white" stroke="black" paint-order="fill stroke markers" d=" M 73.50841485 137.052355687 L 89.84361814999998 137.052355687 L 89.84361814999998 1064.8919031269995 L 73.50841485 1064.8919031269995 L 73.50841485 137.052355687" stroke-miterlimit="10" stroke-width="1.3612669416666667" stroke-dasharray=""/><path fill="white" stroke="black" paint-order="fill stroke markers" d=" M 254.40416028333328 182.790924927 L 270.7393635833333 182.790924927 L 270.7393635833333 888.4717074869998 L 254.40416028333328 888.4717074869998 L 254.40416028333328 182.790924927" stroke-miterlimit="10" stroke-width="1.3612669416666667" stroke-dasharray=""/><path fill="white" stroke="black" paint-order="fill stroke markers" d=" M 568.1956511499999 228.529494167 L 584.53085445 228.529494167 L 584.53085445 455.588820037 L 568.1956511499999 455.588820037 L 568.1956511499999 228.529494167" stroke-miterlimit="10" stroke-width="1.3612669416666667" stroke-dasharray=""/><path fill="white" stroke="black" paint-order="fill stroke markers" d=" M 411.2999057166666 364.111681557 L 427.6351090166666 364.111681557 L 427.6351090166666 888.4717074869998 L 411.2999057166666 888.4717074869998 L 411.2999057166666 364.111681557" stroke-miterlimit="10" stroke-width="1.3612669416666667" stroke-dasharray=""/><path fill="white" stroke="black" paint-order="fill stroke markers" d=" M 568.1956511499999 842.7331382469998 L 584.53085445 842.7331382469998 L 584.53085445 888.4717074869998 L 568.1956511499999 888.4717074869998 L 568.1956511499999 842.7331382469998" stroke-miterlimit="10" stroke-width="1.3612669416666667" stroke-dasharray=""/><g><g><rect fill="white" stroke="none" x="109.17360872166661" y="161.555160637" width="125.90056099" height="21.23576429"/></g><text fill="black" stroke="none" font-family="sans-serif" font-size="11pt" font-style="normal" font-weight="normal" text-decoration="normal" x="111.62388921666661" y="176.25684360699998" text-anchor="start" dominant-baseline="alphabetic" xml:space="preserve">create team object</text></g><g><path fill="none" stroke="black" paint-order="fill stroke markers" d=" M 89.84361814999998 182.790924927 L 240.95484289966663 182.790924927" stroke-miterlimit="10" stroke-width="1.3612669416666667" stroke-dasharray=""/><g transform="translate(254.40416028333328,182.790924927) translate(-254.40416028333328,-182.790924927)"><path fill="black" stroke="none" paint-order="stroke fill markers" d=" M 240.7914908666666 175.98459021866665 L 254.40416028333328 182.790924927 L 240.7914908666666 189.59725963533333 Z"/></g></g><g><g><rect fill="white" stroke="none" x="368.5172268716666" y="207.293729877" width="101.90056099" height="21.23576429"/></g><text fill="black" stroke="none" font-family="sans-serif" font-size="11pt" font-style="normal" font-weight="normal" text-decoration="normal" x="370.9675073666666" y="221.99541284699998" text-anchor="start" dominant-baseline="alphabetic" xml:space="preserve">readFromFile()</text></g><g><path fill="none" stroke="black" paint-order="fill stroke markers" d=" M 270.7393635833333 228.529494167 L 554.7463337663332 228.529494167" stroke-miterlimit="10" stroke-width="1.3612669416666667" stroke-dasharray=""/><g transform="translate(568.1956511499999,228.529494167) translate(-568.1956511499999,-228.529494167)"><path fill="black" stroke="none" paint-order="stroke fill markers" d=" M 554.5829817333332 221.72315945866666 L 568.1956511499999 228.529494167 L 554.5829817333332 235.33582887533333 Z"/></g></g><g><g><rect fill="white" stroke="none" x="384.5172268716666" y="253.032299117" width="69.90056099" height="21.23576429"/></g><text fill="black" stroke="none" font-family="sans-serif" font-size="11pt" font-style="normal" font-weight="normal" text-decoration="normal" x="386.9675073666666" y="267.733982087" text-anchor="start" dominant-baseline="alphabetic" xml:space="preserve">team data</text></g><g><path fill="none" stroke="black" paint-order="fill stroke markers" d=" M 568.1956511499999 274.268063407 L 284.1886809669999 274.268063407" stroke-miterlimit="10" stroke-width="1.3612669416666667" stroke-dasharray="6.53408132"/><g transform="translate(270.7393635833333,274.268063407) translate(-270.7393635833333,-274.268063407)"><path fill="black" stroke="none" paint-order="stroke fill markers" d=" M 284.35203299999995 267.46172869866666 L 270.7393635833333 274.268063407 L 284.35203299999995 281.07439811533334 Z"/></g></g><g><g><rect fill="white" stroke="none" x="290.0693541549999" y="342.875917267" width="101.90056099" height="21.23576429"/></g><text fill="black" stroke="none" font-family="sans-serif" font-size="11pt" font-style="normal" font-weight="normal" text-decoration="normal" x="292.51963464999994" y="357.57760023699996" text-anchor="start" dominant-baseline="alphabetic" xml:space="preserve">readFromFile()</text></g><g><path fill="none" stroke="black" paint-order="fill stroke markers" d=" M 270.7393635833333 364.111681557 L 397.85058833299996 364.111681557" stroke-miterlimit="10" stroke-width="1.3612669416666667" stroke-dasharray=""/><g transform="translate(411.2999057166666,364.111681557) translate(-411.2999057166666,-364.111681557)"><path fill="black" stroke="none" paint-order="stroke fill markers" d=" M 397.68723629999994 357.30534684866666 L 411.2999057166666 364.111681557 L 397.68723629999994 370.91801626533334 Z"/></g></g><g><g><rect fill="white" stroke="none" x="446.96509958833326" y="388.614486507" width="101.90056099" height="21.23576429"/></g><text fill="black" stroke="none" font-family="sans-serif" font-size="11pt" font-style="normal" font-weight="normal" text-decoration="normal" x="449.4153800833333" y="403.31616947699996" text-anchor="start" dominant-baseline="alphabetic" xml:space="preserve">readFromFile()</text></g><g><path fill="none" stroke="black" paint-order="fill stroke markers" d=" M 427.6351090166666 409.850250797 L 554.7463337663332 409.850250797" stroke-miterlimit="10" stroke-width="1.3612669416666667" stroke-dasharray=""/><g transform="translate(568.1956511499999,409.850250797) translate(-568.1956511499999,-409.850250797)"><path fill="black" stroke="none" paint-order="stroke fill markers" d=" M 554.5829817333332 403.04391608866666 L 568.1956511499999 409.850250797 L 554.5829817333332 416.65658550533334 Z"/></g></g><g><g><rect fill="white" stroke="none" x="462.96509958833326" y="434.353055747" width="69.90056099" height="21.23576429"/></g><text fill="black" stroke="none" font-family="sans-serif" font-size="11pt" font-style="normal" font-weight="normal" text-decoration="normal" x="465.4153800833333" y="449.05473871699996" text-anchor="start" dominant-baseline="alphabetic" xml:space="preserve">team data</text></g><g><path fill="none" stroke="black" paint-order="fill stroke markers" d=" M 568.1956511499999 455.588820037 L 441.08442640033326 455.588820037" stroke-miterlimit="10" stroke-width="1.3612669416666667" stroke-dasharray="6.53408132"/><g transform="translate(427.6351090166666,455.588820037) translate(-427.6351090166666,-455.588820037)"><path fill="black" stroke="none" paint-order="stroke fill markers" d=" M 441.2477784333333 448.78248532866667 L 427.6351090166666 455.588820037 L 441.2477784333333 462.39515474533334 Z"/></g></g><g><g><rect fill="white" stroke="none" x="146.17360872166662" y="504.594429937" width="51.90056099" height="21.23576429"/></g><text fill="black" stroke="none" font-family="sans-serif" font-size="11pt" font-style="normal" font-weight="normal" text-decoration="normal" x="148.6238892166666" y="519.296112907" text-anchor="start" dominant-baseline="alphabetic" xml:space="preserve">menu()</text></g><g><path fill="none" stroke="black" paint-order="fill stroke markers" d=" M 89.84361814999998 525.830194227 L 240.95484289966663 525.830194227" stroke-miterlimit="10" stroke-width="1.3612669416666667" stroke-dasharray=""/><g transform="translate(254.40416028333328,525.830194227) translate(-254.40416028333328,-525.830194227)"><path fill="black" stroke="none" paint-order="stroke fill markers" d=" M 240.7914908666666 519.0238595186667 L 254.40416028333328 525.830194227 L 240.7914908666666 532.6365289353333 Z"/></g></g><g><g><rect fill="white" stroke="none" x="303.5693541549999" y="594.438048087" width="74.90056099" height="21.23576429"/></g><text fill="black" stroke="none" font-family="sans-serif" font-size="11pt" font-style="normal" font-weight="normal" text-decoration="normal" x="306.01963464999994" y="609.139731057" text-anchor="start" dominant-baseline="alphabetic" xml:space="preserve">readData()</text></g><g><path fill="none" stroke="black" paint-order="fill stroke markers" d=" M 270.7393635833333 615.673812377 L 397.85058833299996 615.673812377" stroke-miterlimit="10" stroke-width="1.3612669416666667" stroke-dasharray=""/><g transform="translate(411.2999057166666,615.673812377) translate(-411.2999057166666,-615.673812377)"><path fill="black" stroke="none" paint-order="stroke fill markers" d=" M 397.68723629999994 608.8674776686667 L 411.2999057166666 615.673812377 L 397.68723629999994 622.4801470853333 Z"/></g></g><g><g><rect fill="white" stroke="none" x="304.0693541549999" y="684.2816662369999" width="73.90056099" height="21.23576429"/></g><text fill="black" stroke="none" font-family="sans-serif" font-size="11pt" font-style="normal" font-weight="normal" text-decoration="normal" x="306.51963464999994" y="698.9833492069998" text-anchor="start" dominant-baseline="alphabetic" xml:space="preserve">printData()</text></g><g><path fill="none" stroke="black" paint-order="fill stroke markers" d=" M 270.7393635833333 705.5174305269999 L 397.85058833299996 705.5174305269999" stroke-miterlimit="10" stroke-width="1.3612669416666667" stroke-dasharray=""/><g transform="translate(411.2999057166666,705.5174305269999) translate(-411.2999057166666,-705.5174305269999)"><path fill="black" stroke="none" paint-order="stroke fill markers" d=" M 397.68723629999994 698.7110958186665 L 411.2999057166666 705.5174305269999 L 397.68723629999994 712.3237652353332 Z"/></g></g><g><g><rect fill="white" stroke="none" x="446.96509958833326" y="730.0202354769998" width="73.90056099" height="21.23576429"/></g><text fill="black" stroke="none" font-family="sans-serif" font-size="11pt" font-style="normal" font-weight="normal" text-decoration="normal" x="449.4153800833333" y="744.7219184469998" text-anchor="start" dominant-baseline="alphabetic" xml:space="preserve">printData()</text></g><g><path fill="none" stroke="black" paint-order="fill stroke markers" d=" M 427.6351090166666 751.2559997669998 L 492.9759222166666 751.2559997669998 L 492.9759222166666 772.4917640569998 L 441.08442640033326 772.4917640569998" stroke-miterlimit="10" stroke-width="1.3612669416666667" stroke-dasharray=""/><g transform="translate(427.6351090166666,772.4917640569998) translate(-427.6351090166666,-772.4917640569998)"><path fill="black" stroke="none" paint-order="stroke fill markers" d=" M 441.2477784333333 765.6854293486665 L 427.6351090166666 772.4917640569998 L 441.2477784333333 779.2980987653332 Z"/></g></g><g><g><rect fill="white" stroke="none" x="377.5172268716666" y="821.4973739569998" width="83.90056099" height="21.23576429"/></g><text fill="black" stroke="none" font-family="sans-serif" font-size="11pt" font-style="normal" font-weight="normal" text-decoration="normal" x="379.9675073666666" y="836.1990569269998" text-anchor="start" dominant-baseline="alphabetic" xml:space="preserve">writeToFile()</text></g><g><path fill="none" stroke="black" paint-order="fill stroke markers" d=" M 270.7393635833333 842.7331382469998 L 554.7463337663332 842.7331382469998" stroke-miterlimit="10" stroke-width="1.3612669416666667" stroke-dasharray=""/><g transform="translate(568.1956511499999,842.7331382469998) translate(-568.1956511499999,-842.7331382469998)"><path fill="black" stroke="none" paint-order="stroke fill markers" d=" M 554.5829817333332 835.9268035386665 L 568.1956511499999 842.7331382469998 L 554.5829817333332 849.5394729553332 Z"/></g></g><g><g><rect fill="white" stroke="none" x="455.96509958833326" y="867.2359431969998" width="83.90056099" height="21.23576429"/></g><text fill="black" stroke="none" font-family="sans-serif" font-size="11pt" font-style="normal" font-weight="normal" text-decoration="normal" x="458.4153800833333" y="881.9376261669997" text-anchor="start" dominant-baseline="alphabetic" xml:space="preserve">writeToFile()</text></g><g><path fill="none" stroke="black" paint-order="fill stroke markers" d=" M 427.6351090166666 888.4717074869998 L 554.7463337663332 888.4717074869998" stroke-miterlimit="10" stroke-width="1.3612669416666667" stroke-dasharray=""/><g transform="translate(568.1956511499999,888.4717074869998) translate(-568.1956511499999,-888.4717074869998)"><path fill="black" stroke="none" paint-order="stroke fill markers" d=" M 554.5829817333332 881.6653727786664 L 568.1956511499999 888.4717074869998 L 554.5829817333332 895.2780421953331 Z"/></g></g><g><g><rect fill="white" stroke="none" x="109.17360872166664" y="957.0795613469998" width="51.90056099" height="21.23576429"/></g><text fill="black" stroke="none" font-family="sans-serif" font-size="11pt" font-style="normal" font-weight="normal" text-decoration="normal" x="111.62388921666664" y="971.7812443169997" text-anchor="start" dominant-baseline="alphabetic" xml:space="preserve">menu()</text></g><g><path fill="none" stroke="black" paint-order="fill stroke markers" d=" M 89.84361814999998 978.3153256369998 L 155.18443134999998 978.3153256369998 L 155.18443134999998 999.5510899269998 L 103.29293553366665 999.5510899269998" stroke-miterlimit="10" stroke-width="1.3612669416666667" stroke-dasharray=""/><g transform="translate(89.84361814999998,999.5510899269998) translate(-89.84361814999998,-999.5510899269998)"><path fill="black" stroke="none" paint-order="stroke fill markers" d=" M 103.45628756666665 992.7447552186665 L 89.84361814999998 999.5510899269998 L 103.45628756666665 1006.3574246353331 Z"/></g></g><g><g/><path fill="none" stroke="black" paint-order="fill stroke markers" d=" M 205.3985503833333 298.770868357 L 633.53646435 298.770868357 L 633.53646435 480.091624987 L 205.3985503833333 480.091624987 L 205.3985503833333 298.770868357 Z" stroke-miterlimit="10" stroke-width="2.3336004714285714" stroke-dasharray=""/><path fill="white" stroke="black" paint-order="fill stroke markers" d=" M 205.3985503833333 298.770868357 L 205.3985503833333 318.373112317 L 262.0689569833333 318.373112317 L 271.8700789633333 308.571990337 L 271.8700789633333 298.770868357 L 205.3985503833333 298.770868357" stroke-miterlimit="10" stroke-width="2.3336004714285714" stroke-dasharray=""/><text fill="black" stroke="none" font-family="sans-serif" font-size="8.8pt" font-style="normal" font-weight="bold" text-decoration="normal" x="221.73375368333328" y="311.839030997" text-anchor="start" dominant-baseline="alphabetic" xml:space="preserve">loop</text><text fill="black" stroke="none" font-family="sans-serif" font-size="8.8pt" font-style="normal" font-weight="bold" text-decoration="normal" x="288.2052822633333" y="311.839030997" text-anchor="start" dominant-baseline="alphabetic" xml:space="preserve">[all teams]</text></g><g><g/><path fill="none" stroke="black" paint-order="fill stroke markers" d=" M 205.3985503833333 550.332999177 L 526.5829817333333 550.332999177 L 526.5829817333333 796.9945690069999 L 205.3985503833333 796.9945690069999 L 205.3985503833333 550.332999177 Z" stroke-miterlimit="10" stroke-width="2.3336004714285714" stroke-dasharray=""/><path fill="white" stroke="black" paint-order="fill stroke markers" d=" M 205.3985503833333 550.332999177 L 205.3985503833333 569.935243137 L 252.0689569833333 569.935243137 L 261.8700789633333 560.134121157 L 261.8700789633333 550.332999177 L 205.3985503833333 550.332999177" stroke-miterlimit="10" stroke-width="2.3336004714285714" stroke-dasharray=""/><text fill="black" stroke="none" font-family="sans-serif" font-size="8.8pt" font-style="normal" font-weight="bold" text-decoration="normal" x="221.73375368333328" y="563.401161817" text-anchor="start" dominant-baseline="alphabetic" xml:space="preserve">alt</text><text fill="black" stroke="none" font-family="sans-serif" font-size="8.8pt" font-style="normal" font-weight="bold" text-decoration="normal" x="278.2052822633333" y="563.401161817" text-anchor="start" dominant-baseline="alphabetic" xml:space="preserve">[add team]</text><g><path fill="none" stroke="black" paint-order="fill stroke markers" d=" M 205.3985503833333 640.1766173269999 L 526.5829817333333 640.1766173269999" stroke-miterlimit="10" stroke-width="2.3336004714285714" stroke-dasharray="4.083800825"/></g><g/><text fill="black" stroke="none" font-family="sans-serif" font-size="8.8pt" font-style="normal" font-weight="bold" text-decoration="normal" x="278.2052822633333" y="653.2447799669999" text-anchor="start" dominant-baseline="alphabetic" xml:space="preserve">[show teams]</text></g><g/><g><g/><path fill="none" stroke="black" paint-order="fill stroke markers" d=" M 24.50280494999999 912.9745124369998 L 166.79149086666666 912.9745124369998 L 166.79149086666666 1024.0538948769997 L 24.50280494999999 1024.0538948769997 L 24.50280494999999 912.9745124369998 Z" stroke-miterlimit="10" stroke-width="2.3336004714285714" stroke-dasharray=""/><path fill="white" stroke="black" paint-order="fill stroke markers" d=" M 24.50280494999999 912.9745124369998 L 24.50280494999999 932.5767563969998 L 81.17321154999999 932.5767563969998 L 90.97433353 922.7756344169998 L 90.97433353 912.9745124369998 L 24.50280494999999 912.9745124369998" stroke-miterlimit="10" stroke-width="2.3336004714285714" stroke-dasharray=""/><text fill="black" stroke="none" font-family="sans-serif" font-size="8.8pt" font-style="normal" font-weight="bold" text-decoration="normal" x="40.83800824999999" y="926.0426750769998" text-anchor="start" dominant-baseline="alphabetic" xml:space="preserve">loop</text><text fill="black" stroke="none" font-family="sans-serif" font-size="8.8pt" font-style="normal" font-weight="bold" text-decoration="normal" x="107.30953683" y="926.0426750769998" text-anchor="start" dominant-baseline="alphabetic" xml:space="preserve">[until user choice]</text></g></g><g/><g/><g/><g/></g></svg>